<svg width="712" height="813" viewBox="0 0 712 813" fill="none" xmlns="http://www.w3.org/2000/svg"><g clip-path="url(#a)"><path d="M271.944 207.949 97.415 279.035l130.887 122.511L360.309 523.69l153.933-105.27" fill="#99E686"/><path d="m253.506 740.503 110.216-217.061-132.706-121.393L98.032 281.812 14 520zm368.149-541.712L514.242 418.42l-108.134-90.819-132.713-121.386L371.524 1.907" fill="#99E686"/><path d="M95.686 280.304c9.531 8.513 18.184 17.421 27.474 26.196 20.438 19.284 41.003 38.448 61.524 57.642 24.549 22.962 49.309 45.713 73.918 68.608 21.543 20.034 43.078 40.076 64.643 60.088 11.11 10.314 22.054 20.868 33.434 30.882.308.277.617.555.932.825 1.729 1.464 4.247-1.028 2.503-2.499-9.749-8.25-18.836-17.423-28.164-26.137a63614 63614 0 0 1-61.554-57.612c-24.527-22.977-48.903-46.119-73.475-69.051-21.505-20.072-42.973-40.189-64.636-60.089-11.162-10.253-22.129-20.822-33.727-30.588-.315-.27-.234-.306-.557-.569-1.609-1.291-3.916.886-2.315 2.312z" fill="#000"/><path d="M96.333 280.776c2.804-2.305 8.674-2.199 12.38-3.063 4.262-.991 8.411-2.995 12.463-4.616 12.996-5.202 25.849-10.757 38.703-16.304 29.367-12.671 58.78-25.259 88.042-38.155a1070 1070 0 0 1 16.266-7.003c2.541-1.066 5.367-2.59 8.133-2.995 2.383-.346 1.368-3.964-1-3.611.617-.09-.714.12-1.015.188-.541.127-1.074.277-1.601.435-1.525.443-3.036.961-4.54 1.479-4.615 1.591-9.155 3.385-13.695 5.179-13.695 5.405-27.195 11.282-40.687 17.16-29.157 12.708-58.254 25.559-87.516 38.02-4.879 2.079-9.952 3.873-14.718 6.2-1.293.63-2.481 1.404-3.849 1.884-3.126 1.096-6.253 1.321-8.659 3.881-.827.886.399 2.049 1.308 1.306z" fill="#000"/><path d="M274.199 206.68c12.485-20.927 22.662-43.071 33.231-65.027 16.551-34.402 33.268-68.736 49.504-103.28 5.532-11.778 10.877-23.646 16.214-35.52.969-2.155-2.128-4.077-3.24-1.892-13.162 25.724-25.639 51.779-38.079 77.856-15.898 33.321-31.893 66.589-47.671 99.962-4.194 8.873-7.464 18.045-11.545 26.963-.489 1.058.977 1.974 1.593.931zm89.005 319.599c1.661-1.921 3.435-2.965 5.141-4.241 3.781-2.83 7.637-5.57 11.5-8.294 11.869-8.37 23.866-16.559 35.877-24.726 26.369-17.933 52.767-35.806 78.812-54.211 7.013-4.955 14.229-9.774 20.881-15.216 1.661-1.358-.706-3.7-2.352-2.349-4.593 3.76-12.185 8.047-17.815 11.71-12.192 7.919-24.421 15.771-36.546 23.787-26.548 17.565-53.022 35.273-79.112 53.513-4.66 3.258-9.313 6.523-13.876 9.909-2.33 1.726-5.074 3.43-6.998 5.645-2.661 3.07 1.812 7.566 4.488 4.481z" fill="#000"/><path d="M269.84 208.85c24.82 21.723 49.527 43.589 74.444 65.208 40.575 35.212 80.939 70.687 121.732 105.652 15.319 13.128 30.645 26.242 46.039 39.273 2.233 1.892 5.48-1.261 3.255-3.25a14294 14294 0 0 0-96.716-85.265c-38.508-33.636-77.016-67.272-115.719-100.683-9.907-8.55-19.784-17.58-29.931-24.959-2.345-1.704-5.284 2.11-3.104 4.024" fill="#000"/><path d="M273.448 207.761c1.766 0 1.774-2.747 0-2.747s-1.774 2.747 0 2.747M13.217 520.485c-.718 2.015-1.739 2.633.007 4.477 4.006 4.246 8.424 8.162 12.776 12.055 14.236 12.736 28.34 25.62 42.43 38.519 39.487 36.141 79.042 72.194 118.581 108.284 21.402 19.537 42.873 39.001 64.298 58.516 1.425 1.297 3.593-.748 2.169-2.082-39.106-36.719-78.282-73.358-117.58-109.863-33.997-31.581-68.263-62.889-102.922-93.74C27.68 531.937 22.244 526.175 16.5 522c-2.49-1.813 1.285-.661-1.5-2-1.185-.564-1-1.5-1.776.5z" fill="#000"/><path d="M95.625 278.318c-2.323 2.754-2.109 5.918-2.97 8.868a64 64 0 0 1-1.563 4.659c-2.104 5.566-4.156 11.116-6.085 16.78-6.17 18.115-12.501 36.16-18.812 54.213-14.512 41.519-29.647 82.819-43.305 124.69-2.41 7.396-4.84 14.786-7.034 22.265-.66 2.242-1.314 4.492-1.894 6.761-.181.715-.382 1.437-.516 2.165-.211 1.111-.193 1.059-.254 1.778-.2 2.333 3.123 2.226 3.316-.085-.066.778.14-.523.212-.789.177-.648.353-1.304.542-1.953.563-1.903 1.186-3.779 1.81-5.654 2.055-6.15 4.185-12.281 6.322-18.397a31851 31851 0 0 0 19.34-55.456c14.11-40.571 28.622-80.992 42.141-121.812C89.152 309.485 92 300.5 94 294c3.17-8.337 3.55-8.873 4-11 .665-3.113.5-3-1.193-3.438.629-.895-.46-2.111-1.189-1.244zm267.684 244.268c-3.991-1.086-4.197 4.123-6.309 7.914-2.774 4.977-5.462 13.99-8.085 19.072-8.524 16.529-17.183 32.998-25.827 49.467-19.784 37.719-40.207 75.161-59.119 113.323-3.33 6.726-6.682 13.444-9.809 20.268-1.466 3.197-2.382 4.575-3.187 8.028-.548 2.35 3.075 3.348 3.616.998.503-2.176 1.33-3.194 2.608-5.694 2.834-5.539 5.72-11.056 8.629-16.559 8.93-16.949 17.814-33.921 26.684-50.9 19.31-36.969 39.011-73.758 57.728-111.035 3.172-6.32 6.825-12.663 9.08-19.374.646-1.921 1.458-3.783 2.15-5.689 1.029-2.853 1.059-6.216 3.164-8.505.804-.878-.421-2.102-1.308-1.306zm261.195-325.281c-2.09-1.389-3.976-3.295-5.863-4.992-4.104-3.7-8.584-7.048-13.004-10.359-14.537-10.884-28.969-21.903-43.378-32.96-41.026-31.482-82.029-63.008-122.717-94.94C417.113 36.45 394.713 18.818 372.584.84c-1.488-1.209-3.623.87-2.127 2.124 40.131 33.674 81.074 66.371 122.228 98.784 34.9 27.481 70.213 54.474 105.842 81.009 7.847 5.847 15.92 12.288 24.932 16.319 1.195.532 2.165-1.029 1.037-1.78z" fill="#000"/><path d="M515.167 418.42c.278-2.274 2.367-5.66 3.54-7.934 2.917-5.652 6.171-11.072 9.02-16.769 8.644-17.272 17.521-34.439 26.376-51.607 19.385-37.591 39.545-74.868 57.788-113.038 3.157-6.598 6.314-13.204 9.17-19.937.924-2.177 1.849-4.361 2.638-6.591.233-.66.459-1.313.647-1.989.067-.232.12-.473.173-.713.218-.968.067-.067.135-1.013.173-2.41-3.586-2.395-3.751 0 .045-.593-.105.353-.225.713-.196.6-.429 1.186-.662 1.771-.624 1.554-1.503 3.416-2.3 5.097-2.728 5.743-5.592 11.425-8.479 17.092-8.757 17.22-17.574 34.409-26.391 51.592-19.31 37.652-39.146 75.063-57.645 113.121-3.247 6.673-6.028 13.353-8.689 20.267-1.157 3.002-3.127 6.635-3.194 9.938-.023 1.216 1.713 1.149 1.849 0m8.611-248.906c-2.367-1.201-4.502-2.95-6.569-4.594-3.736-2.972-7.299-6.088-11.14-8.962-11.004-8.242-21.888-16.665-32.765-25.072-23.94-18.51-47.452-37.734-72.084-55.322-6.923-4.946-14.951-11.267-22.317-14.397-2.195-.93-4.112 2.29-1.894 3.235 2.465 1.051 4.728 2.875 6.885 4.429a511 511 0 0 1 11.493 8.542c10.922 8.34 21.843 16.687 32.742 25.057 24.016 18.458 47.723 37.366 72.228 55.171 6.93 5.037 14.507 10.742 22.715 13.594.985.346 1.646-1.216.714-1.688zm2.659 119.861c-3.029-1.696-5.803-3.941-8.516-6.088-4.901-3.873-9.637-7.881-14.635-11.649-14.267-10.75-28.406-21.671-42.544-32.586-31.059-23.982-61.674-48.656-93.432-71.716-9.11-6.613-18.303-14.134-28.458-19.126-2.157-1.058-4.067 2.17-1.894 3.235 3.089 1.517 5.915 3.791 8.674 5.81a856 856 0 0 1 14.92 11.17 19161 19161 0 0 1 42.432 32.51c31.156 23.938 61.997 48.334 93.634 71.633 5.924 4.362 11.824 8.46 18.093 12.266 3.51 2.132 7.005 4.519 10.786 6.14 1.06.458 2-.998.932-1.591zM337.77 205.942c.143-3.813-5.578-6.59-8.253-8.482-2.383-1.681-4.698-3.175-7.66-3.453-1.616-.15-2.48 2.154-1.33 3.198 1.999 1.809 4.104 3.272 6.351 4.759 2.751 1.824 6.66 6.065 10.208 4.864a.96.96 0 0 0 .676-.893zm128.932 99.272c-4.119-2.207-7.118-5.885-10.786-8.678-6.713-5.104-13.357-10.298-19.987-15.5-17.627-13.842-34.998-28.014-52.549-41.961-9.508-7.551-19.13-14.93-28.984-22.016-1.714-1.239-3.894 1.569-2.27 2.942 17.326 14.705 35.095 28.855 52.879 43.004 15.41 12.258 30.728 24.689 46.724 36.181 4.217 3.033 9.283 6.065 14.274 7.717.992.33 1.631-1.194.714-1.689zm-239.845-27.711c-.075-4.001-4.683-6.711-7.509-9.068-2.082-1.741-4.254-3.535-6.998-4.031-1.804-.323-3.172 1.689-1.827 3.13 1.774 1.899 3.691 3.453 5.721 5.075 2.766 2.199 5.893 6.192 9.681 5.817.489-.045.932-.383.925-.923zm119.987 109.848c-3.871-2.514-6.509-6.418-9.884-9.473-6.209-5.615-12.342-11.312-18.468-17.017-16.251-15.14-32.202-30.588-48.362-45.826-8.968-8.452-18.055-16.747-27.413-24.764-1.812-1.553-4.375.916-2.654 2.65 15.905 16.004 32.292 31.497 48.693 46.99 14.372 13.579 28.646 27.323 43.687 40.174 3.916 3.348 8.674 6.808 13.469 8.865 1.075.458 1.955-.931.932-1.591zm78.51-231.021c-1.654-1.846-3.014-3.955-4.826-5.644-1.593-1.487-3.36-2.83-5.029-4.226-3.239-2.718-6.569-5.337-9.869-7.98-6.171-4.939-12.357-9.856-18.611-14.69-6.803-5.262-14.161-11.8-22.43-14.69-2.007-.698-3.315 2.44-1.443 3.423 2.766 1.464 5.284 3.603 7.742 5.517 4.578 3.558 9.223 7.034 13.831 10.554 6.171 4.722 12.289 9.519 18.385 14.338 3.127 2.469 6.239 4.969 9.404 7.393 1.729 1.321 3.412 2.77 5.216 3.986 2.037 1.381 4.36 2.252 6.502 3.468.932.526 1.812-.675 1.12-1.449zm-.945 244.073c-2.871-1.974-5.427-4.511-7.937-6.913-4.525-4.324-8.877-8.768-13.515-13.001-13.199-12.055-26.271-24.253-39.335-36.451-28.668-26.768-56.833-54.181-86.29-80.086-8.449-7.431-16.905-15.74-26.549-21.663-2.06-1.269-3.954 1.974-1.894 3.235 2.841 1.742 5.419 4.264 7.975 6.531a883 883 0 0 1 13.906 12.611c13.116 12.145 26.24 24.283 39.334 36.451 28.744 26.715 57.126 53.843 86.426 79.95 5.472 4.879 10.967 9.465 16.837 13.834 3.278 2.44 6.517 5.127 10.11 7.086 1.06.578 1.91-.923.932-1.591zm-199.721-65.518c-2.654-3.58-4.954-6.815-8.111-10.006s-6.058-5.99-9.117-8.947c-5.743-5.555-11.501-11.095-17.334-16.567-6.344-5.952-13.259-13.466-21.324-17.159-2.173-.999-3.947 1.891-1.894 3.235 2.623 1.719 4.93 4.143 7.2 6.29 4.33 4.084 8.765 8.07 13.124 12.123 5.585 5.179 11.11 10.419 16.62 15.673 3.082 2.943 6.148 5.9 9.275 8.79 3.308 3.055 6.615 5.277 10.283 7.837.737.51 1.811-.525 1.263-1.261zm124.768 117.588c-4.435-5.037-8.569-10.096-13.372-14.803a1590 1590 0 0 0-13.883-13.436 6192 6192 0 0 0-25.978-24.696c-12.966-12.251-25.865-24.636-39.597-36.038-3.864-3.213-7.78-6.538-12.102-9.143-2.105-1.269-3.819 1.854-1.894 3.235 9.283 6.666 17.423 15.471 25.797 23.195 15.657 14.435 31.186 29.012 46.648 43.657 5.156 4.879 10.305 9.773 15.499 14.607 5.668 5.277 11.546 9.879 17.566 14.72.917.736 2.105-.397 1.308-1.306zm185.971-211.148c-3.984-2.642-7.208-6.23-11.034-9.105-6.886-5.18-13.711-10.442-20.513-15.726-18.882-14.66-37.305-29.928-56.758-43.822-1.729-1.231-3.864 1.539-2.27 2.942 18.213 16.056 37.583 30.791 56.84 45.579 10.366 7.957 20.694 17.107 33.029 21.828 1.022.391 1.54-1.14.714-1.688zM147.575 397.877c-1.872-2.789-3.108-4.692-5.605-7.01-1.987-1.844-4.042-3.621-6.082-5.405-3.817-3.335-7.642-6.656-11.52-9.916-4.395-3.689-8.985-7.702-14.384-9.84-2.103-.831-3.073 2.281-1.452 3.419 4.674 3.285 8.91 7.484 13.313 11.121a853 853 0 0 1 10.936 9.224c2.078 1.776 4.14 3.576 6.263 5.3 2.55 2.071 4.322 2.886 7.272 4.358.766.384 1.82-.439 1.266-1.258zm115.933 106.408c-2.947-2.755-5.284-6.019-8.126-8.841-5.218-5.178-10.753-10.094-16.152-15.092-15.283-14.166-30.414-28.49-45.667-42.686-9.501-8.837-19.077-17.554-28.925-26.009-1.807-1.551-4.377.897-2.66 2.643 16.021 16.293 32.834 31.754 49.579 47.305 12.92 11.998 25.803 24.049 39.04 35.703 3.577 3.155 7.765 5.838 11.787 8.423.878.565 1.896-.731 1.124-1.446m-13.716 105.758c-2.984-1.801-5.645-4.211-8.253-6.493-4.705-4.113-9.238-8.355-14.033-12.385-13.688-11.493-27.233-23.165-40.763-34.838-29.706-25.611-58.915-51.921-89.418-76.587-8.72-7.056-17.544-15.178-27.496-20.5-2.127-1.141-4.029 2.094-1.894 3.235 2.992 1.599 5.675 3.994 8.291 6.118a786 786 0 0 1 14.417 12.003 13613 13613 0 0 1 40.77 34.837c29.781 25.559 59.201 51.568 89.546 76.46 5.675 4.654 11.357 9.037 17.423 13.143 3.39 2.29 6.765 4.864 10.478 6.613 1.06.496 1.97-.968.932-1.591zM72.235 517.676c.007-4-5.18-6.808-8.028-9.022-2.27-1.764-4.465-3.273-7.374-3.641-1.661-.21-2.405 2.162-1.33 3.198 1.931 1.861 3.983 3.43 6.148 5.022 2.842 2.094 6.081 6.035 9.9 5.337.398-.075.676-.511.676-.894zm123.092 106.388c-3.992-2.304-6.743-6.14-10.2-9.067-6.382-5.413-12.674-10.937-18.957-16.469-16.665-14.683-33.021-29.711-49.58-44.506-9.193-8.219-18.506-16.266-28.09-24.028-1.834-1.486-4.442.954-2.653 2.65 16.469 15.681 33.389 30.851 50.331 46.014 14.68 13.144 29.262 26.468 44.649 38.793 3.999 3.205 8.907 6.516 13.778 8.302 1 .368 1.601-1.171.714-1.689zm-48.312-160.787c-1.55-1.947-2.79-4.145-4.511-5.94-1.51-1.569-3.19-3.016-4.778-4.513-3.081-2.901-6.249-5.706-9.4-8.534-5.88-5.28-11.775-10.546-17.749-15.717-6.456-5.593-13.522-12.657-21.657-15.792-1.982-.759-3.405 2.324-1.56 3.371 2.721 1.551 5.14 3.843 7.49 5.877 4.5 3.896 9.076 7.704 13.59 11.585 5.778 4.969 11.5 10.003 17.2 15.052 3.189 2.829 6.362 5.68 9.591 8.458 3.455 2.966 6.804 5.094 10.622 7.554.92.596 1.804-.621 1.169-1.409zm123.701 106.906c-3.919-2.817-7.028-6.649-10.726-9.759-6.549-5.514-13.035-11.108-19.489-16.723-18.029-15.682-54.086-47.886-72.71-62.875-1.661-1.342-3.869 1.384-2.37 2.863 17.382 17.176 54.535 49.035 73.066 64.959 9.752 8.374 19.487 18.091 31.465 23.191 1.008.433 1.572-1.087.772-1.663zm-4.087-454.588c-1.112 1.97-2.604 5.334-4.64 6.492-2.244 1.277-.275 4.425 1.99 3.404 1.001-.452 2.781 5.157 3.187 6.066l4.254-2.487c-1.008-1.642-.373-3.763 1.891-3.632 1.892.111 2.71-2.356 1.499-3.612-1.348-1.394-5.013-2.9-5.51-4.752-.661-2.473-4.156-1.826-4.313.583-.256 3.992 4.555 6.492 7.761 7.703l.563-4.156c-5.458.576-8.717 5.124-6.145 10.347 1.211 2.467 5.576.7 4.503-1.898-1.663-4.025-4.058-11.008-9.673-7.572l2.389 3.095c2.657-2.788 4.987-4.718 4.483-8.979-.131-1.093-1.591-1.734-2.232-.602zm96.976 527.59c.341 16.863 1.269 33.798 2.338 50.634.52 8.209 1.145 16.408 1.71 24.612.603 8.641.958 17.301 2.517 25.833.231 1.253 2.36 1.566 2.429.086.385-8.366-.336-16.679-.883-25.024-.547-8.344-1.084-16.847-1.645-25.269-1.139-17.013-2.565-34.129-4.513-51.068-.146-1.268-1.98-1.051-1.953.196M241.264 144.858c-2.107 6.937-6.211 14.784-12.369 18.933-2.081 1.401-.164 4.777 1.99 3.397 4.443-2.847 7.087 1.223 8.665 4.928 1.714 4.018 3.311 8.095 5.098 12.081l4.254-2.487c-4.261-6.532.117-16.401 8.632-15.354 1.806.223 2.807-2.473 1.492-3.612-3.096-2.677-6.669-4.83-10.098-7.049-1.695-1.099-3.678-2.081-4.752-3.841-.935-1.538-.975-3.606-1.282-5.38-.177-1.008-1.46-1.112-2.101-.556-3.475 3.004-1.715 8.017 1.23 10.733 1.78 1.643 4.006 2.899 6.015 4.241 2.722 1.826 5.471 3.737 8.429 5.17l1.067-3.94c-5.347.301-10.327 2.107-13.207 6.95s-2.441 10.544.327 15.118c1.381 2.284 5.589.779 4.503-1.898-1.302-3.193-2.723-6.348-4.104-9.509-1.112-2.559-2.068-5.491-3.933-7.631-3.089-3.54-8.409-4.064-12.218-1.374l2.382 3.089c6.97-5.805 11.754-12.382 12.33-21.708.085-1.381-1.97-1.577-2.35-.321zm372.365-11.263c-1.112 1.97-2.604 5.334-4.64 6.492-2.244 1.277-.275 4.425 1.99 3.404 1.001-.452 2.781 5.157 3.187 6.066l4.254-2.487c-1.008-1.642-.373-3.763 1.891-3.632 1.892.111 2.71-2.356 1.499-3.612-1.348-1.394-5.013-2.9-5.51-4.752-.661-2.473-4.156-1.826-4.313.583-.255 3.992 4.555 6.492 7.761 7.703l.563-4.156c-5.458.576-8.717 5.124-6.145 10.347 1.211 2.467 5.576.7 4.503-1.898-1.663-4.025-4.058-11.008-9.673-7.572l2.389 3.095c2.657-2.788 4.987-4.718 4.483-8.979-.131-1.093-1.591-1.734-2.232-.602z" fill="#000"/></g><path d="M72.752 295.904c-19.843 41.039-37.284 81.847-50.5 121.289-1.105 3.311 2.244 2.701 3.74-.941 16.517-40.112 32.815-80.148 50.403-120.502 1.858-4.264-1.502-4.267-3.643.154" fill="#000"/><path d="m390.791 723.068 2.43 35.106s4.311 10.85 16.987 17.401l39.86 19.955s14.097 2.688 21.114 3.421c7.016.733 27.786-3.372 27.786-3.372s7.727-3.159 16.108-13.357c8.373-10.203 42.756-59.689 42.756-59.689l36.12-58.134s17.846-28.399 24.893-63.34c7.04-34.948 35.433-166.737 35.433-166.737l15.729-73.497s4.992-18.972 3.862-23.69-4.657-6.792-4.657-6.792l-38.693-27.919s-30.176-.59-46.773.638c-16.605 1.222-103.772 7.926-103.772 7.926s-25.341-.489-35.359 19.037c0 0-6.185 12.172-13.121 50.373-6.935 38.2-39.149 172.625-39.149 172.625s-8.987 24.625-6.139 67.075l4.578 102.977z" fill="#99E686"/><path d="M463.024 797.07s9.014.787 25.724-30.408c16.711-31.188 57.693-91.504 57.693-91.504l19.525-39.607s10.532-25.445 15.178-51.852l55.994-249.755s2.42-10.642-2.309-21.168c-4.728-10.526-9.844-7.919-9.844-7.919l3.629-6.599s6.138-.702 10.569 3.475 23.259 18.94 23.259 18.94l13.286 9.9 1.357 11.098s-2.124 23.486-7.802 40.012c-5.684 16.526-33.661 155.634-33.681 155.628-.02-.005-14.462 72.84-14.462 72.84s-5.822 24.277-13.804 37.418c-7.982 13.142-51.761 85.778-51.761 85.778s-29.078 46.395-40.004 54.477c0 0-7.892 11.974-16.57 12.936s-20.692 3.221-20.692 3.221l-15.264-.661-.197-5.464" fill="#99E686"/><path d="m461.261 795.852 2.824-.141-1.041 7.602s-15.96-2.502-19.46-5.607c-3.505-3.106-20.076-10.879-20.076-10.879l-18.449-8.472s-12.608-6.897-13.09-19.872-4.69-77.308-4.69-77.308l-2.765-74.868c-.001-.013-1.058-24.743 8.046-59.818s25.686-112.312 25.686-112.312l20.975-93.156s3.195-27.113 23.842-31.565c0 0 54.38-5.376 54.771-5.41.392-.026 83.14-6.021 83.14-6.021l29.79.696-5.773 6.129s-53.801.804-63.566 1.315-81.773 7.974-81.773 7.974l-14.803 2.044s-8.463.947-15.373 12.119-15.81 62.548-15.81 62.548l-8.823 42.626-15.257 68.512-14.257 64.541s-2.603 14.663-3.375 22.751c-.771 8.082-.296 62.542-.296 62.542l2.352 71.892 2.475 29.632s3.131 12.006 9.929 19.026c6.797 7.019 31.307 16.243 31.307 16.243l23.546 7.23z" fill="#99E686"/><path d="M619.115 297.603c5.196 1.343 11.004.434 15.794 3.13 4.155 2.339 6.298 6.515 7.122 11.084 1.368 7.528-.533 15.012-2.177 22.327-1.08 4.824-2.074 9.667-3.127 14.495a29425 29425 0 0 1-12.783 58.372c-5.687 25.881-11.875 51.704-16.936 77.713a5326 5326 0 0 1-7.593 38.278c-2.294 11.335-6.292 22.105-8.841 33.365-3.148 13.893-6.592 27.78-8.617 41.891l-.147 1.014c-.023.146-.04.284-.063.43-.174 1.193.038-.015-.062.431-.72 3.277 4.375 4.305 5.102 1.035.146-.653-.299.906.013-.093.07-.228.147-.45.216-.677.119-.376.225-.75.337-1.125.277-.931.561-1.862.838-2.793.791-2.632 1.434-5.307 2.118-7.971 2.098-8.153 3.695-16.449 5.48-24.679a384 384 0 0 0 3.09-15.988c1.015-5.869 1.565-11.732 2.759-17.573 2.634-12.88 6.011-25.64 9.145-38.411 6.489-26.414 11.977-53.082 17.793-79.654a31568 31568 0 0 0 13.364-61.193c1.117-5.154 2.306-10.293 3.33-15.466 2.569-12.968 4.758-33.775-11.403-38.821-5.04-1.57-9.878-.662-14.772.782-.051.016-.039.088.007.098z" fill="#1D1D1B"/><path d="M583.646 600.131c-3.714 4.387-4.328 10.942-6.08 16.304-2.174 6.662-4.724 13.207-7.477 19.653a316 316 0 0 1-9.409 19.983c-3.537 6.887-6.42 14.025-10.247 20.781-7.87 13.915-17.727 26.509-26.414 39.889-9.008 13.874-17.245 28.266-26.129 42.23a1445 1445 0 0 1-15.053 23.216c-4.774 7.195-9.085 16.667-18.35 18.548-1.779.365-2.042 2.646-.213 3.203 6.626 2.026 12.243-4.558 15.539-9.402a1177 1177 0 0 0 14.217-21.427c9.357-14.429 18.35-29.09 27.7-43.518 4.764-7.352 9.668-14.773 13.763-22.518 4.094-7.746 8.609-14.798 13.118-22.152 4.042-6.594 8.064-13.187 12.222-19.71 4.306-6.763 7.631-14.153 10.922-21.457 3.292-7.303 6.493-15.165 9.173-22.958 1.237-3.594 2.393-7.215 3.408-10.873.927-3.33 1.625-6.159.633-9.529-.17-.572-.965-.688-1.336-.256z" fill="#1D1D1B"/><path d="M388.901 750.559c.045 8.229 1.921 17.14 7.586 23.424 3.01 3.336 6.973 5.072 10.756 7.339 4.48 2.684 8.787 5.616 13.375 8.136s9.271 4.731 13.934 7.016 9.248 5.054 14.156 6.988c6.506 2.565 19.48 7.148 23.028-1.682.649-1.625-.799-3.901-2.71-3.068-6.757 2.955-15.704-1.627-21.876-4.012-8.348-3.227-16.271-7.23-24.409-10.917-7.372-3.339-16.644-5.781-22.382-11.791-5.406-5.658-6.425-14.306-6.463-21.768-.018-3.227-5.012-2.872-4.995.342z" fill="#1D1D1B"/><path d="M388.801 563.25c.14 1.762-.885 4.325-1.332 6.035-.551 2.11-1.189 4.194-1.686 6.321-1.333 5.719-2.222 11.704-2.727 17.55-.851 9.898-.686 19.976-.675 29.9.021 16.024.601 32.063 1.179 48.075.45 12.407 1.193 24.787 1.956 37.178.459 7.48.886 14.962 1.503 22.43.66 8.011.968 16.15 2.688 24.022.373 1.719 3.337 1.503 3.493-.239.645-7.05.114-14.144-.14-21.205-.242-6.687-.574-13.369-.914-20.05-.589-11.57-1.008-23.159-1.695-34.723-.996-16.843-1.895-33.699-2.465-50.558-.352-10.498-.723-21.001-.616-31.504.063-6.269-.268-12.531.031-18.803.118-2.5.189-4.998.379-7.497.148-1.952.193-5.137 1.109-6.885.041-.075-.106-.111-.099-.02z" fill="#1D1D1B"/><path d="M450.133 315.773c-10.808 6.749-12.744 24.363-15.487 36.129a28679 28679 0 0 0-12.226 52.706c-5.291 22.843-10.569 45.685-15.853 68.527-4.773 20.636-9.353 41.311-14.006 61.978-2.403 10.694-4.744 21.336-6.35 32.178-.022.166-.057.326-.078.491-.124.881.074-.156-.052.305-.573 2.073 2.7 2.728 3.274.668.184-.662-.409 1.025-.163.3.109-.322.276-.655.391-.984.176-.504.331-1.014.493-1.523.558-1.724 1.141-3.45 1.658-5.191 1.789-6.066 3.217-12.231 4.638-18.39 4.49-19.501 9.066-38.989 13.396-58.532 5.082-22.92 10.157-45.84 15.24-68.761 4.181-18.837 8.355-37.681 12.556-56.513 2.329-10.426 4.225-21.058 7.899-31.116 1.375-3.768 3.207-7.868 5.9-10.88.719-.804-.343-1.938-1.23-1.385z" fill="#1D1D1B"/><path d="M384.099 597.762c.159-4.288.354-8.532 2.3-12.391 1.461-2.895 1.622-6.015 1.922-9.204.332-3.473.631-6.971 1.322-10.39.69-3.419 2.409-6.875 2.192-10.429-.047-.672-1.034-1.11-1.464-.49-2.014 2.867-2.246 6.484-3.047 9.819-.915 3.788-2.13 7.506-3.025 11.299-.747 3.168-1.276 6.077-.495 9.238.997 4.031.459 8.437.216 12.554-.003.052.082.046.085-.006zm69.41-282.68c.437-.331.874-.656 1.324-.976.2-.145-.05-.443-.228-.26-.379.394-.773.775-1.16 1.156-.043.042.021.116.071.08z" fill="#1D1D1B"/><path d="M450.251 318.75c3.727-3.43 10.394-4.831 15.138-5.963 6.197-1.474 12.525-2.078 18.85-2.636 12.135-1.067 24.267-2.166 36.41-3.214 24.455-2.108 48.937-4.007 73.476-4.796 13.228-.426 26.467-.506 39.698-.022 4.906.176 4.374-7.495-.523-7.639-25.162-.75-50.345.502-75.438 2.384-12.772.96-25.533 2.077-38.284 3.252-12.724 1.173-25.594 1.942-38.253 3.701-7.232 1.001-14.481 2.343-21.396 4.726-4.896 1.686-10.482 3.741-10.948 9.572-.06.752.714 1.145 1.276.628zm156.698-7.135c4.936.613 10.8-.445 15.066 2.556 3.956 2.78 5.43 7.92 6.212 12.452 1.222 7.112-.302 14.078-1.781 21.021-.942 4.447-1.904 8.881-2.873 13.323a25777 25777 0 0 1-11.882 54.283c-5.271 23.996-10.781 47.949-15.746 72.009a8725 8725 0 0 1-7.342 35.231c-2.207 10.489-5.298 20.731-7.619 31.189-2.862 12.902-5.91 25.771-8.239 38.788-.105.578-.183 1.167-.308 1.733-.36 1.638 2.187 2.153 2.548.521 2.438-11.05 5.543-23.28 8.05-34.754 2.243-10.262 3.861-20.633 6.038-30.897 2.544-12.002 5.446-23.936 8.236-35.882 5.743-24.579 10.991-49.282 16.394-73.943 4.138-18.881 8.277-37.761 12.382-56.652 1.023-4.702 2.052-9.403 3.042-14.109 1.242-5.91 2.318-12.045 1.824-18.099-.573-7.032-3.069-16.176-10.442-18.859-4.413-1.607-9.088-.71-13.557.036-.026.002-.036.048-.003.053m-34.58 287.339c-2.489 4.939-3.412 10.631-5.138 15.879-2.141 6.489-4.643 12.866-7.349 19.139-5.519 12.802-11.664 25.661-18.719 37.689-7.612 12.991-16.389 25.256-24.391 37.998-8.003 12.743-16.003 26.305-24.229 39.326-4.623 7.309-9.294 14.582-14.067 21.797-3.716 5.614-8.418 15.408-16.125 16.179-.88.086-1.036 1.448-.107 1.601 4.977.84 9.306-3.871 11.975-7.518 4.44-6.05 8.392-12.52 12.468-18.814 8.939-13.824 17.515-27.865 26.29-41.789s16.661-27.61 25.168-41.318c7.852-12.647 15.367-25.429 21.529-38.99 3.295-7.251 6.306-14.627 8.907-22.152 2.042-5.919 4.842-12.54 4.532-18.888-.02-.392-.572-.492-.745-.146z" fill="#1D1D1B"/><path d="M397.653 738.999c-.039 6.989.762 14.858 4.689 20.854 4.703 7.182 12.279 11.196 19.748 14.903 4.319 2.138 8.776 3.997 13.179 5.946 4.411 1.954 8.652 4.294 13.085 6.188 5.737 2.454 16.234 6.682 20.405-.124.596-.973-.746-1.996-1.611-1.405-3.107 2.141-7.501 1.202-10.847.336-4.08-1.059-7.914-2.922-11.779-4.566-7.412-3.153-14.831-6.306-22.232-9.492-3.704-1.596-8.12-3.058-11.387-5.452-2.625-1.926-5.076-4.769-6.8-7.531-3.58-5.731-3.99-13.246-3.955-19.828.007-1.614-2.486-1.431-2.501.171z" fill="#1D1D1B"/><path d="M398.581 561.131c-.245 3.808-1.76 7.743-2.474 11.491-1.024 5.351-1.665 10.839-2.067 16.279-1.728 23.615-.531 47.615.162 71.235.339 11.561.855 23.117 1.396 34.671.67 14.288.827 28.84 2.73 43.029.159 1.17 1.777 1.033 1.815-.124.415-12.722-.629-25.579-1.159-38.289-.44-10.557-.79-21.127-1.244-31.684-.676-15.612-1.26-31.237-1.543-46.862-.281-15.416-.669-31.035.613-46.427.357-4.262.383-9.243 1.823-13.317.017-.04-.05-.055-.046-.009z" fill="#1D1D1B"/><path d="M453.6 334.415c-6.16 5.263-8.72 14.904-10.499 22.557-.923 3.959-1.792 7.935-2.681 11.899-3.631 16.248-7.228 32.5-10.825 48.753-4.735 21.374-9.458 42.742-14.187 64.116-4.267 19.296-8.442 38.612-12.656 57.924-2.187 10.015-4.571 20.045-6.166 30.177a6 6 0 0 1-.147.732c-.276 1.042 1.36 1.363 1.637.334 6.874-25.68 12.363-53.004 18.063-79.358 8.375-38.732 16.717-77.468 25.145-116.19 1.182-5.434 2.364-10.875 3.567-16.303.231-1.033.442-2.064.7-3.092 1.728-6.862 3.944-15.403 8.667-20.863.335-.384-.196-1.049-.612-.693zm10.983-10.513c6.656-.226 13.26-1.584 19.906-2.157s13.202-1.094 19.792-1.709c12.853-1.202 25.708-2.384 38.575-3.396 25.465-2.006 51.05-3.424 76.605-2.595 2.459.08 2.183-3.751-.262-3.82-40.704-1.162-81.379 3.185-121.834 7.103-5.82.562-11.655 1.178-17.454 1.949-5.382.717-10.705 1.435-15.564 3.952-.349.182-.098.683.229.673zm161.892-26.016c2.402.97 5.092 1.167 7.465 2.192 2.372 1.024 4.207 3.195 5.684 5.232 3.341 4.619 4.452 9.824 4.826 15.393.018.255.421.293.455.028.724-5.809-1.18-11.871-4.377-16.69-3.299-4.969-7.935-7.243-13.985-6.507-.169.018-.25.273-.068.346z" fill="#1D1D1B"/><path d="M629.338 299.842c1.522 1.437 3.621 2.009 5.497 2.871 1.978.907 3.615 2.114 5.144 3.649 3.247 3.254 6.717 5.746 10.467 8.401 8.032 5.695 15.846 11.655 22.929 18.517 3.323 3.216 8.016-2.202 4.707-5.4-7.65-7.4-16.209-13.696-24.923-19.777-1.895-1.32-3.895-2.554-5.639-4.074s-3.084-3.272-4.859-4.666c-3.189-2.504-8.421-5.531-12.518-3.676-1.693.765-2.214 2.822-.798 4.161z" fill="#1D1D1B"/><path d="M673.66 329.022c.255-.116.132 3.363.129 3.894-.006 1.345.269 2.678.419 4.006.354 3.065.404 6.099.037 9.161-.676 5.642-2.431 10.964-3.854 16.428-.218.841-.409 1.687-.601 2.534a1487 1487 0 0 0-3.255 14.543c-4.11 18.819-7.973 37.694-11.944 56.543q-7.674 36.48-15.339 72.959a71894 71894 0 0 1-13.737 65.227 906 906 0 0 0-4.415 22.225c-.742 4.006-1.147 7.963-1.345 11.401-.011.218-.048.45-.072.668-.185 1.698.123-.501-.023.041-.627 2.253 2.938 2.967 3.559.727.169-.602-.478 1.358-.054.174.105-.296.195-.604.312-.9.207-.533.359-1.088.545-1.632.404-1.182 1.528-3.929 2.095-5.811 1.991-6.643 3.313-13.596 4.751-20.372 4.565-21.56 9.097-43.13 13.629-64.695 5.241-24.918 10.475-49.837 15.715-74.755 4.143-19.688 8.305-39.37 12.461-59.052 1.095-5.185 2.116-10.385 3.211-15.57.208-.985.397-1.969.638-2.943 2.337-9.37 6.498-21.312 2.591-30.858-.638-1.557-3.889-6.969-6.055-5.168-.552.458-.155 1.559.615 1.218zm-57.625 297.596c-1.703.523-1.899 1.862-2.752 3.403-1.174 2.107-2.704 3.898-3.784 6.045-2.217 4.409-4.326 8.863-6.543 13.272a438 438 0 0 1-13.925 25.501c-9.957 16.884-20.906 33.253-31.568 49.694-2.166 3.336 3.584 7.219 5.829 3.891 11.166-16.561 22.027-33.16 31.891-50.537 4.882-8.599 9.52-17.307 13.674-26.29 2.086-4.505 4.027-9.02 5.667-13.704.724-2.077.866-4.212 1.389-6.353.425-1.748 1.333-3.24.35-4.846-.044-.075-.144-.101-.228-.076" fill="#1D1D1B"/><path d="M460.594 805.475c2.248.45 4.524 1.212 6.816 1.344 2.114.124 4.3-.039 6.406-.137 4.904-.224 9.843-.621 14.699-1.361 4.421-.67 9.478-.97 13.716-2.5 2.644-.955 4.891-2.906 6.991-4.716 11.645-10.034 20.969-22.848 29.859-35.277 4.531-6.339 8.925-12.78 13.237-19.267 2.462-3.705 4.896-7.427 7.31-11.167 2.9-4.495 6.016-8.901 7.855-13.953.899-2.475-1.992-4.757-3.967-2.647-5.801 6.196-9.723 14.349-14.238 21.5-3.741 5.918-7.536 11.799-11.448 17.61-5.681 8.438-11.538 16.783-17.867 24.754-3.75 4.724-7.649 9.379-12.021 13.542a32 32 0 0 1-3.963 3.25c-1.165.808-2.048 1.327-2.629 1.557-2.421.947-6.104 1.094-10 1.59-4.884.617-9.767 1.338-14.668 1.812-2.555.247-5.107.435-7.671.531-2.807.114-5.461.814-8.249 1.11-1.355.138-1.552 2.146-.162 2.425z" fill="#1D1D1B"/><path d="M478.536 802.522c-.85-1.588-1.357-2.97-1.676-4.753l-1.808.898c1.936 1.842 4.142 3.115 6.205 4.784.375.302 1 .043.951-.472-.347-3.728-.547-7.513-1.135-11.212l-3.018 1.047c2.797 3.186 5.599 6.373 8.396 9.566 1.209 1.374 3.321.403 2.866-1.449-1.229-5.006-2.45-10.013-3.679-15.019l-2.79 1.404c2.983 5.333 7.605 9.713 11.427 14.469.918 1.138 2.857.625 2.769-.957-.409-7.496-3.42-15.837-6.952-22.398l-2.915 1.984c5.354 6.239 10.823 12.346 16.394 18.4 1.07 1.166 2.914-.554 2.04-1.813-5.637-8.174-7.03-17.604-9.286-27.079l-4.217 2.125c5.124 7.967 12.159 13.947 18.8 20.596 1.289 1.29 2.919-.58 2.202-1.948-5.019-9.601-8.621-19.85-11.016-30.404l-3.254 2.203c6.74 7.037 13.38 14.152 19.465 21.771 1.033 1.3 2.834.01 2.093-1.422-1.634-3.175-3.592-6.38-4.582-9.821-.861-2.992-1.308-6.084-1.781-9.154-.815-5.284-2.098-10.805-4.6-15.547l-3.799 2.583c1.234 2.113 2.812 3.887 4.457 5.684 2.042 2.234 3.459 4.63 5.063 7.177 2.694 4.283 6.266 8.059 9.786 11.669 1.334 1.371 3.257-.623 2.381-2.111-3.703-6.274-6.692-12.859-7.294-20.204-.486-5.956.021-11.671-2.942-17.097l-4.268 2.903c3.183 4.617 6.89 8.66 10.316 13.083 3.425 4.423 6.009 9.395 8.779 14.119 1.047 1.778 3.553.249 3.069-1.548-2.483-9.158-4.157-18.365-5.475-27.754-.58-4.152-7.217-3.553-6.425.44.973 4.919 2.036 9.713 3.724 14.439 1.688 4.725 3.482 9.267 4.909 14.023l3.069-1.548c-2.991-4.787-6.455-9.391-9.181-14.328s-5.154-9.454-8.51-13.829c-2.017-2.637-6.012.051-4.268 2.903 3.31 5.421 2.117 12.43 3.583 18.424 1.556 6.335 4.899 12.246 8.263 17.775l2.381-2.111c-3.501-3.506-6.628-7.313-9.937-10.989-1.959-2.175-3.617-4.253-4.736-6.99-.937-2.291-1.773-4.53-2.939-6.72s-5.197-.3-4.071 2.05c2.557 5.348 2.439 11.385 4.898 16.74 1.087 2.366 2.388 4.592 3.595 6.898 1.668 3.185 2.876 6.658 4.29 9.965l2.245-1.131c-5.703-8.281-11.849-16.218-18.894-23.404-1.566-1.598-3.67.442-3.254 2.204 2.586 10.844 6.823 21.082 12.397 30.73l2.202-1.948c-6.623-6.093-11.415-13.899-16.811-21.041-1.615-2.133-5.059-.5-4.217 2.126 3.006 9.411 6.4 18.546 11.508 27.045l2.276-1.546c-5.081-6.278-10.222-12.473-15.52-18.571-1.481-1.709-4.017-.04-2.914 1.984 1.837 3.364 3.177 6.932 4.242 10.605.989 3.422 1.418 7.099 2.681 10.41l2.432-1.649c-2.608-1.782-5.004-4.006-6.847-6.589-1.647-2.308-2.838-5.145-4.224-7.655-.928-1.675-3.169-.196-2.79 1.405 1.196 5.015 2.392 10.03 3.596 15.051l2.865-1.449-8.332-9.604c-1.233-1.424-3.38-.405-2.93 1.48.873 3.64 2.134 7.207 3.231 10.78l.798-.705c-2.264-1.17-3.814-3.202-5.215-5.271-.65-.965-1.958-.338-1.993.688-.068 1.979.027 3.849.416 5.79.601 3.022 4.886 1.515 3.441-1.193z" fill="#1D1D1B"/><path d="M434.692 490.232c-2.87 5.412-4.157 11.148-5.68 17.071s-3.3 12.342-4.161 18.554c-.333 2.41 3.052 3.09 3.699.75 1.682-6.091 3.125-12.317 4.587-18.465s3.003-11.606 2.433-17.734c-.045-.456-.656-.578-.871-.17z" fill="#000"/><path d="M426.928 528.116c4.478 1.018 9.114 1.573 13.64 2.332 10.166 1.705 20.333 3.41 30.518 5.008 22.964 3.61 45.926 7.2 68.879 10.831 5.55.879 11.366 1.025 16.847 2.237 2.085.461 2.742-2.792.664-3.246-14.573-3.207-29.38-5.244-44.104-7.594-22.954-3.663-45.902-7.333-68.884-10.817-5.568-.845-11.262-1.426-16.774-2.597-2.476-.526-3.245 3.286-.786 3.852z" fill="#000"/><path d="M558.096 547.623c2.97-5.858 4.471-12.015 6.181-18.358 1.711-6.342 3.929-13.224 4.657-19.84.268-2.407-2.95-3.046-3.665-.747-1.993 6.447-3.472 13.2-5.123 19.749-1.65 6.548-3.405 12.447-2.928 19.02.031.457.662.578.871.17z" fill="#000"/><path d="M566.205 507.309c-4.464-1-9.142-1.401-13.662-2.069-10.298-1.519-20.595-3.031-30.906-4.444-23.149-3.164-46.304-6.308-69.449-9.499-3.921-.538-7.857-.931-11.795-1.344a535 535 0 0 1-3.529-.375c-.344-.042-.687-.077-1.031-.119-.383-.04-1.016-.18-.517-.07-2.091-.454-2.74 2.799-.663 3.247 14.642 3.169 29.684 4.704 44.512 6.765 23.147 3.217 46.288 6.434 69.456 9.486 5.553.728 11.307 1.128 16.798 2.274 2.482.519 3.244-3.299.786-3.852m-114.204-75.161c5.107 1.008 10.199 1.512 15.387 1.891 2.236.169 4.469.311 6.711.387s4.957.533 7.148-.417c.968-.421 1.156-1.805.144-2.313-1.835-.924-3.628-.761-5.668-.858a686 686 0 0 0-8.092-.351c-5.176-.19-10.31-.442-15.492-.336-1.153.019-1.242 1.784-.131 2.003zm40.931 2.936c3.067 1.588 7.284 3.018 10.748 2.249 1.156-.256.97-1.831.143-2.312-2.864-1.687-7.5-1.566-10.672-1.041-.551.091-.764.82-.219 1.104m24.586 2.692c4.167 1.932 8.85 2.123 13.354 2.746 4.867.671 9.728 1.342 14.596 2.019 9.312 1.304 19.004 3.356 28.429 3.248 1.672-.016 1.641-2.382.183-2.794-9.135-2.543-19.119-3.027-28.513-4.174q-7.003-.85-13.999-1.731c-4.538-.562-9.196-1.62-13.747-.83-.726.129-1.082 1.15-.303 1.51zm-57.887-40.393c2.384.329 4.951.455 7.375.512 1.032.021 2.079-.018 3.083-.29 1.25-.335 2.922-1.689 4.285-1.33.915.239 1.373-.822 1.005-1.512-1.567-2.949-4.971-.545-7.273-.263-3.071.374-6.469-.967-8.968 1.428-.474.452-.143 1.367.493 1.455m31.903-1.004c10.165 2.453 21.089 2.007 31.499 2.468 5.303.234 10.621.585 15.93.713 2.904.07 7.771.445 9.08-2.852.224-.56-.136-1.027-.709-1.06-1.811-.106-3.596.463-5.43.405-2.123-.065-4.256-.273-6.388-.363l-14.652-.63c-9.664-.414-19.64-1.634-29.237-.196-.838.123-.973 1.307-.1 1.516zm67.264 1.816c4.972 1.339 9.876 1.961 14.998 2.43 4.172.377 9.488 1.377 13.528.208 1.055-.301 1.242-2.079.151-2.483-4.005-1.49-9.206-1.003-13.454-1.145-5.109-.175-10.07-.301-15.169.14-.496.04-.521.724-.054.85M449.571 519.573a141 141 0 0 1 9.187-10.968l-2.778-.531c1.467 4.281 2.928 8.563 4.396 12.845l2.27-2.006-.338-.14.906 1.354-.008-.412c-.046-2.109-3.311-1.879-3.265.223l.009.413c.011.544.399 1.14.906 1.355l.337.141c1.291.548 2.754-.602 2.271-2.006-1.468-4.281-2.929-8.563-4.396-12.845-.41-1.198-1.954-1.42-2.778-.531a142 142 0 0 0-9.188 10.967c-1.262 1.674 1.194 3.835 2.47 2.154z" fill="#000"/><path d="M452.013 515.384a31.2 31.2 0 0 0 10.049 1.916c2.103.053 1.866-3.211-.223-3.264a26.3 26.3 0 0 1-8.374-1.585c-1.958-.719-3.43 2.209-1.452 2.933m13.823-6.201-.681 8.444c-.118 1.438-1.05 4.591-.054 5.822.753.932 2.238.975 2.821-.193.213-.428.292-.807.233-1.282-.267-2.081-3.532-1.871-3.264.223l.097-.393 2.821-.194c.53.659.41-1.477.439-1.827.091-1.167.188-2.329.279-3.496q.262-3.226.516-6.451c.167-2.15-3.042-2.75-3.207-.653" fill="#000"/><path d="M467.857 510.724c1.205-.319 2.422-.271 3.588.187.823.325 2.883 1.482 2.67 2.678-.179 1.029-1.948 1.353-2.746 1.48-1.454.231-2.84.011-4.223-.459-1.995-.677-2.621 2.541-.653 3.207 3.445 1.168 11.215.734 10.893-4.544-.298-4.926-6.695-6.666-10.613-5.637-2.036.533-.946 3.621 1.084 3.088m11.107.112c-.256 4.59-.724 9.155-1.364 13.705-.291 2.08 2.916 2.739 3.207.653a177 177 0 0 0 1.422-14.582c.118-2.1-3.152-1.857-3.265.224" fill="#000"/><path d="M480.882 512.686c1.708-.727 6.345-2.186 5.436 1.504-.73 2.942-4.12 3.155-6.6 3.246-2.107.072-1.877 3.336.224 3.265 4.41-.158 9.764-1.869 9.744-7.241-.007-2.02-1.132-3.786-2.979-4.61-2.294-1.031-4.748-.174-6.909.748-1.925.821-.859 3.923 1.084 3.088m10.234-.852c-1.225 4.906-1.712 9.872-1.537 14.918.073 2.12 3.264 1.862 3.265-.224l-.001-1.161c0-2.105-3.264-1.875-3.264.224v1.161l3.265-.224a50.2 50.2 0 0 1 1.479-14.041c.509-2.048-2.697-2.688-3.207-.653" fill="#000"/><path d="M492.572 513.276c1.748.425 7.244 2.135 4.955 4.443-1.263 1.28-4.561 1.972-6.219 2.486-1.175.362-1.457 2.002-.531 2.778 2.353 1.984 4.897 3.502 7.802 4.543 1.964.705 3.436-2.223 1.453-2.933-2.643-.948-4.957-2.265-7.108-4.079l-.532 2.778c2.968-.924 9.444-2.431 9.576-6.448s-5.748-6.054-8.75-6.78c-2.054-.496-2.694 2.716-.653 3.206z" fill="#000"/><path d="M507.169 513.857c-3.364 2.127-5.887 5.717-5.295 9.855.526 3.657 3.631 6.567 7.464 5.537 7.916-2.129 6.956-14.901-1.166-15.88-2.077-.251-2.743 2.956-.653 3.206 4.464.534 5.829 7.631 1.396 9.377-2.874 1.135-4.198-2.107-3.786-4.418s2.054-3.82 3.878-4.975c1.823-1.155-.059-3.834-1.839-2.708zm9.548 3.414c2.033 3.921 3.632 8.023 4.886 12.253.418 1.402 2.377 1.372 3.011.188 2.174-4.072 4.343-8.137 6.518-12.208.994-1.866-1.939-3.312-2.934-1.453l-6.517 12.208 3.01.188a73.7 73.7 0 0 0-5.266-13.015c-.967-1.862-3.668-.011-2.708 1.839m15.877.696a73.7 73.7 0 0 0-2.381 12.653c-.132 1.334.868 2.138 2.149 1.873 2.069-.437 3.901-.024 5.731.933s3.317-1.952 1.453-2.933c-2.682-1.411-5.326-1.715-8.269-1.094l2.149 1.873a73 73 0 0 1 2.381-12.652c.569-2.034-2.643-2.666-3.207-.653z" fill="#000"/><path d="M533.76 526.383c2.077.441 4.197.172 6.26.608 2.064.436 2.71-2.77.653-3.207s-4.197-.172-6.26-.608c-2.064-.436-2.71 2.77-.653 3.207m1.244-6.934c2.531-.586 5.007-.067 7.251 1.176 1.847 1.022 3.293-1.911 1.452-2.933-3.055-1.693-6.396-2.114-9.787-1.33-2.047.474-.95 3.561 1.084 3.087m94.789-290.129a229 229 0 0 0-9.206 16.436c-2.252 4.433-10.655 21.384-10.887 26.514-.498 10.98 23.3 4.23 24.8 4.23 2 0 4.011-2.644 3-4.23 0 0 .5-1.77-3.5-1.77s-19.757 5.745-18.756 1.017c1.001-4.729 8.717-20.87 10.699-25.064a224 224 0 0 0 6.673-15.578c.637-1.663-1.828-3.168-2.823-1.555" fill="#000"/><defs><clipPath id="a"><path fill="#fff" d="M0 0h625v745H0z"/></clipPath></defs></svg>