<svg width="563" height="791" viewBox="0 0 563 791" fill="none" xmlns="http://www.w3.org/2000/svg"><g clip-path="url(#a)"><path d="M86.671 407.162s50.191 80.306 135.516 114.723 207.218 11.472 276.052-66.682c68.834-78.155 81.74-172.085 35.851-275.335S415.782 50.088 344.797 32.88c-70.984-17.209-191.443 22.944-243.786 90.344s-81.74 183.556-14.34 283.938" fill="#99E686"/><path d="M390.493 43.069c-48.456-20.191-103.752-18.8-153.936-5.837-42.325 10.935-82.213 32.639-114.436 62.173-34.252 31.391-59.053 72.125-70.203 117.304-12.14 49.194-7.127 100.762 11.236 147.77 15.157 38.798 39.479 76.169 72.741 101.838 3.671 2.832 7.464 5.499 11.315 8.081 1.62 1.082 3.649-1.477 2.108-2.732-31.205-25.483-56.767-57.512-73.703-94.116-20.212-43.688-29.225-93.449-21.69-141.216 7.286-46.162 28.918-88.911 61.284-122.532 29.706-30.86 67.185-53.51 107.61-67.342 23.446-8.023 47.545-13.222 72.311-14.806 25.913-1.65 51.948.867 77.23 6.718 6.08 1.406 12.125 2.954 18.105 4.747.028.007.043-.036.014-.05zm62.267 448.946c27.483-15.301 50.571-37.98 68.618-63.621 19.08-27.096 31.943-57.548 37.766-90.215 12.089-67.88-4.754-140.607-43.086-197.675-21.926-32.645-51.023-62.789-86.35-80.771-2.008-1.026-3.593 1.735-1.757 3.004 28.81 19.84 55.024 42.978 75.731 71.336 20.708 28.358 35.048 58.042 44.118 90.624s11.932 66.56 7.916 99.981c-4.015 33.42-14.964 63.448-31.376 91.67-17.653 30.352-43.889 54.572-71.602 75.624-.028.021 0 .057.029.043z" fill="#000"/><path d="m547.707 363.425-1.334 5.048c-.014.043.057.064.072.021l1.333-5.048c.015-.043-.057-.064-.071-.021" fill="#000"/><path d="M549.628 357.818c-3.57 10.181-6.288 20.664-10.217 30.731s-9.027 20.005-14.814 29.312c-11.666 18.771-26.924 35.464-43.537 49.983-4.711 4.116-9.615 7.88-14.634 11.601s-10.476 6.884-14.943 11.05c-2.782 2.595.746 6.396 3.829 4.961 5.005-2.323 9.594-6.259 13.924-9.651 4.331-3.391 8.827-7.356 13.136-11.149 8.504-7.486 16.527-15.524 23.934-24.099 14.47-16.75 26.68-35.944 35.277-56.351 4.905-11.637 8.985-23.532 9.243-36.238.014-.709-.968-.781-1.191-.157zM92.321 140.834c4.733-.574 7.063 4.467 6.74 8.482s-2.581 7.937-3.334 12.024c-.896 4.89.351 10.598 5.328 12.684 2.875 1.205 5.499 1.607 7.449 4.288s2.56 5.901 2.89 8.977c.738 6.912-.28 13.867.344 20.794 1.104 12.289 7.694 26.056 21.46 27.397 8.096.789 16.908-1.728 24.874-2.954 8.403-1.298 18.556-4.517 26.881-1.714 7.299 2.467 13.351 8.526 19.467 13.014 6.137 4.51 12.469 8.769 19.051 12.605 12.928 7.536 26.974 13.545 41.874 15.689 15.91 2.287 30.659-.825 45.602-6.231 14.52-5.256 28.659-10.827 43.645-14.692 26.515-6.84 57.103-11.716 78.212-30.731 4.596-4.145 3.628-9.594-2.086-11.946-2.99-1.233-6.368-1.463-9.508-2.194-3.958-.925-7.844-2.115-11.688-3.413-2.308-.782-4.653-1.785-3.14-4.553.918-1.671 2.746-3.219 3.958-4.668a304 304 0 0 0 7.306-9.049c4.948-6.381 10.103-13.207 13.602-20.528 6.217-13.006-10.848-25.626-21.008-30.287-6.196-2.839-12.742-4.359-19.539-4.639-1.506-.064-3.471.18-4.79-.688-1.455-.961-2-3.047-3.126-4.324-2.144-2.437-5.241-2.631-8.282-2.574-32.904.624-64.796 15.681-97.822 8.504-7.751-1.685-15.56-3.879-23.024-6.575-5.392-1.95-12.763-5.801-11.078-12.749 1.563-6.453 8.963-10.525 14.369-13.336a254 254 0 0 1 23.346-10.684c7.952-3.162 15.739-5.807 23.784-8.174 5.858-1.72 11.831-3.513 17.223-6.446 4.904-2.667 9.228-6.546 11.336-11.816 1.448-3.614 1.341-7.636 2.803-11.214 1.119-2.74 3.091-5.163 5.349-7.041 5.091-4.224 11.171-5.679 17.653-5.83 1.427-.028 1.427-2.251 0-2.215-10.576.236-24.529 2.33-29.018 13.43-1.405 3.477-1.376 7.342-2.81 10.783-1.212 2.926-3.428 5.335-5.973 7.17-5.098 3.693-11.257 5.479-17.223 7.207-15.416 4.46-30.437 10.074-44.878 17.093-10.124 4.92-27.031 14.004-21.446 28.064 2.18 5.486 7.428 8.619 12.67 10.705 7.256 2.883 15.122 4.804 22.722 6.504 15.925 3.556 31.635 2.932 47.617.107 15.983-2.825 32.123-7.514 48.571-8.812 2.13-.165 4.316-.358 6.46-.294 2.424.072 3.715.567 5.127 2.639 1.85 2.71 3.219 4.546 6.668 5.155 3.213.574 6.518.323 9.752.904a45.2 45.2 0 0 1 11.035 3.47 45.6 45.6 0 0 1 17.043 13.666c1.068 1.399 2.252 2.904 2.818 4.604.954 2.868-.258 5.155-1.649 7.571-2.044 3.564-4.317 7.006-6.611 10.404-4.768 7.049-10.167 13.308-15.825 19.625-4.388 4.897-4.33 10.425 2.094 13.286 7.142 3.184 14.634 4.109 22.048 6.224 2.302.66 3.112 1.054 1.312 3.083-1.061 1.198-2.602 2.13-3.886 3.076a90 90 0 0 1-9.4 6.038c-12.655 7.091-26.68 11.25-40.648 14.87-13.917 3.614-28.006 6.669-41.63 11.322-15.537 5.306-30.494 12.942-46.993 14.878-31.348 3.671-60.581-14.103-84.393-32.473-5.887-4.539-11.931-9.114-19.539-10.046-8.066-.982-16.469 1.664-24.292 3.313-4.13.875-8.26 1.742-12.39 2.617-4.754 1.004-9.787 2.108-14.62.896-7.127-1.785-11.903-8.482-13.889-15.215-2.323-7.866-1.398-15.896-1.57-23.948-.115-5.249-.882-11.107-4.044-15.474-1.305-1.792-3.011-3.291-5.062-4.173-3.528-1.534-6.998-1.226-8.117-5.743-1.713-6.876 3.929-13.193 2.574-20.091-.853-4.338-4.338-8.045-8.962-7.342-.961.143-.746 1.836.23 1.714zM62.458 349.773c3.255-8.676 8.675-24.034 20.62-22.507 5.73.731 7.358 7.134 10.283 11.178s6.596 6.64 10.891 8.576c8.798 3.958 19.532 4.689 26.996 11.257 4.101 3.606 7.034 8.482 8.339 13.781 1.176 4.79.143 9.629.581 14.476.459 5.098 2.753 9.666 7.858 11.415 2.84.976 5.607 1.119 8.146 2.883 3.09 2.144 4.295 4.703 5.456 8.174.481 1.434 2.632 1.57 3.047 0 1.32-4.94-1.269-11.042-5.184-14.147-2.265-1.8-4.631-2.553-7.399-3.219-3.334-.803-4.417-2.209-5.055-5.572-1.054-5.535-.359-11.113-2.051-16.591s-4.854-10.533-9.07-14.391c-8.733-8.002-20.543-8.31-30.524-13.795-5.628-3.098-7.335-8.074-10.733-13.129-3.134-4.661-7.751-7.579-13.495-7.249-6.202.359-11.522 3.858-14.9 8.956-3.921 5.922-4.251 12.935-4.523 19.804-.015.444.587.466.724.1z" fill="#000"/><path d="M451.361 377.793c.423-1.14 1.513-1.993 2.115-3.033.638-1.104 1.155-2.28 1.829-3.377 1.412-2.301 2.76-4.725 4.617-6.697 3.614-3.829 9.235-6.345 14.498-4.797 8.475 2.496 11.638 12.993 19.855 16.219 4.847 1.9 10.303 1.148 15.336.595 5.034-.552 9.867-1.319 14.463-3.298 1.097-.473 2.172-.975 3.19-1.592.696-.415 1.893-1.799 2.754-1.685 2.366.309 1.161 6.238.573 7.916-1.871 5.335-6.589 8.992-10.224 13.086-3.829 4.316-6.274 9.292-6.97 15.05-.337 2.768-.459 5.872.509 8.525a15.4 15.4 0 0 0 1.807 3.471c.244.351.524.688.789 1.018.86 1.075 6.561 7.306.394 7.629-.638.036-.874 1.083-.157 1.19 5.994.889 2.746-6.718 2.602-9.45-.344-6.482-.573-13.623 2.919-19.338 5.463-8.956 19.402-19.56 12.211-31.52-3.657-6.08-8.01.193-12.19 2.115-6.152 2.832-14.068 3.707-20.779 3.75-13.014.093-14.749-16.499-26.608-19.273-6.081-1.42-12.849.638-17.41 4.811-2.423 2.223-4.71 5.248-5.865 8.353-.566 1.527-.832 3.248-1.032 4.854-.287 2.252.494 3.155.509 5.442 0 .158.215.173.265.036m-43.368-93.133c.129 0 .129-.201 0-.201s-.129.201 0 .201m96.511-261.052c-4.209 2.165-7.02 7.342-9.838 11.02-3.384 4.417-6.883 8.755-10.44 13.029-2.402 2.882.581 7.35 4.138 5.363 5.499-3.069 10.655 1.9 13.795 6.009 3.413 4.474 6.475 9.264 9.472 14.025l4.782-4.783c-9.056-6.21-6.324-19.316 4.682-20.872 3.155-.445 3.363-5.199.861-6.583-5.872-3.262-9.988-8.726-11.63-15.207-1.233-4.855-8.827-2.79-7.522 2.072 2.28 8.475 7.766 15.3 15.517 19.36l1.821-6.712c-7.809.946-14.864 6.267-16.556 14.24s2.172 16.283 9.3 19.74c2.904 1.405 6.847-1.628 4.782-4.783-6.661-10.132-17.725-30.158-32.746-22.4l4.137 5.364c3.8-4.274 7.414-8.67 10.841-13.244 3.012-4.022 7.185-8.697 7.687-13.86.165-1.649-1.836-2.416-3.083-1.77zM19.78 132.91c-1.807 4.381-4.216 8.776-7.156 12.505-2.94 3.728-6.604 6.539-10.461 9.464s-.438 9.286 3.864 6.611c3.908-2.43 8.41.552 10.34 4.173 2.574 4.811 1.928 10.82 1.362 16.033l6.661-.904c-1.434-4.954.724-10.038 4.23-13.587 1.915-1.943 4.073-3.535 6.39-4.948a68 68 0 0 1 3.168-1.799c.717-.38 1.434-.76 2.159-1.126q2.009-.387.286-1.248l-.896-3.377-.136.473 5.084-2.072c-8.648-4.316-22.63-10.088-20.3-21.976.488-2.503-1.9-4.374-4.194-3.227-7.672 3.829-2.122 14.556 1.75 19.023 5.234 6.037 12.82 9.565 20.076 12.512 1.8.731 3.721-.818 4.26-2.417 1.333-3.972-3.141-6.252-6.483-5.205-4.452 1.391-9.156 4.345-12.848 7.127-7.257 5.463-12.218 14.57-9.1 23.669 1.284 3.735 6.282 2.882 6.662-.904.752-7.493.817-15.911-4.295-22.012-4.037-4.819-11.093-7.536-17.137-5.184l2.947 6.998c9.96-4.969 17.531-16.255 19.266-27.053.588-3.671-4.108-4.919-5.506-1.52zm525.902-55.52c-.595 3.944-1.692 7.55-4.108 10.763-1.312 1.742-.258 4.503 1.441 5.5 1.327.774 2.545 1.677 3.793 2.573l1.599 1.148q1.83 2.118 2.854-1.506l4.976 3.793c-.129-1.018-1.37-7.507 1.126-7.22 3.742.437 4.725-4.431 2.789-6.733-2.417-2.868-4.847-6.597-8.569-7.658-2.567-.731-4.51 1.664-4.051 4.051.71 3.657 4.482 6.618 7.034 9.185l1.743-6.596c-8.117 1.376-9.236 9.12-7.802 16.011.567 2.703 3.628 3.319 5.772 2.352 2.962-1.341 3.908-4.977 2.596-7.83-1.628-3.542-6.202-5.407-8.991-7.88l.631 4.875c3.233-4.76 4.015-10.124 1.771-15.423-.818-1.928-4.295-1.462-4.611.603zM156.809 641.949c3.363 18.385 8.948 35.744 15.81 53.117 6.697 16.965 13.645 34.044 22.701 49.897 1.097 1.922 4.56.617 3.685-1.556-6.876-17.151-14.713-33.872-21.36-51.123-6.646-17.252-12.834-33.951-20.033-50.672-.208-.48-.882-.114-.796.337zm311.45-73.229c-.014 3.672-1.47 7.572-1.771 11.286s-.394 7.543-.48 11.286c-.151 6.69.387 13.509-1.033 20.098-2.531 11.759-10.368 22.428-9.572 34.783.108 1.656 2.797 2.287 3.105.423 2.036-12.469 8.991-23.411 11.085-35.78 1.083-6.395.882-13.056.789-19.517-.051-3.743-.115-7.55-.38-11.286-.266-3.735-1.693-7.614-1.671-11.285 0-.043-.065-.043-.065 0zM156.773 42.981c9.458-3.9 18.808-8.102 28.344-11.816s19.747-6.188 29.312-10.103c1.326-.538 1.362-2.947-.373-2.775-10.404 1.04-20.421 4.948-30.029 8.906-9.801 4.036-19.008 8.804-27.505 15.171-.272.209-.129.775.259.617zm25.842-25.941c5.09-3.83 11.522-6.181 17.545-8.153 6.095-2 12.275-3.585 18.664-4.28 2.782-.302 2.775-4.711 0-4.367-6.518.81-12.906 2.287-18.929 4.962-6.597 2.932-11.716 7.328-17.417 11.615-.136.1 0 .337.137.23zM463.9 475.672c.301 0 .301-.473 0-.473s-.301.473 0 .473" fill="#000"/><path d="M460.235 478.361c-1.764-3.406-4.316-6.217-6.216-9.565l-2.144 2.789c7.062 2.273 14.154 4.496 21.302 6.475 1.291.358 2.489-1.42 1.377-2.366-8.038-6.841-15.308-14.714-22.098-22.773l-1.671 2.165a246 246 0 0 0 33.865 13.115c1.649.502 2.309-1.692 1.097-2.596-7.321-5.413-14.649-10.977-19.704-18.693-3.764-5.75-6.833-12.067-13.021-15.595l-1.513 2.589c14.814 8.281 29.699 17.495 45.588 23.597 1.979.76 3.105-2.287 1.405-3.334-8.611-5.292-16.477-12.276-23.769-19.245s-14.232-14.663-20.277-22.902l-1.986 2.582c8.138 2.968 16.233 6.202 24.142 9.722 1.585.703 2.976-1.498 1.391-2.38-7.909-4.374-16.004-7.93-24.601-10.734-1.843-.602-2.696 1.692-1.706 2.94 6.41 8.124 13.229 15.939 20.693 23.124 7.514 7.234 15.738 13.329 23.912 19.761l2.209-2.861c-15.337-7.371-30.545-14.663-45.481-22.859-1.692-.925-3.198 1.642-1.513 2.589 6.826 3.829 9.594 11.558 14.154 17.509 5.12 6.676 11.931 11.702 18.65 16.649l1.097-2.595a238 238 0 0 1-33.227-12.756c-1.427-.674-2.696.947-1.67 2.166 6.854 8.138 14.34 15.509 22.048 22.822l1.377-2.366c-6.948-2.639-13.997-5.048-21.045-7.407-1.627-.545-2.904 1.406-2.144 2.789 2.094 3.786 4.625 7.156 8.848 8.49.502.158.868-.416.646-.839zm29.062-47.351c2.803 1.376 5.32 3.312 8.16 4.696 2.566 1.248 5.262 2.079 7.973 2.947.996.315 1.699-1.262.724-1.721-2.574-1.197-5.098-2.474-7.78-3.413-2.939-1.032-6.116-1.585-8.977-2.753-.143-.058-.236.179-.1.244M133.6 420.111c8.267-5.664 16.785-11.013 25.44-16.068l-.975-1.269c-6.375 7.034-13.86 12.928-19.546 20.593-6.267 8.46-11.58 17.767-16.893 26.838-.516.882.545 2.057 1.448 1.448a417 417 0 0 1 41.652-24.551l-1.707-2.215c-5.005 6.252-11.028 11.458-16.721 17.058-4.976 4.904-10.984 10.784-12.899 17.688-.322 1.176.968 2.08 1.994 1.535 4.373-2.33 8.862-4.309 13.393-6.303 4.948-2.179 9.68-4.452 14.993-5.564l-1.513-2.595c-3.441 3.965-6.539 8.131-10.181 11.931-2.976 3.104-6.224 6.145-8.791 9.601-1.405 1.885 1.248 4.044 3.047 3.047 5.034-2.789 11.745-3.456 17.438-3.155l-1.384-1.814c-1.29 3.929-3.441 7.694-4.947 11.573-.932 2.402 3.011 3.513 3.886 1.075 1.406-3.9 2.223-8.088 3.822-11.881.401-.961-.581-1.713-1.384-1.814-3.657-.459-6.704-1.463-10.476-1.018-3.305.387-6.331 1.556-9.206 3.198l3.047 3.047c5.414-7.478 13.552-13.487 17.567-21.905.61-1.276-.724-3.076-2.122-2.122-4.482 3.054-9.407 4.89-14.412 6.941-4.582 1.885-9.121 3.743-13.824 5.277l1.534 1.993c1.979-3.492 3.693-7.163 6.267-10.267 2.345-2.833 5.055-5.371 7.751-7.866 5.42-5.034 11.042-9.873 15.33-15.954.846-1.197-.775-2.588-1.929-1.929a978 978 0 0 0-41.3 25.153l1.448 1.449c5.729-8.612 10.849-17.667 16.821-26.114 5.564-7.866 13.272-13.745 19.051-21.417.517-.681-.458-1.456-1.104-1.104-8.848 4.854-17.18 10.353-25.167 16.527-.531.408-.043 1.326.545.932z" fill="#000"/><path d="M159.125 480.556c1.269.415 2.538.86 3.821 1.24s1.986.574 3.026-.366c.122-.107.165-.301.122-.459-.387-1.348-1.104-1.527-2.402-1.885s-2.603-.639-3.901-.954c-1.577-.38-2.201 1.922-.666 2.416z" fill="#000"/><path d="m310.796 307.54 105.473 2.746s35.722-1.563 36.754 27.519c1.033 29.075.56 247.206.56 247.206s-.631 22.536-8.067 40.311c-7.435 17.782-46.778 114.149-67.349 140.657 0 0-9.049 13.846-11.178 15.531s-8.411 5.098-15.524 4.89-75.179 0-75.179 0-17.761 1.04-22.357-2.768-10.483-11.802-10.483-11.802l-42.992-81.948-22.313-51.08s-14.649-25.39-13.588-66.374c1.054-40.978-.194-230.17-.05-231.167.143-.996.158-30.387 45-31.383 44.842-.997 1.606.222 1.606.222l99.694-2.553z" fill="#99E686"/><path d="M308.466 307.913c-6.575-1.814-13.538-1.176-20.335-1.247-6.453-.065-12.913-.158-19.367-.194-11.228-.057-22.464-.136-33.692-.064a696 696 0 0 0-31.692.917c-11.716.603-24.207 1.922-32.732 10.942-13.351 14.125-10.669 36.13-10.827 53.991-.237 27.577-.294 55.146-.309 82.723-.014 29.892.173 59.777.459 89.67.158 17.101-.459 34.488 1.391 51.525l.108.932c.222 1.821-.122-.875.179 1.269.488 3.492 5.794 2.008 5.306-1.463.101.717.079 1.327.057.05 0-.329-.021-.666-.021-.996v-2.861c.029-3.04.172-6.081.136-9.121-.115-9.83-.272-19.653-.358-29.483-.237-28.466-.244-56.924-.38-85.39-.137-28.408-.23-56.816-.172-85.225.021-9.758.057-19.517.143-29.275.036-4.482-.208-9.121.351-13.581 1.542-12.361 8.97-22.844 21.274-26.078 10.562-2.775 22.235-2.445 33.098-2.832 22.55-.796 45.122-.803 67.679-1.448 6.611-.187 13.358.229 19.696-1.757.488-.151.51-.868 0-1.011zM198.518 688.105c-3.42 1.527 11.831 31.226 13.222 34.352 2.366 5.327 4.933 10.576 7.6 15.76s5.034 10.11 8.776 14.254c3.937 4.353 7.178 10.146 9.852 15.359 1.334 2.595 1.958 5.528 3.42 8.059 1.069 1.843 2.503 3.614 3.887 5.227 5.922 6.869 16.412 10.21 25.196 7.421 1.541-.487 1.527-2.624 0-3.119-4.338-1.412-9.071-.903-13.444-2.223s-7.407-5.506-10.024-9.242c-2.969-4.238-6.482-7.801-9.157-12.297a72 72 0 0 1-3.75-7.163c-1.226-2.717-1.807-5.671-3.126-8.296-4.818-9.579-10.153-18.95-15.351-28.329-5.313-9.587-9.271-20.012-15.301-29.19-.309-.473-1.004-.889-1.592-.645q-.11.043-.208.086z" fill="#1D1D1B"/><path d="M162.158 591.774c-1.068 6.532.516 13.379 2.008 19.718 1.627 6.919 3.542 13.558 6.345 20.112.639 1.499 1.176 3.126 2.144 4.438 1.226 1.664 2.66 3.148 3.679 5.027 1.018 1.878 2.007 4.101 2.617 6.101.545 1.786.459 3.707.975 5.5 1.018 3.564 3.133 6.812 4.653 10.167 1.52 3.356 2.675 6.654 5.22 9.429.904.982 2.883.258 2.761-1.14-.287-3.284-1.47-5.937-2.754-8.934-1.47-3.427-2.516-7.063-4.144-10.425-.868-1.779-2.029-2.998-3.133-4.611s-1.736-3.291-2.46-5.026c-1.534-3.678-1.405-7.565-2.875-11.15-2.567-6.274-5.241-12.569-7.407-18.994-2.165-6.424-2.746-13.587-4.718-20.205-.394-1.312-2.646-1.542-2.897 0zm146.021-282.851c6.339 1.979 13.086 1.563 19.697 1.75 6.611.186 12.569.351 18.85.444 11.279.158 22.558.294 33.836.567 10.311.251 20.615.588 30.904 1.176 10.87.624 24.651.781 32.05 10.138 5.873 7.429 6.568 17.087 6.697 26.15.122 8.475.151 16.95.18 25.425.1 27.419.021 54.838-.094 82.257-.121 29.376-.15 58.752-.358 88.121-.122 17.001-.509 34.001-.287 51.001 0 .316-.014.631-.021.947-.022 1.248-.051.782.057 0-.488 3.463 4.818 4.962 5.306 1.463.301-2.144-.057.667.179-1.269l.108-.933c.1-.946.179-1.9.258-2.853.251-3.105.523-6.224.609-9.336.28-10.11.33-20.234.438-30.351.308-29.29.545-58.581.545-87.878 0-28.788-.043-57.569-.251-86.357-.065-9.329-.137-18.664-.337-27.993-.165-7.435-.438-14.44-2.861-21.646-3.765-11.186-11.967-18.098-23.432-20.593-10.619-2.309-21.905-2.158-32.718-2.474-22.995-.674-46.025-.265-69.02-.029-6.804.072-13.752-.566-20.335 1.248-.509.143-.487.86 0 1.011z" fill="#1D1D1B"/><path d="M453.059 590.841c-2.029 2.71-2.115 5.979-2.732 9.242-.724 3.843-1.699 7.636-2.861 11.372-2.344 7.564-5.291 14.907-8.41 22.177-6.08 14.147-12.505 28.15-18.894 42.168-3.197 7.027-6.367 14.068-9.6 21.08-3.17 6.869-5.493 13.91-8.454 20.887-2.961 6.976-6.425 13.996-10.296 20.542-3.872 6.547-8.447 12.763-12.29 19.432s-7.407 14.541-12.706 20.427c-5.592 6.21-12.956 5.901-20.635 7.242-1.535.266-1.549 2.861 0 3.119 6.144 1.026 13.372 1.119 18.915-2.151 5.485-3.226 9.091-9.335 12.44-14.541 4.474-6.948 9.192-14.046 12.519-21.639 3.327-7.594 6.575-14.312 10.174-21.389a225 225 0 0 1 12.484-21.554c1.986-3.025 3.276-6.84 4.811-10.117 1.771-3.793 3.549-7.586 5.256-11.407 6.632-14.907 12.576-30.086 18.857-45.137 3.564-8.547 7.35-17.057 9.687-26.035 1.097-4.223 1.965-8.496 2.545-12.82.502-3.707 1.32-7.586-.724-10.891-.021-.029-.057-.029-.079 0zM294.872 307.475c5.908 1.413 11.909 2.159 17.989 2.094 3.249-.036 6.425-.358 9.659-.473 2.911-.108 5.851.918 8.625 0 1.32-.438 1.162-2.036 0-2.531-2.624-1.104-5.779-.316-8.625-.588-3.27-.316-6.36-.767-9.659-.896-6.094-.244-12.096.501-17.989 2.057-.165.043-.173.294 0 .337" fill="#1D1D1B"/><path d="M263.201 789.032c3.628.825 7.528.481 11.235.502 4.044.029 8.088.051 12.132.079 8.311.05 16.628.115 24.938.108 7.952 0 15.911-.015 23.863-.108 3.979-.043 7.951-.114 11.931-.208 1.835-.043 3.793.086 5.614-.157 1.922-.259 2.968-1.112 4.582-2.08.451-.272.509-1.025 0-1.283-1.477-.753-2.524-1.57-4.238-1.75-1.713-.179-3.535.043-5.256.086-3.979.094-7.951.151-11.931.194-8.188.086-16.376.079-24.565.072-8.073-.008-16.147.043-24.228.093q-6.066.03-12.132.072c-3.936.021-8.102-.373-11.952.501-1.915.438-1.915 3.442 0 3.879zm45.286-481.198c-6.503-2.115-13.552-1.391-20.356-1.477-6.453-.086-12.914-.201-19.367-.237-11.228-.072-22.464-.165-33.692-.115a688 688 0 0 0-31.692.897c-11.838.602-24.444 1.95-33.055 11.049-13.48 14.233-10.834 36.295-10.999 54.314-.251 27.576-.308 55.146-.337 82.722-.029 29.893.179 59.778.459 89.67.165 17.101-.466 34.496 1.477 51.525.064.567.136 1.126.215 1.685.029.201-.179-1.376.1.624.567 4.03 6.69 2.316 6.124-1.692.114.803.086 1.685.079.158 0-.33-.015-.667-.015-.997.015-.954.015-1.907.029-2.861.05-3.04.222-6.08.186-9.12-.1-9.831-.272-19.654-.351-29.484-.237-28.466-.215-56.924-.366-85.39-.15-28.465-.251-56.816-.208-85.224q.023-14.639.129-29.276c.036-4.438-.207-9.035.323-13.451 1.463-12.211 8.812-22.579 20.937-25.777 10.526-2.768 22.156-2.445 32.983-2.84 22.55-.81 45.122-.846 67.679-1.563 6.633-.208 13.451.287 19.718-1.986.559-.201.588-.975 0-1.169z" fill="#1D1D1B"/><path d="M197.536 689.805c2.94 11.472 9.121 22.069 13.831 32.86 2.331 5.342 4.883 10.605 7.543 15.789 2.445 4.775 4.804 10.203 8.583 14.011 4.338 4.374 8.052 10.647 10.583 16.255 1.083 2.409 1.628 5.069 2.933 7.378 1.061 1.878 2.552 3.678 3.965 5.313 5.887 6.797 16.886 10.583 25.576 7.349 1.771-.66 1.757-2.932 0-3.599-4.266-1.621-9.042-1.04-13.408-2.359-4.367-1.32-7.199-5.457-9.745-9.092-2.982-4.252-6.639-7.665-9.335-12.189a62.5 62.5 0 0 1-3.7-7.192c-1.197-2.746-1.62-5.758-2.947-8.403-4.804-9.587-10.153-18.951-15.416-28.294s-9.235-20.055-15.48-29.082c-1.018-1.477-3.449-.61-2.969 1.255zm-35.6-98.095c-1.312 6.525.373 13.537 1.843 19.883 1.613 6.984 3.463 13.652 6.303 20.256.659 1.534 1.197 3.219 2.222 4.531 1.255 1.606 2.79 2.961 3.815 4.797s2.043 4.087 2.595 6.044c.51 1.8.294 3.736.789 5.55.975 3.607 3.198 6.876 4.733 10.246s2.652 6.733 5.377 9.408c1.119 1.097 3.241.329 3.184-1.32-.108-3.391-1.355-6.066-2.668-9.135-1.462-3.427-2.437-7.105-4.101-10.446-.896-1.807-2.094-2.933-3.277-4.532-1.125-1.513-1.778-3.27-2.495-5.005-1.542-3.714-1.133-7.572-2.596-11.164-2.559-6.281-5.27-12.562-7.492-18.972s-2.696-13.623-4.898-20.155c-.509-1.499-2.982-1.793-3.341 0zm146.222-282.715c6.266 2.265 13.085 1.771 19.717 1.986 6.282.201 12.57.394 18.851.487 11.279.18 22.557.323 33.836.617 10.311.265 20.614.609 30.903 1.205 10.29.595 24.4.752 31.685 9.98 5.801 7.35 6.454 16.915 6.575 25.87.115 8.476.137 16.951.165 25.426.086 27.419 0 54.837-.122 82.256-.136 29.376-.15 58.752-.351 88.121-.115 17.001-.545 34.001-.208 51.002 0 .315-.014.631-.014.946.029 1.506-.043.753.079-.107-.56 4.001 5.557 5.729 6.123 1.692.05-.344.057-.703.136-1.04.093-.408-.129 1.04-.043.416.079-.559.151-1.126.215-1.685.108-.946.194-1.9.28-2.854.272-3.104.581-6.223.667-9.335.294-10.11.33-20.234.437-30.351.316-29.291.567-58.581.559-87.878s-.064-57.569-.279-86.358c-.072-9.328-.144-18.664-.352-27.992-.172-7.471-.451-14.534-2.896-21.769-3.822-11.328-12.139-18.377-23.762-20.893-10.655-2.309-21.984-2.166-32.84-2.474-22.994-.653-46.025-.222-69.02.086-6.811.093-13.845-.638-20.356 1.477-.588.193-.559.968 0 1.169z" fill="#1D1D1B"/><path d="M453.059 590.827c-2.115 2.237-2.23 4.955-2.775 7.909a107 107 0 0 1-2.767 11.379c-2.28 7.522-5.163 14.857-8.267 22.07-6.181 14.355-12.742 28.537-19.238 42.756-3.119 6.826-6.195 13.666-9.328 20.478-1.463 3.183-3.514 6.51-4.338 9.902-1.062 4.345-2.768 8.174-4.475 12.296-2.832 6.819-6.187 13.624-9.923 20.005-3.736 6.382-8.647 12.634-12.476 19.317s-7.529 14.914-12.935 20.944-12.878 5.757-20.428 7.285c-1.771.358-1.785 3.248 0 3.599 6.209 1.212 13.559 1.262 19.18-2.051 5.622-3.312 9.443-9.801 12.95-15.229 4.373-6.769 8.948-13.674 12.153-21.087a398 398 0 0 1 10.325-22.056c1.793-3.528 3.779-6.883 5.672-10.339 2.058-3.75 4.366-6.977 6.732-10.49 2.13-3.162 3.485-7.264 5.098-10.712 1.865-3.994 3.736-7.988 5.507-12.025 6.582-14.978 12.512-30.215 18.793-45.315 3.557-8.547 7.249-17.051 9.443-26.071a109 109 0 0 0 2.252-12.154c.451-3.599 1.233-7.392-1.09-10.404-.014-.021-.057-.021-.079 0z" fill="#1D1D1B"/><path d="M263.114 789.326c3.614.96 7.601.552 11.322.58l12.132.086c8.31.058 16.628.137 24.938.129 7.952 0 15.91-.021 23.862-.114 3.98-.051 7.952-.115 11.931-.208 1.836-.043 3.8.093 5.615-.158 2.165-.301 2.925-1.14 4.639-2.373.516-.373.58-1.119 0-1.477-1.542-.961-2.345-1.807-4.245-2.044-1.721-.208-3.578.036-5.306.072-3.979.093-7.952.15-11.931.193-8.189.086-16.377.079-24.565.072s-16.147.057-24.228.108c-4.044.028-8.088.05-12.132.079s-8.203-.438-12.032.58c-2.208.588-2.208 3.887 0 4.475m45.216-471.117c-12.57-1.234-25.598-.33-38.239-.316-10.626.007-21.259 0-31.886.179-10.131.172-20.341.373-30.444 1.284-10.289.925-19.833 4.051-25.827 12.978-4.962 7.399-6.202 15.753-6.389 24.357-.179 8.073-.236 16.147-.286 24.214-.173 26.235-.187 52.478-.165 78.714.021 28.157.157 56.314.394 84.479.136 16.089-.287 32.359.961 48.413.05.631.1 1.133.143 1.498.179 1.334 2.295 1.348 2.115 0-.545-4.065-.157-8.36-.215-12.447-.122-9.135-.258-18.263-.337-27.397-.236-26.681-.301-53.361-.394-80.041s-.143-54.228-.072-81.346c.029-9.514.065-19.036.158-28.551.043-4.668-.1-9.415.301-14.068.81-9.415 5.457-19.532 13.867-24.372 9.637-5.549 22.421-4.818 33.205-5.255 21.174-.854 42.376-.717 63.557-1.076 6.517-.107 13.092.022 19.56-.839.258-.036.265-.38 0-.401zm-99.637 362.037c.022 2.473 1.319 4.789 2.251 7.048.933 2.259 1.944 4.732 2.962 7.077 2.158 4.954 4.46 9.845 6.69 14.763 4.639 10.232 9.034 21.353 15.365 30.667 3.134 4.611 5.779 9.651 8.44 14.541 2.394 4.403 4.28 8.941 7.413 12.907 5.478 6.919 13.186 8.812 21.762 7.786.803-.093.796-1.14 0-1.24-4.474-.567-9.271-.294-13.501-2.094-4.503-1.921-7.171-6.582-9.745-10.497-2.76-4.202-5.449-8.332-7.901-12.727s-4.381-9.357-6.762-13.953c-4.739-9.149-9.429-18.349-13.896-27.634-2.143-4.46-4.165-8.984-6.245-13.473-1.14-2.452-2.309-4.89-3.456-7.335-.968-2.065-1.692-4.259-3.363-5.851-.014-.007-.028 0-.028.015z" fill="#1D1D1B"/><path d="M176.944 587.551c-1.147 2.76-.401 6.317-.043 9.228.387 3.147 1.047 6.259 1.764 9.35a134.5 134.5 0 0 0 6.159 19.553c1.162 2.889 2.682 5.485 3.958 8.317 1.692 3.75 2.94 7.507 4.238 11.393 2.122 6.367 4.897 13.136 8.252 18.944.352.609 1.327.208 1.141-.48-1.664-6.081-4.367-12.261-6.92-18.033-1.642-3.715-3.635-7.214-5.055-11.05-1.197-3.233-1.95-6.553-3.212-9.758-2.416-6.145-4.782-12.39-6.467-18.779-.846-3.198-1.477-6.446-2.037-9.708-.502-2.911-.344-6.353-1.742-8.985-.007-.014-.029-.007-.036 0zm131.379-268.934c12.326 1.642 25.232.968 37.665 1.075 10.483.094 20.973.165 31.456.409 9.808.23 19.624.552 29.412 1.255 6.015.43 12.347 1.104 17.846 3.786s9.013 7.227 11.1 12.798c2.574 6.877 2.846 13.638 2.954 20.794.122 8.446.158 16.9.193 25.347.108 26.171.072 52.342 0 78.513-.078 27.576-.15 55.153-.358 82.729-.122 15.746-.072 31.52-.538 47.259-.014.473-.021.954-.086 1.427-.179 1.348 1.943 1.333 2.115 0 .502-3.772.574-8.812.66-12.985.208-9.522.28-19.052.373-28.581.265-27.598.416-55.196.459-82.786.036-27.154.028-54.307-.115-81.461-.05-9.127-.1-18.248-.251-27.376-.093-5.485-.1-10.841-1.162-16.247-1.842-9.393-6.266-18.004-15.444-21.927-9.579-4.087-20.916-3.742-31.14-4.158-21.625-.868-43.279-.581-64.919-.595-6.726 0-13.501-.337-20.198.315-.266.029-.258.373 0 .402z" fill="#1D1D1B"/><path d="M439.665 587.549c-1.929 6.726-2.23 13.853-4.159 20.643s-4.438 13.466-7.105 20.041a2386 2386 0 0 1-17.295 41.465c-5.578 13.028-11.063 26.099-16.771 39.063-5.707 12.964-12.677 25.017-19.431 37.35-3.65 6.661-7.034 13.86-11.73 19.861-2.367 3.026-4.962 5.421-8.748 6.432s-7.55 1.097-11.379 1.376c-.796.058-.803 1.19 0 1.241 5.378.351 11.68.43 16.384-2.632 4.703-3.061 7.93-8.884 10.805-13.738 7.751-13.071 14.269-26.694 20.901-40.354 6.654-13.702 13.502-27.203 19.496-41.214s11.479-27.978 17.115-42.017c3.155-7.858 6.475-15.688 8.748-23.862 2.007-7.192 4.617-16.176 3.183-23.669 0-.021-.028-.014-.036 0zM296.162 317.42c5.414.495 10.841.789 16.276.81s10.992.567 16.277.122c.523-.043.731-.889.136-.989-5.026-.861-10.59-.703-15.703-.839a119 119 0 0 0-16.986.76c-.086.007-.086.129 0 .136" fill="#1D1D1B"/><path d="M267.861 775.301c7.07.61 14.341.18 21.432.201s14.735.043 22.099.043c6.983 0 13.967-.007 20.958-.086 6.683-.072 13.838.509 20.327-1.19.259-.065.287-.502 0-.552-6.381-1.162-13.15-.33-19.624-.258-7.221.079-14.434.079-21.654.079-7.127 0-14.255.014-21.382.028-7.328.015-14.842-.437-22.148.194a.775.775 0 0 0 0 1.549z" fill="#1D1D1B"/><path d="M245.018 422.671c-3.772 3.779-7.551 7.558-11.229 11.423a269 269 0 0 0-4.99 5.377c-.918 1.018-2.223 2.072-2.237 3.557-.022 2.932 5.607 5.291 7.679 6.603 4.381 2.775 8.934 5.242 13.623 7.457 2.072.983 3.894-2.108 1.807-3.097-3.513-1.664-6.962-3.449-10.311-5.428-1.663-.982-8.625-4.367-8.475-6.059.086-.968 2.911-3.191 3.607-3.936a334 334 0 0 1 4.144-4.345c2.94-3.033 5.93-6.031 8.913-9.02 1.634-1.635-.904-4.173-2.539-2.539zm26.694-15.337c-5.628 20.909-11.25 41.817-16.878 62.718-.602 2.23 2.854 3.183 3.456.953 5.628-20.908 11.25-41.816 16.878-62.717.603-2.23-2.853-3.184-3.456-.954m9.443 35.4c7.214.064 14.434.122 21.647.186 2.309.022 2.309-3.564 0-3.585-7.213-.065-14.433-.122-21.647-.186-2.308-.022-2.308 3.563 0 3.585m33.335-.008h.344c.243.007.48-.043.688-.158a1.26 1.26 0 0 0 .574-.373 1.36 1.36 0 0 0 .372-.573q.17-.323.158-.689l-.064-.473a1.8 1.8 0 0 0-.459-.788l-.366-.28a1.75 1.75 0 0 0-.903-.244h-.344a1.34 1.34 0 0 0-.689.158 1.26 1.26 0 0 0-.573.373 1.36 1.36 0 0 0-.373.573 1.35 1.35 0 0 0-.158.689l.064.473c.087.301.237.566.459.789l.366.279q.42.246.904.244m-92.446 56.709h.344c.244.007.481-.043.689-.158.222-.071.416-.193.573-.373.172-.164.301-.351.373-.573q.17-.323.158-.689l-.065-.473a1.8 1.8 0 0 0-.459-.788l-.365-.28a1.75 1.75 0 0 0-.904-.244h-.344a1.33 1.33 0 0 0-.688.158 1.27 1.27 0 0 0-.574.373 1.4 1.4 0 0 0-.373.573 1.35 1.35 0 0 0-.157.689l.064.473a1.8 1.8 0 0 0 .459.789l.366.279q.42.246.903.244m15.05-1.448v.344c-.007.244.043.48.158.688.072.222.194.416.373.574.165.172.351.301.574.373q.322.17.688.157l.473-.064c.301-.086.567-.237.789-.459l.28-.366q.244-.42.243-.903v-.344a1.35 1.35 0 0 0-.157-.689 1.27 1.27 0 0 0-.373-.573 1.4 1.4 0 0 0-.574-.373 1.35 1.35 0 0 0-.688-.158l-.473.065a1.8 1.8 0 0 0-.789.458l-.28.366q-.246.42-.244.904m24.129 1.104h.215c2.309 0 2.309-3.585 0-3.585h-.215c-2.309 0-2.309 3.585 0 3.585h.215c2.309 0 2.309-3.585 0-3.585h-.215c-2.309 0-2.309 3.585 0 3.585m46.39-19.424c-6.876.366-14.634 6.095-14.118 13.695.559 8.239 12.01 8.999 17.316 5.335 1.886-1.305.093-4.41-1.807-3.098-3.829 2.646-13.63 2.374-11.644-4.553 1.298-4.517 5.686-7.55 10.253-7.794 2.295-.122 2.309-3.707 0-3.585m21.654-.036c-5.399.272-10.34 3.52-12.333 8.64-2.101 5.384.617 10.49 6.46 11.314 5.12.724 10.311-2.473 11.724-7.5 1.484-5.284-2.072-10.497-7.565-10.777-2.309-.114-2.301 3.471 0 3.586 4.087.207 5.263 4.818 3.341 7.923-1.649 2.66-5.205 3.993-8.195 2.961-3.843-1.334-3.27-5.449-1.37-8.203 1.901-2.753 4.776-4.202 7.945-4.359 2.294-.115 2.309-3.7 0-3.585zm13.595 4.28.093-.1c.646-.71.724-1.829 0-2.538l-.136-.13a1.825 1.825 0 0 0-2.538 0c-1.484 1.427-.846 4.754-.818 6.575.058 3.256.366 6.482.818 9.709.315 2.273 3.771 1.305 3.456-.954a73 73 0 0 1-.645-7.12 71 71 0 0 1-.058-3.269c0-.33.007-2.632-.222-2.402h-2.538l.136.129v-2.538l-.093.1c-1.542 1.706.982 4.252 2.538 2.538z" fill="#000"/><path d="M342.884 483.446c5.09-1.678 11.594.709 11.443 6.904-.179 7.3-8.862 6.884-14.018 6.339-2.294-.244-2.272 3.341 0 3.585 4.453.473 9.243.789 13.172-1.764 3.076-1.993 4.625-5.428 4.403-9.049-.488-7.994-8.927-11.787-15.954-9.472-2.18.718-1.248 4.181.954 3.457m20.742-3.127c-1.498 4.188-3.836 11.982-1.161 16.147 2.502 3.894 8.446 2.625 11.995 1.305 2.144-.796 1.219-4.259-.953-3.456-1.549.574-3.141 1.083-4.819 1.133-2.66.079-3.334-1.362-3.57-3.943-.301-3.385.824-7.092 1.957-10.232.782-2.173-2.682-3.112-3.456-.954z" fill="#000"/><path d="m366.158 490.379 7.235-1.635c2.251-.509 1.297-3.965-.954-3.456l-7.235 1.635c-2.251.509-1.297 3.965.954 3.456m.552-8.984a65 65 0 0 1 8.605-.136c2.308.115 2.301-3.47 0-3.585a66 66 0 0 0-8.605.136c-2.28.187-2.301 3.772 0 3.585m32.294-8.504a270 270 0 0 0-15.344 26.214c-1.047 2.051 2.043 3.865 3.097 1.807a268 268 0 0 1 15.344-26.214c1.277-1.929-1.821-3.729-3.097-1.807m-165.416 54.436c-6.711 10.138-11.587 21.259-16.377 32.394-.903 2.094 2.187 3.922 3.098 1.807 4.797-11.135 9.665-22.256 16.377-32.395 1.276-1.928-1.829-3.728-3.098-1.806m17.847.688a173.4 173.4 0 0 0-15.143 31.635c-.782 2.173 2.681 3.112 3.456.954 3.872-10.756 8.826-21.023 14.778-30.782 1.204-1.972-1.893-3.779-3.098-1.807zm14.921 23.268c3.592-1.85 7.163-3.75 10.77-5.557 3.04-1.52 4.847-1.513 6.482 1.613.831 1.585 1.534 3.392 2.624 4.819 4.008 5.234 11.071-1.191 14.785-3.786 1.878-1.312.086-4.424-1.807-3.098a116 116 0 0 1-4.998 3.32c-1.792 1.119-3.699 2.897-5.442.896-2.101-2.409-2.258-6.553-5.284-8.253-2.295-1.29-4.819-.265-6.962.782-4.03 1.965-7.981 4.116-11.968 6.173-2.05 1.062-.236 4.152 1.807 3.098zm49.166-3.391h.688c.459 0 .939-.201 1.269-.524.33-.322.545-.824.523-1.269-.021-.444-.172-.946-.523-1.269s-.782-.523-1.269-.523h-.688c-.459 0-.94.2-1.27.523-.329.323-.544.825-.523 1.269.022.445.172.947.523 1.269.352.323.782.524 1.27.524m18.686-2.998-.688.344c-.388.194-.71.667-.825 1.069a1.35 1.35 0 0 0-.029.717c.015.236.079.459.215.667.244.38.617.717 1.069.824l.473.065c.323 0 .624-.086.903-.244l.689-.344c.387-.194.71-.667.824-1.069.072-.236.086-.473.029-.717a1.34 1.34 0 0 0-.215-.667c-.244-.38-.617-.717-1.068-.824l-.474-.065c-.322 0-.624.086-.903.244" fill="#000"/></g><defs><clipPath id="a"><path fill="#fff" d="M.5.212H563v789.909H.5z"/></clipPath></defs></svg>