<svg width="529" height="791" viewBox="0 0 529 791" fill="none" xmlns="http://www.w3.org/2000/svg"><g clip-path="url(#a)"><path d="m35.341 307.786-20.397-3.726L1.98 282.578l40.74-108.653 100.887 7.766 14.876.641 14.228 21.994-27.071 69.967-35.908.239-29.801 3.637-13.648 3.87-14.556 4.319-7.281 7.282z" fill="#99E686"/><path d="M67.428 175.965s15.197-50.444 29.104-61.765c13.908-11.314 33.309-11.962 43.654-6.141s17.784 18.431 16.166 32.011-13.9 42.057-13.9 42.057-19.08.628-18.76-.348c.321-.969 13.58-33.95 12.611-41.067-.969-7.111-6.79-15.846-13.907-15.846-7.118 0-15.518 4.525-21.339 16.494-5.821 11.963-12.932 37.185-12.932 37.185l-20.697-2.587zm359.793 114.181-48.342 80.06 7.643 21.571 89.832 21.536 49.366-79.869-8.019-19.523-11.689-2.716z" fill="#99E686"/><path d="M449.925 295.844s19.496-37.723 32.189-44.629c12.693-6.913 28.156-4.559 35.492 1.583s11.369 17.231 8.08 27.754-15.58 32.353-15.58 32.353-16.862-3.412-16.459-4.136c.402-.723 15.777-24.894 16.064-30.674.279-5.78-3.037-13.56-8.674-14.61-5.637-1.051-12.966 1.289-19.346 9.908s-15.743 27.549-15.743 27.549l-16.016-5.111zM385.58 64.487l66.392 109.957-9.308 26.996-124.56 32.209L250.3 123.952l10.031-28.067 17.04-2.47z" fill="#99E686"/><path d="M354.401 72.314s-26.777-51.808-44.206-61.3c-17.429-9.493-38.672-6.258-48.751 2.177-10.08 8.434-15.614 23.665-11.096 38.119 4.517 14.453 21.4 44.432 21.4 44.432s23.154-4.689 22.608-5.678c-.546-.99-21.673-34.189-22.062-42.125-.389-7.937 4.169-18.623 11.915-20.063 7.738-1.447 17.811 1.774 26.573 13.614s21.625 37.84 21.625 37.84z" fill="#99E686"/><path d="M89.102 275.563c-1.106-.211-2.109-.225-3.228-.252-1.365-.034-2.518.355-3.808.784-3.241 1.092-1.358 5.828 1.843 4.375 1.228-.553 2.286-1.065 3.255-2.007.791-.764 1.494-1.446 2.156-2.347.143-.191 0-.519-.232-.566zm144.854 11.11c.041 0 .041-.069 0-.069-.04 0-.04.069 0 .069m-73.734-107.8c-2.648 3.33-3.856 8.154-5.357 12.099a390 390 0 0 0-4.286 11.819c-2.306 6.694-4.394 13.45-6.462 20.22-5.261 17.224-11.512 33.922-18.957 50.334-1.119 2.477 2.395 3.985 3.446 1.454 6.858-16.481 13.089-33.186 18.316-50.253 2.061-6.735 4.033-13.498 6.196-20.199q1.904-5.907 3.992-11.751c1.495-4.17 4.019-8.762 4.422-13.178.055-.634-.901-1.057-1.31-.545M59.71 283.158c-1.42-.423-2.361-1.119-3.972-1.303-2.074-.239-4.142-.464-6.223-.607q-8.813-.623-17.627-1.256c-9.731-.696-19.421-1.276-29.173-1.481-2.306-.048-2.204 3.289 0 3.521 9.588 1.01 19.149 1.795 28.77 2.416 5.794.376 11.581.751 17.375 1.119 2.129.137 4.258.205 6.394.253 1.665.041 2.866-.553 4.45-.812.982-.164.838-1.604 0-1.85zm112.734-80.497c-2.606 3.302-3.821 7.881-5.411 11.744s-3.153 7.677-4.709 11.519c-2.415 5.964-4.695 11.976-6.96 18.002-3.76 9.997-7.5 19.974-11.519 29.869-.901 2.218 2.818 3.303 3.637 1.003 3.555-9.929 7.077-19.858 10.782-29.726 2.191-5.834 4.463-11.642 6.66-17.476 1.372-3.637 2.75-7.268 4.143-10.891 1.637-4.279 4.244-8.933 4.688-13.505.061-.635-.908-1.058-1.311-.546zM37.996 304.981c-1.966-2.716-6.504-2.068-9.547-2.293-4.531-.327-8.96-.593-13.498-.389-1.877.082-2.518 3.105-.471 3.453 4.258.73 8.455 1.078 12.768 1.317 3.098.171 8.264 1.59 10.598-.928.266-.286.402-.812.15-1.16" fill="#000"/><path d="M3.268 280.817c2.702-3.467 3.958-8.4 5.534-12.467 1.68-4.32 3.31-8.66 4.9-13.014 2.914-7.977 5.678-16.002 8.428-24.041 6.524-19.06 13.648-37.799 21.946-56.169 1.12-2.477-2.388-3.986-3.446-1.454-7.698 18.405-14.76 37.069-21.23 55.937-2.743 8.012-5.398 16.057-8.161 24.069a668 668 0 0 1-4.634 12.993c-1.59 4.313-4.183 9.028-4.647 13.6-.062.628.907 1.058 1.31.546" fill="#000"/><path d="M42.193 175.106c1.63.286 3.125.689 4.695 1.133 2.825.798 6.128.682 9.042.935 8.912.777 17.851 1.255 26.777 1.856 19.606 1.324 39.212 2.879 58.844 3.76 5.617.252 11.24.396 16.849.75 2.259.144 2.252-3.378 0-3.521-13.43-.839-26.832-2.238-40.262-3.146-19.606-1.324-39.225-2.641-58.844-3.773-3.596-.205-7.295-.56-10.891-.492-1.98.041-3.951.512-5.958.608-1.023.047-1.371 1.692-.252 1.883zM.573 281.09l-.26.396c-.389.6-.45 1.658 0 2.252 4.961 6.537 9.342 13.122 13.212 20.424.996 1.877 3.705.225 2.818-1.644-3.426-7.22-7.554-14.536-12.174-21.032-.567-.799-1.522-1.331-2.518-1.024-.444.137-.812.225-1.078.628" fill="#000"/><path d="M158.031 180.817c1.693 4.375 4.17 8.531 6.401 12.652 1.925 3.569 3.692 8.585 6.947 11.062.86.655 1.713-.423 1.597-1.228-.56-3.876-4.06-7.943-5.971-11.342-2.252-3.999-4.197-8.264-6.695-12.106-.73-1.119-2.818-.423-2.279.962m362.086 130.136c-2.914 2.463-4.804 6.51-6.81 9.717a548 548 0 0 0-6.197 10.154c-3.787 6.354-7.458 12.775-11.109 19.21-8.449 14.87-17.313 29.385-27.228 43.326-1.399 1.966 1.91 3.938 3.261 1.904 9.425-14.214 18.255-28.825 26.683-43.647 3.657-6.435 7.226-12.911 10.898-19.332a533 533 0 0 1 5.732-9.813c1.945-3.249 4.982-6.94 6.073-10.769.226-.785-.723-1.214-1.283-.744z" fill="#000"/><path d="M470.029 391.743c-1.235-.512-2.245-1.12-3.392-1.747-2.102-1.147-4.831-1.556-7.124-2.225-6.913-2.02-13.921-3.746-20.882-5.603-15.286-4.067-30.531-8.359-45.926-11.996-4.395-1.038-8.783-2.082-13.177-3.112-2.204-.512-3.119 2.764-.935 3.391 25.788 7.432 51.726 14.44 77.774 20.937 2.852.709 5.903 1.74 8.83 2.027 1.522.15 3.017.02 4.572.211 1.174.143 1.154-1.515.253-1.883zm56.101-60.059c-2.914 2.464-4.804 6.51-6.811 9.718a554 554 0 0 0-6.196 10.154c-3.787 6.353-7.459 12.774-11.11 19.21-8.448 14.869-17.312 29.384-27.228 43.326-1.399 1.965 1.911 3.937 3.262 1.904 9.424-14.215 18.255-28.825 26.682-43.647 3.658-6.435 7.227-12.911 10.898-19.333a542 542 0 0 1 5.733-9.813c1.944-3.248 4.981-6.94 6.073-10.768.225-.785-.723-1.215-1.283-.744z" fill="#000"/><path d="M476.04 412.474c-1.235-.512-2.245-1.119-3.391-1.747-2.102-1.146-4.832-1.556-7.124-2.225-6.913-2.02-13.922-3.746-20.882-5.602-15.286-4.067-30.531-8.36-45.926-11.997-4.395-1.037-8.783-2.081-13.178-3.112-2.204-.511-3.118 2.764-.934 3.392 25.788 7.431 51.726 14.44 77.774 20.936 2.852.71 5.902 1.74 8.83 2.027 1.522.15 3.016.02 4.572.212 1.174.143 1.153-1.515.253-1.884zm-98.676-41.66c2.907-2.45 4.797-6.47 6.831-9.643a751 751 0 0 0 6.25-9.943c3.808-6.148 7.541-12.344 11.26-18.554 8.66-14.454 17.675-28.62 27.454-42.351 1.398-1.965-1.911-3.937-3.262-1.903a1096 1096 0 0 0-26.901 42.671c-3.719 6.203-7.356 12.453-11.048 18.677a761 761 0 0 1-5.78 9.602c-2.054 3.364-5.002 6.885-6.087 10.693-.225.785.723 1.215 1.283.744z" fill="#000"/><path d="M427.276 290.296c1.426.586 2.129 1.023 3.248 1.665 1.979 1.132 4.627 1.515 6.804 2.142 6.865 1.979 13.812 3.685 20.718 5.494 15.456 4.053 30.872 8.346 46.438 11.969 4.49 1.044 8.973 2.088 13.464 3.139 2.204.512 3.118-2.763.934-3.391-25.815-7.432-51.835-14.283-77.931-20.691-2.859-.703-5.916-1.72-8.844-2.006-1.528-.15-3.023-.014-4.579-.198-1.173-.143-1.16 1.515-.252 1.883zm-50.15 78.593-.28.287c-.689.71-.846 1.836-.348 2.702 3.187 5.487 5.228 11.424 7.111 17.484.621 1.999 3.658 1.18 3.146-.867-1.576-6.271-3.972-12.276-6.19-18.329-.313-.86-1.132-1.727-2.149-1.638-.451.041-.956.013-1.297.368zm91.101 23.325c-.471 3.821 1.235 7.254 2.368 10.871 1.214 3.876 2.245 7.861 3.712 11.655.853 2.198 4.088 1.385 3.576-.989-.901-4.177-2.402-8.264-3.788-12.304-1.207-3.535-1.938-7.09-4.674-9.738-.478-.464-1.133-.082-1.201.498z" fill="#000"/><path d="M518.076 312.434c.69 3.897 2.075 7.745 3.256 11.519.955 3.05 1.535 6.763 3.678 9.185.662.744 1.815.116 1.856-.771.15-3.255-1.822-6.783-2.846-9.847-1.194-3.562-2.122-7.275-3.535-10.755-.6-1.481-2.688-.942-2.409.662zm-8.584.382c4.709-4.395 7.684-10.946 11.096-16.337 3.228-5.098 5.65-10.318 6.947-16.241 1.085-4.955 2.116-10.653.942-15.669-1.106-4.735-4.129-8.768-7.746-11.921-8.461-7.37-18.541-9.417-29.282-6.592-10.331 2.723-19.244 8.707-25.242 17.572-6.612 9.772-10.332 21.195-16.746 31.104-1.031 1.59 1.419 3.548 2.661 2.054 11.403-13.696 14.611-34.598 31.254-43.667 9.657-5.262 20.964-7.016 30.777-1.317 4.238 2.463 8.093 5.861 10.161 10.386 2.279 5.002 1.29 10.836.205 16.023-1.29 6.189-3.972 11.717-6.927 17.265s-7.295 10.625-9.608 16.453c-.355.887.901 1.433 1.495.873z" fill="#000"/><path d="M495.114 308.441c4.074-3.719 7.104-9.212 9.949-13.894 2.614-4.306 4.893-8.96 5.808-13.948 1.406-7.739-.505-17.381-9.342-19.169s-15.266 4.627-20.35 10.959c-3.2 3.986-6.244 8.08-9.069 12.345a182 182 0 0 0-4.62 7.357c-1.317 2.217-2.968 4.456-3.501 6.994-.286 1.358 1.345 2.471 2.409 1.399 2.73-2.75 4.34-7.029 6.367-10.338 2.272-3.699 4.688-7.316 7.186-10.864 4.47-6.34 9.731-15.075 18.459-15.293 4.224-.102 7.895 2.027 9.076 6.217 1.283 4.551-.061 9.083-1.74 13.334s-4.163 8.203-6.06 12.399c-1.788 3.952-4.108 8.005-4.947 12.291-.041.218.204.375.375.218zM143.223 182.578c4.333-6.551 6.524-14.842 9.301-22.131 2.593-6.796 4.368-13.484 4.661-20.786.253-6.339.184-13.675-2.368-19.599-2.081-4.845-5.848-8.687-10.202-11.573-5.548-3.678-12.16-6.115-18.787-6.722-7.035-.648-13.634 1.433-19.912 4.449-11.935 5.733-21.23 15.15-26.362 27.365-5.65 13.443-7.458 28.163-13.088 41.634-.744 1.781 2.204 2.975 3.098 1.303 10.823-20.192 9.56-47.12 29.412-61.888 5.077-3.78 11.048-6.974 17.176-8.646 7.247-1.979 14.992-.655 21.762 2.362 4.913 2.19 9.554 5.466 12.454 10.086 3.378 5.377 3.528 12.085 3.507 18.261-.027 7.766-1.883 14.931-4.121 22.308s-6.34 15.06-8.162 22.881c-.232 1.003 1.078 1.542 1.638.689z" fill="#000"/><path d="M124.819 180.79c3.548-5.467 5.739-12.161 7.97-18.269 2.232-6.107 4.101-12.303 4.17-18.814.102-9.772-4.368-21.263-15.655-21.209-11.068.055-17.094 9.322-21.673 18.091a211 211 0 0 0-11.956 27.385c-1.023 2.88-2.436 5.896-2.538 8.974-.048 1.487 1.944 1.883 2.682.723 1.432-2.245 1.985-5.043 2.845-7.554s1.692-4.832 2.6-7.22a237 237 0 0 1 6.824-16.112c3.999-8.578 8.448-19.558 19.005-21.25 5.248-.839 9.943 1.221 12.277 6.128 2.607 5.487 1.979 11.812.798 17.586-1.105 5.418-3.084 10.604-4.422 15.961s-3.009 10.216-3.35 15.464c-.014.232.307.286.416.116zm315.955 153.043c6.503-2.859 13.389-4.272 20.486-4.306l-1.474-2.566-23.68 33.404c-1.269 1.795 1.686 3.501 2.948 1.72l23.68-33.404c.764-1.078-.267-2.573-1.474-2.566-7.732.041-15.136 1.665-22.213 4.777-2.006.88-.273 3.822 1.72 2.948zM256.516 94.015c1.781 5.166 5.664 9.922 8.476 14.59a729 729 0 0 1 7.888 13.43c5.105 8.878 10.066 17.845 15.129 26.75 11.547 20.315 23.646 40.317 36.653 59.731 1.351 2.02 4.654.075 3.261-1.904-13.504-19.141-25.638-39.047-37.204-59.403-5.064-8.906-10.121-17.811-15.348-26.621a777 777 0 0 0-8.073-13.321c-2.736-4.408-5.527-10.256-9.499-13.989-.525-.491-1.542-.014-1.283.744z" fill="#000"/><path d="M327.398 206.216c1.768-.279 3.46-.416 5.228-.525 3.309-.205 6.769-1.488 9.99-2.273 9.643-2.34 19.217-4.988 28.818-7.506 20.984-5.5 42.037-10.789 62.905-16.705 5.943-1.686 11.867-3.494 17.845-5.05 2.19-.573 1.262-3.965-.935-3.392-14.583 3.801-29.262 7.2-43.845 11.021-20.984 5.507-41.975 11-62.911 16.692-3.876 1.051-7.937 1.965-11.724 3.323-2.006.717-3.869 1.822-5.889 2.573-1.174.43-.703 2.04.512 1.849zm-79.145-83.724c1.781 5.165 5.664 9.922 8.475 14.59a726 726 0 0 1 7.889 13.429c5.104 8.878 10.065 17.845 15.129 26.751 11.546 20.315 23.645 40.316 36.652 59.731 1.351 2.02 4.654.075 3.262-1.904-13.505-19.142-25.638-39.047-37.205-59.404-5.064-8.905-10.12-17.811-15.348-26.62a773 773 0 0 0-8.072-13.321c-2.737-4.408-5.528-10.257-9.5-13.989-.525-.492-1.542-.014-1.282.743z" fill="#000"/><path d="M319.135 234.694c1.767-.28 3.46-.416 5.227-.526 3.31-.204 6.77-1.487 9.991-2.272 9.642-2.341 19.216-4.988 28.818-7.507 20.984-5.5 42.036-10.788 62.904-16.705 5.944-1.685 11.867-3.494 17.845-5.05 2.191-.573 1.262-3.964-.935-3.391-14.583 3.801-29.262 7.199-43.845 11.021-20.984 5.507-41.975 11-62.911 16.691-3.876 1.051-7.936 1.966-11.724 3.324-2.006.716-3.869 1.822-5.889 2.572-1.174.43-.703 2.041.512 1.85zm136.407-60.367c-1.754-5.138-5.664-9.874-8.503-14.48-2.682-4.361-5.33-8.742-7.957-13.144-5.132-8.598-10.188-17.244-15.334-25.836-11.84-19.755-24.13-39.259-36.959-58.393-1.351-2.02-4.654-.075-3.262 1.904 13.314 18.855 25.652 38.276 37.512 58.066 5.152 8.591 10.298 17.183 15.552 25.713 2.689 4.36 5.398 8.707 8.141 13.034 2.887 4.552 5.555 10.181 9.527 13.88.525.491 1.542.014 1.283-.744" fill="#000"/><path d="M384.905 62.501c-1.774.28-3.46.41-5.241.519-3.317.198-6.783 1.474-10.011 2.245-9.663 2.313-19.257 4.927-28.879 7.41-21.025 5.433-42.126 10.653-63.041 16.508-5.958 1.665-11.895 3.446-17.879 5.01-2.191.572-1.263 3.964.934 3.39 14.597-3.8 29.324-7.117 43.927-10.897 21.025-5.44 42.064-10.864 63.041-16.487 3.883-1.044 7.957-1.945 11.744-3.29 2.006-.71 3.876-1.815 5.896-2.559 1.174-.43.703-2.04-.512-1.849zm68.425 110.1-.559.014c-.731.02-1.604.395-1.932 1.105-3.76 8.244-6.824 17.211-9.096 25.993-.526 2.041 2.538 2.88 3.146.867 2.593-8.599 5.869-16.59 9.806-24.608.328-.669.485-1.597 0-2.252-.348-.471-.682-1.139-1.365-1.119m-125.638 31.712c-1.583 2.19-2.443 3.548-3.351 6.128a589 589 0 0 0-2.805 8.154c-1.746 5.2-3.691 10.475-4.865 15.839-.519 2.368 2.736 3.194 3.576.99 1.965-5.139 3.344-10.557 5.002-15.805a595 595 0 0 1 2.45-7.568c.907-2.743 1.16-4.572 1.303-7.384.041-.757-.935-.873-1.31-.354" fill="#000"/><path d="M257.942 94.316c-1.89 4.695-3.091 9.745-4.681 14.556a518 518 0 0 1-2.347 6.926c-.799 2.307-1.891 4.327-1.775 6.688.041.88 1.195 1.515 1.857.771 2.866-3.221 3.664-8.899 4.947-12.952 1.576-5.002 3.48-10.148 4.408-15.32.287-1.597-1.808-2.15-2.409-.662zm16.297-.014c-3.432-7.309-8.625-13.853-12.583-20.902-3.713-6.613-7.261-13.396-9.274-20.738-1.809-6.613-3.596-14.61-2.361-21.462 1.235-6.851 5.336-12.086 10.413-16.18 5.842-4.709 13.171-8.244 20.711-8.878 7.2-.608 14.761 1.406 21.428 4.006 13.143 5.118 22.171 15.204 28.852 27.316 6.654 12.072 11.656 24.895 20.404 35.697 1.208 1.488 3.74-.464 2.662-2.054-7.814-11.574-12.68-24.717-19.586-36.795-7.083-12.393-16.828-21.933-30.237-27.27-7.254-2.886-15.661-5.07-23.529-4.34-7.309.676-14.236 3.72-20.152 7.992-5.323 3.841-10.079 8.762-12.625 14.903-2.702 6.524-1.917 13.41-.866 20.213 1.358 8.796 4.251 17.122 8.892 24.717 5.056 8.284 9.724 17.784 16.439 24.86.737.778 1.822-.205 1.406-1.085z" fill="#000"/><path d="M292.773 89.34c-3.439-11.873-11.348-22.123-15.77-33.629-2.123-5.514-3.719-11.328-2.553-17.244 1.277-6.47 6.081-10.243 12.536-10.434 11.915-.341 19.203 10.843 25.393 19.387a274 274 0 0 1 10.509 15.586 234 234 0 0 1 4.504 7.52c1.453 2.532 2.736 5.528 4.77 7.78.996 1.105 2.75-.068 2.409-1.399-1.311-5.118-5.228-10.154-8.012-14.59-2.996-4.784-6.148-9.465-9.499-14.01-5.637-7.636-11.696-17.108-20.629-21.168-6.688-3.037-15.805-2.818-21.1 2.86-6.415 6.878-5.159 19.29-2.204 27.391 2.081 5.705 5.063 10.919 8.216 16.085 3.337 5.459 6.722 11.362 11.062 16.084.15.164.436-.007.375-.218zM84.038 207.963c-9.097 15.819-9.663 34.557-16.76 51.14-.853 1.999 2.081 3.74 2.948 1.72 7.083-16.556 7.697-35.383 16.76-51.14 1.098-1.904-1.85-3.63-2.948-1.72" fill="#000"/><path d="M54.667 224.826a164.5 164.5 0 0 0 52.252 13.492c2.184.191 2.177-3.221 0-3.412a159.5 159.5 0 0 1-50.526-13.021c-1.992-.88-3.726 2.061-1.72 2.948z" fill="#000"/><path d="M97.086 216.856c-12.181 7.602-24.369 15.204-36.55 22.813-1.856 1.16-.15 4.115 1.72 2.948 12.18-7.602 24.368-15.204 36.55-22.813 1.856-1.16.15-4.115-1.72-2.948" fill="#000"/><path d="M66.187 215.88c7.568 12.188 15.927 23.843 25.003 34.953 1.392 1.699 3.795-.724 2.416-2.416a324 324 0 0 1-24.471-34.264c-1.153-1.863-4.108-.15-2.948 1.72zM450.662.703c-2.675 4.422-5.855 8.612-9.281 12.48-3.425 3.87-7.24 6.934-10.577 10.646-1.542 1.72-.744 3.938 1.256 4.75 5.561 2.272 9.471 8.1 12.365 13.089 3.05 5.247 5.425 10.83 7.704 16.446l4.954-2.088c-2.388-5.644 2.437-12.755 5.678-17.027 3.583-4.715 8.087-8.898 12.754-12.536h-3.378l.253.867 3.037-.798c-8.271-3.965-22.902-11.935-18.944-23.216.621-1.767-1.815-3.01-3.05-1.774-5.009 5.023-2.969 12.242 1.16 17.149 4.961 5.896 12.037 9.376 19.121 11.894 1.214.43 2.32-.498 2.729-1.549.731-1.876.574-3.794-.552-5.473-.737-1.092-2.075-1.508-3.269-.86-11.321 6.19-27.276 22.001-20.22 36.045 1.597 3.18 6.026.39 4.681-2.736-2.668-6.23-5.384-12.543-9.144-18.214-3.658-5.507-8.114-9.751-13.116-13.982l-.573 4.463c9.718-5.118 15.968-16.385 19.162-26.437.526-1.651-1.877-2.593-2.75-1.16zm43.04 61.655c-1.57.744-2.484 2.204-3.603 3.474-1.352 1.528-2.832 2.572-4.532 3.657-3.282 2.102-1.214 7.33 2.675 6.34 2.587-.655 3.392 5.234 3.685 6.68.546 2.635 4.852 3.358 6.012.785.751-1.665 3.119-7.533 5.501-6.905 2.381.627 3.398-2.457 1.617-3.829-3.358-2.58-5.801-5.288-7.548-9.185-1.562-3.473-6.073-.744-5.629 2.375.402 2.825.525 5.138 1.781 7.793 1.255 2.654 5.534.737 4.558-1.925-.505-1.371-1.358-3.65-.71-5.131h-5.315c2.006 4.702 6.162 8.782 11.252 9.908l1.113-4.04c-5.992-1.023-9.779 2.389-12.297 7.63l6.012.785c-1.256-6.02-4.156-11.424-10.953-11.745l1.754 6.463c4.033-1.87 9.39-7.827 6.865-12.543-.444-.826-1.46-.948-2.232-.587zm-212.1 482.306c-1.501 4.592-2.327 9.465-3.535 14.153a392 392 0 0 1-1.706 6.408c-.614 2.245-1.61 4.476-1.344 6.81.089.798 1.208 1.604 1.856.771 2.648-3.425 3.071-9.035 4.074-13.198 1.153-4.797 2.559-9.703 3.105-14.61.164-1.453-2.034-1.604-2.45-.334m66.003-440.966c-8.728-1.016-18.48 4.184-21.134 12.912-1.276 4.196.075 8.311 3.528 10.966 3.965 3.043 8.994 3.146 13.682 1.972 7.827-1.965 19.162-7.5 17.674-17.285-1.364-8.995-12.037-11.936-18.438-6.019-1.618 1.494.798 3.903 2.415 2.415 5.978-5.52 15.532.847 11.99 8.428-2.538 5.432-10.256 8.367-15.736 9.452-3.542.702-7.5.375-10.216-2.252-3.036-2.942-2.006-7.097.185-10.257 3.589-5.179 9.922-7.629 16.057-6.913 2.177.253 2.156-3.159 0-3.412z" fill="#000"/><path d="M350.15 124.252c-4.954.635-8.428 3.658-11.034 7.8-3.003 4.77-5.582 10.994-6.285 16.569-1.331 10.564 6.79 20.636 16.951 22.854 11.437 2.491 22.86-3.392 29.132-12.911 5.514-8.367 9.97-23.632 1.098-31.302-4.947-4.279-12.235-5.637-18.582-5.835-7.185-.225-14.235 1.488-20.642 4.681-1.966.983-.239 3.924 1.719 2.948 5.889-2.934 12.338-4.415 18.923-4.217 5.876.177 13.628 1.454 17.62 6.264 4.163 5.016 2.457 12.98.478 18.562-2.075 5.855-5.794 11.301-11.001 14.788-10.256 6.885-25.44 5.213-30.94-6.858-2.907-6.374-.73-12.748 1.89-18.814 2.02-4.682 5.064-10.414 10.673-11.13 2.15-.273 2.177-3.692 0-3.413zm-163.198 56.749c4.067 5.289 7.295 10.939 9.09 17.402 1.794 6.462 1.637 13.395.621 20.199-.273 1.829 2.258 2.641 2.838.785 4.149-13.3-1.057-30.19-11.894-38.884-.334-.266-.969.096-.655.505zm19.557 3.385c3.938 7.234 5.289 16.023 7.043 23.973.218.996 1.767.764 1.76-.239-.047-9.144-3.958-16.296-8.523-23.898-.109-.177-.375-.02-.273.164zm180.238 141.293c-7.063 7.834-13.805 17.422-17.203 27.467-.403 1.194 1.289 1.753 1.931.812 3.009-4.402 5.459-9.124 8.209-13.689 2.737-4.545 5.746-8.933 8.626-13.396.607-.942-.799-2.04-1.556-1.201zm-.409-14.092c-3.541 4.218-7.158 8.503-9.608 13.464-.396.799.642 1.754 1.303 1.01 3.706-4.142 6.354-9.09 8.96-13.969.212-.396-.334-.88-.655-.505" fill="#000"/><path d="m350.813 697.953-.027 36.693s-3.713 11.594-16.433 19.312l-40.044 23.598s-14.473 3.801-21.721 5.063c-7.247 1.263-29.145-1.528-29.145-1.528s-8.264-2.737-17.709-12.748c-9.437-10.018-48.731-59.049-48.731-59.049l-41.715-57.902S114.7 623.12 104.88 587.273c-9.813-35.854-48.738-170.93-48.738-170.93l-21.598-75.337S28 321.625 28.839 316.637c.84-4.989 4.36-7.398 4.36-7.398l38.263-31.8s31.35-2.764 48.704-2.668c17.36.089 108.516.853 108.516.853s26.328-2.313 38.14 17.285c0 0 7.302 12.222 17.238 51.468 9.936 39.245 53.023 176.791 53.023 176.791s11.103 24.976 11.164 69.34l2.573 107.452z" fill="#99E686"/><path d="M280.947 780.081s-9.321 1.46-28.927-29.801c-19.605-31.254-66.535-91.081-66.535-91.081l-23.133-39.812s-12.768-25.72-19.483-52.859L66.829 310.7s-3.276-10.898.893-22.185c4.17-11.287 9.677-8.94 9.677-8.94l-4.245-6.606s-6.435-.293-10.748 4.368-22.847 21.359-22.847 21.359l-13.116 11.246-.62 11.642s3.882 24.28 10.966 41.068c7.09 16.787 46.103 159.506 46.123 159.499.021-.007 20.234 74.744 20.234 74.744s7.786 24.84 17.026 37.942 59.956 85.547 59.956 85.547 33.554 46.192 45.497 53.821c0 0 9.062 11.895 18.158 12.277s21.756 1.876 21.756 1.876l15.831-1.774-.184-5.698" fill="#99E686"/><path d="m282.695 778.689-2.948.054 1.624 7.834s16.425-3.739 19.844-7.219 20.111-12.748 20.111-12.748l18.589-10.127s12.624-8.073 12.201-21.605-.628-80.756-.628-80.756l-2.456-78.081c0-.014-.662-25.816-12.632-61.656s-34.721-115.006-34.721-115.006l-28.456-95.414s-5.255-27.979-27.051-31.139c0 0-56.954-1.719-57.363-1.726-.41 0-86.918-.341-86.918-.341l-30.94 2.845 6.441 5.965s56.026-2.996 66.221-3.16 85.635 2.47 85.635 2.47l15.546 1.072s8.871.382 16.855 11.512 20.902 63.942 20.902 63.942l12.215 43.715 20.752 70.185 19.429 66.126s3.753 15.067 5.131 23.427 4.764 65.04 4.764 65.04l2.675 74.956-.464 31.002s-2.403 12.713-8.974 20.499c-6.572 7.786-31.411 19.128-31.411 19.128l-23.98 9.199z" fill="#99E686"/><path d="M82.988 271.509c-9.07-1.849-19.162-.962-24.328 7.861-5.487 9.363-3.016 21.367-.587 31.241 1.071 4.347 2.395 8.633 3.637 12.932 5.63 19.476 11.315 38.931 16.992 58.393 7.855 26.908 15.17 54.054 23.652 80.763a6335 6335 0 0 1 12.625 40.099c1.924 6.203 4.094 12.488 5.214 18.896 1.016 5.8 2.449 11.532 3.958 17.23 3.923 14.843 8.195 29.794 13.538 44.193.137.362.267.723.403 1.085.055.143.102.287.157.43.403 1.058.027-.027.157.423.921 3.132 5.828 1.802 4.907-1.351-.192-.662.15.935-.048-.096-.048-.238-.075-.477-.13-.716l-.246-1.112q-.306-1.415-.614-2.819c-.593-2.702-1.31-5.377-2.006-8.059-2.129-8.244-4.709-16.378-7.131-24.539-1.542-5.194-3.132-10.346-4.873-15.471-1.938-5.718-4.36-11.232-6.134-16.992-3.911-12.672-7.241-25.535-10.673-38.344-7.22-26.921-15.3-53.61-23.127-80.36-6.203-21.203-12.406-42.405-18.575-63.615-1.74-5.984-3.487-11.969-5.2-17.961-3.248-11.348-10.209-29.582 2.19-37.703 4.805-3.145 10.919-2.613 16.255-4.292.048-.014.055-.089 0-.095z" fill="#1D1D1B"/><path d="M140.112 584.175c-1.139 6.189 2.395 12.734 4.702 18.364 2.866 6.994 6.067 13.846 9.513 20.574 3.692 7.199 7.649 14.262 11.812 21.196 4.163 6.933 9.67 13.518 14.406 20.247 5.036 7.151 10.618 14.037 15.299 21.421 4.682 7.383 9.929 15.381 15.409 22.744 10.707 14.392 21.216 28.921 31.916 43.32a1316 1316 0 0 0 17.798 23.406c4.265 5.466 10.932 14.754 19.134 11.772 1.74-.635 1.352-2.901-.423-3.112-8.939-1.051-13.505-8.906-18.534-15.423a1374 1374 0 0 1-15.416-20.404c-10.29-13.866-20.322-27.896-30.23-42.036-9.909-14.139-20.868-26.348-30.702-40.016-4.722-6.565-8.816-13.423-12.604-20.561s-7.889-13.362-11.539-20.206c-3.911-7.323-7.568-14.788-10.789-22.445a186 186 0 0 1-4.129-10.693c-1.133-3.235-2.013-5.923-4.34-8.489-.368-.41-1.181-.226-1.283.341" fill="#1D1D1B"/><path d="M349.687 726.417c.478 7.609.034 16.248-4.757 22.567-5.377 7.09-15.333 10.468-22.922 14.576-8.018 4.334-15.791 8.974-24.034 12.877-6.367 3.017-15.798 8.797-23.188 5.93-1.89-.737-3.221 1.659-2.436 3.174 4.449 8.659 17.285 3.091 23.822-.028 4.962-2.368 9.493-5.507 14.242-8.25s9.438-5.364 14.003-8.278c4.566-2.913 8.899-6.25 13.369-9.355 3.746-2.607 7.738-4.695 10.611-8.36 5.425-6.926 6.715-16.296 6.183-24.833-.198-3.125-5.091-3.152-4.893 0z" fill="#1D1D1B"/><path d="M341.402 531.582c.942 1.603 1.208 4.435 1.536 6.257.402 2.245.627 4.531.887 6.797.703 6.128 1.01 12.242 1.412 18.398 1.775 26.914 2.553 53.835 2.88 80.811.157 12.979.464 25.952.696 38.924.137 7.629.219 15.259.457 22.881.26 8.373.13 16.849 1.386 25.147.252 1.686 3.186 1.706 3.425 0 1.945-14.064 1.099-28.791 1.003-42.964-.081-12.079-.054-24.171-.409-36.243-.519-17.695-1.133-35.397-2.109-53.071-.969-17.599-2.054-35.356-6.578-52.45-.669-2.525-1.515-4.995-2.375-7.459-.71-2.02-2.102-4.906-2.115-7.049 0-.089-.137-.048-.096.027z" fill="#1D1D1B"/><path d="M258.933 279.964c6.141 5.89 9.185 15.129 11.614 23.161 1.461 4.818 2.887 9.65 4.32 14.474a29767 29767 0 0 1 16.207 54.804c6.899 23.38 13.792 46.759 20.691 70.145 6.148 20.848 12.488 41.634 18.786 62.434 3.215 10.611 6.224 21.393 10.591 31.609q.165.39.328.791c.43 1.031-.259-.709-.041-.095.696 1.965 3.849 1.119 3.146-.867-.171-.491.048.492-.048-.095a12 12 0 0 0-.15-.724q-.196-.839-.382-1.678c-.437-1.918-.826-3.849-1.297-5.76-1.631-6.565-3.541-13.041-5.479-19.517-6.04-20.24-11.963-40.514-18.112-60.72-7.158-23.516-14.31-47.039-21.468-70.562-5.835-19.162-11.662-38.317-17.518-57.472-3.405-11.13-6.1-23.618-12.337-33.574-2.034-3.249-4.341-5.931-7.739-7.787-.887-.484-1.87.696-1.105 1.433z" fill="#1D1D1B"/><path d="M348.943 567.122c-.546-4.279-1.413-8.789-.669-13.075.58-3.364-.164-6.326-1.174-9.574-1.201-3.883-2.73-7.663-3.951-11.539-1.078-3.413-1.57-7.159-3.869-9.998-.492-.607-1.495-.088-1.488.614.027 3.522 1.911 6.736 2.873 10.073 1.065 3.698 1.645 7.547 2.266 11.341.525 3.187.887 6.422 2.524 9.261 2.327 4.033 2.921 8.27 3.406 12.897 0 .055.095.055.088 0zm-92.365-289.211c-.43-.369-.866-.737-1.289-1.119-.198-.178-.444.15-.219.286.485.301.962.614 1.447.922.055.034.123-.048.068-.089z" fill="#1D1D1B"/><path d="M261.397 280.845c-.867-5.016-5.043-6.886-9.54-8.291-6.449-2.02-13.205-3.024-19.92-3.665-13.109-1.256-26.409-1.071-39.566-1.392-26.846-.655-53.712-1.208-80.565-.485-14.624.396-29.241 1.174-43.797 2.614-4.756.471-4.784 7.984 0 7.486 50.103-5.261 100.737-3.398 151.003-2.395 7.097.143 14.229.164 21.285 1.023 3.869.471 7.67 1.249 11.437 2.239 2.73.716 6.264 1.733 8.462 3.575.566.478 1.33.021 1.201-.702zM96.636 285.28c-8.496-.368-16.937-.334-20.773 8.578-3.835 8.913-2.3 19.244.11 28.504 1.091 4.211 2.36 8.38 3.569 12.564 5.227 18.063 10.502 36.106 15.77 54.155 7.302 24.997 14.426 50.048 21.946 74.977 7.091 23.495 13.805 47.052 20.507 70.649 3.883 13.676 7.847 27.358 12.194 40.897.198.607.41 1.215.587 1.829.307 1.044 1.945.601 1.638-.45-3.371-11.472-6.476-23.018-9.854-34.489-6.49-22.056-13.396-43.961-19.674-66.078-7.056-24.846-14.392-49.611-21.646-74.403a34267 34267 0 0 1-17.176-58.851 3528 3528 0 0 1-4.784-16.534c-.627-2.191-1.262-4.375-1.856-6.572-2.463-9.144-4.934-24.301 3.76-31.248 4.327-3.459 10.489-2.77 15.689-3.487.02 0 .013-.034 0-.034zm55.787 296.697c.532 6.217 3.337 12.263 5.712 17.975 2.607 6.258 5.507 12.399 8.612 18.425 7.199 13.982 15.688 26.996 24.676 39.88 19.203 27.521 38.76 54.859 58.735 81.834 5.541 7.479 11.13 14.931 16.882 22.254 3.194 4.06 8.271 9.819 14.058 8.632.71-.143.532-1.242-.171-1.242-7.274.014-12.283-8.087-16.166-13.13a1231 1231 0 0 1-14.679-19.503c-9.533-12.925-18.868-25.986-28.122-39.109-9.144-12.972-19.039-25.378-28.272-38.283-8.516-11.908-16.002-24.682-22.929-37.573-3.664-6.824-7.09-13.785-10.14-20.902-2.73-6.367-4.497-13.239-7.623-19.408-.136-.266-.6-.15-.573.157z" fill="#1D1D1B"/><path d="M342.691 715.014c.505 6.803.54 14.487-2.613 20.717-3.917 7.739-10.932 11.588-18.289 15.477-7.356 3.89-14.555 7.5-21.816 11.281-3.951 2.054-7.848 4.312-12.058 5.8-3.761 1.331-8.708 2.818-12.304.28-.71-.505-1.358.546-.874 1.133 4.914 5.868 14.993.853 20.377-1.891a598 598 0 0 0 27.078-14.671c7.363-4.245 14.617-8.653 18.869-16.303 3.596-6.462 3.794-14.638 3.261-21.823-.075-1.038-1.706-1.051-1.631 0" fill="#1D1D1B"/><path d="M331.138 530.053c3.331 8.967 3.986 19.456 4.914 28.866 2.436 24.669 3.282 49.482 4.019 74.253.355 11.908.71 23.816 1.024 35.724.396 14.965.341 30.019 1.385 44.957.055.758 1.16.771 1.181 0 .457-13.464-.103-27.01-.389-40.48-.239-11.137-.478-22.281-.86-33.411-.56-16.18-1.208-32.36-2.177-48.526-.955-16.03-1.931-32.278-5.466-47.994-1.01-4.49-2.771-8.885-3.61-13.402 0-.021-.041-.014-.034.007z" fill="#1D1D1B"/><path d="M257.33 298.752c5.472 5.213 8.434 13.989 10.741 20.997.245.751.464 1.508.689 2.266 1.303 4.36 2.566 8.728 3.842 13.095 4.886 16.747 9.745 33.5 14.603 50.253 11.97 41.258 23.919 82.523 36.004 123.741 3.03 10.325 6.046 20.902 9.499 30.981.226.655 1.276.375 1.051-.286-2.88-8.408-4.777-17.279-7.267-25.809-5.514-18.896-10.974-37.799-16.515-56.688l-19.387-66.125a36929 36929 0 0 0-15.586-53.051c-3.18-10.795-5.848-22.041-11.239-32.004-1.584-2.921-3.371-5.733-6.012-7.807-.301-.232-.724.15-.43.43zm-11.649-11.404c-6.299-2.129-13.014-2.408-19.613-2.709-6.919-.314-13.839-.498-20.765-.689-13.662-.375-27.324-.744-40.986-.928-26.852-.369-53.773-.143-80.517 2.47-1.583.157-1.597 2.655 0 2.498 26.525-2.661 53.235-2.982 79.876-2.689 13.457.15 26.914.471 40.371.812 6.906.178 13.812.273 20.711.437s13.901.921 20.861 1.269c.28.014.307-.389.062-.471M75.249 272.069c-6.346-.335-11 2.361-14.085 7.766-3.084 5.404-4.531 11.676-3.364 17.674.054.266.47.205.47-.061-.006-5.821.779-11.308 3.924-16.358 1.372-2.197 3.16-4.647 5.542-5.848s5.172-1.631 7.608-2.812c.185-.088.082-.348-.095-.354z" fill="#1D1D1B"/><path d="M71.346 270.547c-4.402-1.44-9.417 1.904-12.563 4.722-1.624 1.461-2.84 3.262-4.347 4.832-1.788 1.863-3.945 3.391-5.958 5.015-8.625 6.947-17.087 14.106-24.519 22.356-3.009 3.344 1.932 8.312 4.955 4.954 6.878-7.643 14.583-14.398 22.533-20.888 3.548-2.9 6.947-5.589 9.936-9.069 1.474-1.72 3.043-3.208 5.015-4.354 1.973-1.146 4.34-1.904 5.992-3.555 1.324-1.324.635-3.453-1.058-4.006z" fill="#1D1D1B"/><path d="M29.016 306.913c-2.354-1.665-5.2 4.169-5.739 5.821-1.7 5.2-.73 11.539.362 16.773 1.153 5.521 3.268 10.714 4.879 16.099 1.27 4.251 2.409 8.543 3.59 12.815 5.247 18.93 10.713 37.799 16.063 56.701 7.18 25.359 14.345 50.724 21.517 76.089 6.51 23.018 13.02 46.042 19.55 69.053 3.324 11.71 6.647 24.744 11.506 35.226.102.218.184.45.28.668.573 1.338-.184-.545.034.069.757 2.143 4.19 1.221 3.426-.942-.253-.71.232 1.406 0 .184a14 14 0 0 1-.164-.962c-.075-.56-.225-1.119-.328-1.679-.245-1.33-.58-4.019-.955-6.005-1.29-6.844-3.446-13.668-5.35-20.363-6.08-21.393-12.133-42.794-18.186-64.194-7.084-25.058-14.167-50.109-21.257-75.167-5.787-20.459-11.574-40.924-17.395-61.376-1.685-5.93-3.426-11.84-5.193-17.75-2.245-7.533-5.52-14.815-6.858-22.58a38.4 38.4 0 0 1-.526-8.339c.069-1.393.26-2.819.24-4.218 0-.43-.588-4.913 0-4.695.757.287 1.098-.819.518-1.228zm80.367 306.892c-.805 1.924.382 3.61.997 5.521.777 2.415 1.248 4.674 2.265 7.008 1.986 4.545 4.306 8.905 6.701 13.239 4.982 9.035 10.475 17.736 16.16 26.334 11.362 17.183 23.761 33.479 36.399 49.734 2.382 3.064 7.787-1.044 5.426-4.183-12.277-16.337-24.826-32.592-36.38-49.448a452 452 0 0 1-16.282-25.549c-2.511-4.251-4.906-8.571-7.418-12.822-1.283-2.177-2.893-3.958-4.285-6.067-1.078-1.638-1.454-3.303-3.358-3.903-.109-.035-.197.04-.238.136z" fill="#1D1D1B"/><path d="M283.732 786.216c-2.457-.062-4.872-.526-7.322-.533s-4.893.123-7.343.089c-4.92-.068-9.813-.457-14.719-.73-4.02-.225-8.114-.294-12.106-.778.825.102-.144-.014-.54-.143-1.344-.437-1.112-.335-2.504-1.086a31 31 0 0 1-4.04-2.62c-12.536-9.547-22.669-22.929-32.353-35.178-5.009-6.333-9.881-12.775-14.665-19.278-5.657-7.684-10.707-16.549-17.62-23.161-2.019-1.931-4.776.491-3.691 2.852 3.801 8.292 10.393 15.6 15.9 22.827a800 800 0 0 0 13.675 17.456c6.865 8.489 13.942 16.828 21.517 24.69 4.381 4.544 8.939 8.98 13.955 12.829 2.504 1.917 5.104 3.978 8.114 5.043 3.637 1.289 7.902 1.139 11.682 1.508 5.344.519 10.694.744 16.058.723 2.668-.013 5.35-.061 8.018-.252 2.873-.205 5.534-1.16 8.312-1.891 1.323-.348 1.023-2.32-.321-2.354z" fill="#1D1D1B"/><path d="M268.534 788.303c.328-2.197.389-4.285.191-6.51-.082-.942-1.303-1.385-1.835-.498-1.365 2.266-2.866 4.429-5.139 5.848l.764.587c.84-3.815 1.816-7.629 2.45-11.485.28-1.713-1.699-2.525-2.729-1.153-2.662 3.528-5.33 7.056-7.991 10.584l2.675 1.126c.894-5.302 1.781-10.605 2.675-15.907.245-1.453-1.863-2.682-2.6-1.099-1.263 2.71-2.327 5.719-3.924 8.217a31.8 31.8 0 0 1-6.619 7.424l2.292 1.338c1.01-3.569 1.236-7.398 2.02-11.028.847-3.924 2-7.745 3.679-11.396.866-1.884-1.522-3.242-2.751-1.611-5.07 6.722-9.997 13.526-14.862 20.397l2.149 1.256c4.743-9.185 7.486-18.95 9.888-28.948.573-2.395-2.607-3.719-3.937-1.658-5.084 7.861-9.684 16.221-16.132 23.065l2.101 1.625c5.071-10.428 8.708-21.373 10.612-32.817.266-1.611-1.754-3.331-3.071-1.788-6.79 7.963-12.659 16.603-18.029 25.583l2.095.88c2.17-6.107 4.708-12.044 6.885-18.131s1.59-12.031 3.883-17.77c.867-2.163-2.832-3.746-3.794-1.597-2.19 4.873-3.351 9.711-6.619 14.065-3.269 4.36-6.483 8.762-10.066 12.883l2.279 1.754c3.099-5.985 6.108-12.351 7.241-19.046s-.669-13.6 2.388-19.524c1.379-2.675-2.375-4.865-4.026-2.354-3.228 4.914-5.562 10.045-8.141 15.313-2.58 5.269-5.657 10.093-8.353 15.177l2.859 1.208c1.14-5.05 2.655-9.977 4.006-14.965 1.351-4.989 2.095-10.052 2.73-15.191.45-3.65-5.541-3.773-5.821 0-.737 9.895-1.972 19.599-3.931 29.33-.327 1.638 2.02 2.887 2.86 1.208 2.559-5.111 5.008-10.516 8.147-15.299 3.187-4.859 6.688-9.418 9.677-14.413l-4.026-2.354c-2.675 5.773-1.74 11.662-1.843 17.818-.129 7.724-2.832 14.835-6.257 21.652-.696 1.386 1.146 3.085 2.279 1.754 3.398-3.999 6.797-8.168 9.349-12.775 1.358-2.449 2.525-4.947 4.244-7.178 1.72-2.232 3.385-4.416 4.627-6.947l-3.582-2.095c-2.239 5.084-3.078 10.836-3.61 16.343-.314 3.235-.635 6.517-1.393 9.69-.873 3.651-2.593 7.145-4.06 10.591-.566 1.338 1.126 2.403 1.979 1.154 5.753-8.401 12.12-16.337 18.65-24.144l-3.07-1.788c-1.754 11.171-4.811 22.09-9.39 32.442-.56 1.269 1.016 2.866 2.101 1.624 6.435-7.35 13.171-14.201 17.955-22.786l-3.938-1.658c-1.726 10.018-2.641 19.913-7.882 28.839-.689 1.18 1.051 2.641 1.952 1.508 5.316-6.701 10.55-13.437 15.661-20.295l-2.75-1.61c-3.228 7.117-5.582 15.818-5.637 23.672-.006 1.461 1.802 1.734 2.559.69 3.733-5.139 8.135-10.114 10.851-15.866l-2.6-1.099c-.915 5.295-1.836 10.591-2.75 15.886-.294 1.686 1.665 2.45 2.675 1.126 2.682-3.514 5.363-7.035 8.045-10.55l-2.784-.757c-.362 3.896-.375 7.834-.532 11.744-.021.471.566.655.887.369 2.054-1.863 4.204-3.385 6.06-5.467l-1.686-.696c-.184 1.918-.587 3.426-1.337 5.194-1.038 2.449 2.784 3.569 3.118 1.317z" fill="#1D1D1B"/><path d="M277.502 501.256c2.299 3.563-.198 8.333 3.118 11.697 1.126 1.139 2.641 1.679 4.231 1.392 1.993-.369 3.194-2.081 5.036-2.723 2.061-.716 1.174-4.019-.907-3.289-1.386.484-2.334 1.324-3.556 2.074-1.767 1.092-2.886.069-3.364-1.835-.778-3.119.253-6.149-1.61-9.035-1.188-1.836-4.143-.13-2.948 1.719m13.566-15.696c-.314 6.081 1.447 11.622 3.05 17.456 1.604 5.835 3.351 12.147 5.275 18.111.785 2.43 4.32 1.44 3.808-1.05-1.249-6.122-3.084-12.236-4.859-18.221s-3.159-11.396-6.38-16.535c-.259-.409-.867-.232-.894.239" fill="#000"/><path d="M300.15 518.678c-4.354 1.187-8.878 1.924-13.287 2.852-10.133 2.143-20.267 4.252-30.38 6.469-22.615 4.962-45.237 9.909-67.846 14.891-5.466 1.207-10.904 2.634-16.295 4.149-2.136.6-1.229 3.937.921 3.33-.512.143.703-.144 1.174-.232.914-.164 1.822-.335 2.736-.505 3.16-.573 6.34-1.085 9.486-1.727 10.14-2.074 20.233-4.401 30.346-6.599 22.629-4.906 45.264-9.772 67.838-14.903 5.446-1.236 11.028-2.232 16.399-3.781 2.525-.73 1.46-4.64-1.092-3.951z" fill="#000"/><path d="M172.772 549.263c.198-6.524-1.802-12.495-3.617-18.725s-3.623-13.061-5.889-19.353c-.86-2.382-4.204-1.44-3.767 1.037 1.147 6.544 3.467 13.143 5.432 19.483s3.61 12.222 6.954 17.797c.245.416.88.232.894-.239z" fill="#000"/><path d="M162.556 513.737c4.408-1.187 9.055-1.788 13.532-2.641 10.202-1.945 20.404-3.856 30.592-5.876 22.752-4.517 45.503-9.007 68.248-13.552 5.548-1.106 11.116-2.368 16.569-3.883 2.143-.594 1.228-3.931-.921-3.33.511-.144-.696.136-1.174.211-.915.15-1.829.307-2.743.458-3.242.532-6.497.982-9.725 1.583-10.202 1.897-20.37 4.012-30.558 6.005-22.758 4.463-45.53 8.871-68.248 13.566-5.513 1.14-11.246 1.966-16.671 3.515-2.532.723-1.467 4.633 1.092 3.951zm23.858 5.371c-1.659-2.819-5.003-2.286-6.941-.028-2.19 2.56-2.572 6.497-1.678 9.65 2.02 7.117 10.659 11.007 16.002 4.742 1.42-1.658-.982-4.087-2.416-2.415-2.64 3.098-6.619 2.716-8.966-.533-.928-1.276-1.454-2.729-1.597-4.299-.068-.805-.048-1.535.123-2.327.061-.293 1.59-4.667 2.525-3.077 1.112 1.89 4.06.177 2.948-1.72zm9.745-3.167c-4.102 1.624-5.548 5.937-4.088 9.998 1.276 3.555 4.442 7.683 8.714 6.789 3.842-.805 6.019-4.585 5.432-8.345-.73-4.661-4.606-7.398-8.666-9.104-2.02-.846-2.907 2.45-.908 3.289 3.235 1.358 9.26 6.299 5.057 10.011-4.204 3.713-10.066-7.199-4.634-9.349 2.02-.798 1.14-4.101-.907-3.289m16.882 11.532c-2.034-4.312-3.03-8.796-3.085-13.559l-2.566 1.474q4.21 3.132 8.408 6.264c2.347 1.747 4.415 3.365 7.431 3.385 1.331.007 2.081-1.447 1.474-2.566-1.904-3.521-2.702-7.199-2.518-11.184.082-1.822-2.279-2.143-3.18-.86l-.492.696c-1.269 1.801 1.693 3.507 2.948 1.72l.492-.696-3.18-.86c-.212 4.585.805 8.871 2.989 12.904l1.474-2.566c-2.86-.013-5.548-2.798-7.691-4.388s-4.286-3.193-6.428-4.79c-1.065-.792-2.58.286-2.566 1.474.061 5.384 1.256 10.413 3.548 15.286.935 1.986 3.876.252 2.948-1.72zm13.573-14.753 11.356-1.822c2.163-.348 1.242-3.637-.908-3.289l-11.355 1.822c-2.163.348-1.242 3.637.907 3.289" fill="#000"/><path d="M229.399 511.758a47.6 47.6 0 0 0 5.084 11.846c1.126 1.884 4.081.171 2.948-1.719a44 44 0 0 1-4.736-11.035c-.587-2.115-3.876-1.214-3.289.908zm10.672-3.03c1.651 4.006 3.303 8.019 4.961 12.024.826 2 4.129 1.126 3.289-.907-1.651-4.006-3.303-8.019-4.961-12.024-.826-2-4.128-1.126-3.289.907m13.765 9.24c-1.741-3.467-3.378-6.926-4.327-10.707l-2.852 1.658c5.227 4.415 11.218 7.445 17.913 8.906 1.228.266 2.491-.792 2.102-2.102a160 160 0 0 0-4.081-11.895c-.785-2.026-4.088-1.146-3.289.908a156 156 0 0 1 4.08 11.894l2.102-2.101c-6.114-1.338-11.621-3.986-16.405-8.026-1.269-1.071-3.289-.075-2.852 1.659 1.017 4.067 2.798 7.793 4.667 11.519.983 1.965 3.931.239 2.948-1.72zm11.757-13.662c.86 4.607 4.872 15.048 11.382 10.892.485-.307.887-.867.847-1.474-.314-4.197-1.324-8.141-3.037-11.99-.894-2-3.835-.266-2.948 1.719a30.8 30.8 0 0 1 2.573 10.264l.846-1.474c-3.644 2.327-5.958-6.647-6.374-8.851s-3.692-1.242-3.289.908zm15.382 5.214c2.041-.833 4.088-1.665 6.128-2.491.86-.348 1.447-1.133 1.195-2.102-.212-.812-1.249-1.535-2.102-1.194-2.041.833-4.088 1.665-6.128 2.491-.86.348-1.447 1.133-1.194 2.102.211.812 1.248 1.535 2.101 1.194m-1.14-7.302a96 96 0 0 0 6.852-3.262c1.945-1.024.218-3.972-1.72-2.948a94 94 0 0 1-6.851 3.262c-.853.368-1.024 1.603-.614 2.333.505.881 1.494.976 2.333.615M120.104 355.787c4.074 10.768 8.639 21.298 13.17 31.882.11.246.478.45.737.423 3.242-.314 6.517-.491 9.766-.259 3.494.252 6.858 1.215 10.318 1.672 2.6.341 4.947.102 7.479-.492 1.754-.409 5.125-.634 6.503-1.856 1.024-.907.86-1.849.56-3.071-.826-3.296-2.477-6.585-3.692-9.758-2.525-6.599-5.289-13.095-7.67-19.749-.294-.826-.942-1.351-1.829-1.392-5.473-.253-11.001-.096-16.48.007-2.675.048-5.35.109-8.025.17-3.058.075-6.77 1.106-9.704.471-2.655-.573-2.539 3.753 0 3.098 2.886-.737 6.087.157 9.035.144s5.793-.007 8.694 0c5.486.013 11 .136 16.48-.103l-1.638-.941c3.624 7.861 6.667 15.995 9.861 24.041.402 1.01.798 2.02 1.201 3.03.218.559.744 2.75 1.515 1.399-.375.655-4.743 1.283-5.63 1.521-4.142 1.12-7.698.417-11.86-.088-3.747-.458-7.514-.266-11.26.095-2.354.232-3.091.26-4.04-2.047q-1.24-3.021-2.47-6.053a505 505 0 0 0-9.806-22.676c-.314-.683-1.495-.198-1.229.518zm85.172 6.121c-.43-2.19-1.174-4.237-2.061-6.285-.13-.3-.546-.505-.86-.491-5.95.252-11.887-.587-17.845-.744-3.112-.082-6.223-.341-9.328-.293-1.488.027-2.976.061-4.457.157-.607.041-2.156.505-2.756.368-2.655-.621-2.532 3.794 0 3.098.648-.177 2.088.232 2.756.26a109 109 0 0 0 4.457.068c3.111.013 6.21-.253 9.328-.321 5.958-.13 11.901-.873 17.845-.607l-.955-.73c.703 2.108 1.522 4.115 2.648 6.032.402.682 1.371.212 1.228-.519z" fill="#000"/><path d="M166.829 356.558c1.692 5.173 3.616 10.175 5.691 15.211s3.637 10.032 5.432 15.081c.191.533.696 1.051 1.317 1.004 4.558-.355 9.171-1.631 13.75-1.42 2.409.109 4.764.771 7.179.799 2.286.027 4.736-.812 6.988-.54 2.252.273 7.254 2.635 7.746-1.419.252-2.088-1.393-4.709-2.116-6.619-.635-1.672-1.249-3.351-1.924-5.002-.724-1.775-1.816-3.01-2.095-4.989-.314-2.224-4.293-.86-2.941 1.242 1.351 2.102 1.924 6.019 2.791 8.517.682 1.986 2.265 4.736 2.32 6.851l.982-1.713c-.859.642-4.804-.443-6.196-.218-3.542.573-6.933.409-10.488 0-5.535-.635-10.933 1.051-16.365 1.815l1.543.628c-4.231-9.875-7.916-20.001-12.4-29.76-.314-.689-1.46-.205-1.228.519zm92.697 27.761c-2.791-9.267-4.968-18.671-8.189-27.815-.122-.348-.45-.676-.853-.649-4.695.321-9.43.137-14.112-.334-5.479-.559-10.836-2.948-16.343-1.74-1.884.409-5.733.505-6.9 2.266-1.166 1.76.86 5.288 1.433 6.94 2.689 7.765 5.61 15.436 8.148 23.256.267.812 1.024 1.495 1.918 1.46 4.9-.177 9.806-.293 14.706-.484 2.402-.096 4.797-.191 7.199-.307 2.593-.123 5.378-1.174 7.944-.676 2.777.539 2.402-3.855 0-3.098s-4.907.096-7.357.068c-2.586-.027-5.193.11-7.786.157-4.907.082-9.806.205-14.706.362l1.72.99c-1.863-4.347-3.542-8.722-5.139-13.171-.832-2.306-1.699-4.599-2.552-6.906-.553-1.501-1.16-5.275-2.307-6.312q-.102-1.261-1.064-.137l1.269-.32c1.058-.137 2.136-.54 3.166-.792 2.15-.532 4.054-.826 6.251-.519 2.969.41 5.801 1.215 8.81 1.304s5.78.013 8.66-.075c1.365-.041 2.723-.062 4.088-.075.416 0 1.228-.144 1.651-.034.969.259.382-.021.874.58 1.139 1.398 1.419 4.619 1.91 6.38.649 2.32 1.242 4.654 1.904 6.974a149 149 0 0 0 4.354 13.075c.307.792 1.549.485 1.297-.355zm-98.962 52.586c3.193-.11 6.36.129 9.478.812 1.87.409 3.494.812 5.426.546 2.217-.308 4.374-1.27 6.482-1.979.949-.321 2.853-.587 3.283-1.761.477-1.331-.949-3.433-1.399-4.559a217 217 0 0 1-2.935-7.84 657 657 0 0 0-6.291-17.115c-.239-.621-.771-1.16-1.488-1.133-11 .437-22.014 1.488-33.008 1.747-1.153.027-2.034 1.119-1.72 2.259 1.474 5.377 3.249 10.659 5.043 15.941 1.181 3.473 2.088 7.261 3.651 10.577.58 1.235 1.358 2.354 1.699 3.706.239.941-.129.586.178 1.521.641 1.959 3.746 1.119 3.098-.853-.294-.887-.382-.477-.744-1.276-.525-1.174-.635-2.511-.846-3.76-.642-3.699-2.157-7.37-3.282-10.953-1.679-5.322-3.365-10.638-5.357-15.852l-1.72 2.259c10.912-1.338 22.035-1.508 33.008-2.232l-1.331-.764c1.822 4.19 3.569 8.407 5.473 12.563a267 267 0 0 1 2.607 5.896c.949 2.218 2.566 5.139 2.969 7.568.218 1.324.641 1.345-.84 2.054-.826.389-1.822.553-2.702.819-2 .608-4.033 1.331-6.156 1.153-1.835-.15-3.603-.812-5.438-1.016-2.382-.267-4.757.061-7.125.327-.839.096-.88 1.372 0 1.345zm69.244-6.135c-3.085-9.302-6.572-18.405-10.08-27.563-.122-.327-.45-.696-.846-.648-3.275.416-6.483.737-9.792.43-2.348-.219-4.613-.492-6.981-.403-5.255.191-10.107.928-15.157 2.375-1.33.382-2.9.594-3.241 2.156-.519 2.368 1.754 5.855 2.566 8.025 2.634 7.063 5.582 14.01 8.073 21.121.259.751.948 1.406 1.794 1.365 5.385-.246 10.755-1.167 16.064-2.054 2.771-.464 5.541-.949 8.312-1.399s5.698-1.808 8.585-1.426c2.306.307 1.876-4.027-.43-3.16-2.587.976-5.378.478-8.066.853s-5.541.799-8.312 1.208c-5.548.812-11.103 1.549-16.651 2.327l2.102.853c-3.63-7.916-6.619-16.187-9.779-24.307-.13-.328-1.378-3.235-1.378-2.286-.58.279-.539.307.129.068.355-.103.71-.212 1.065-.314 1.754-.519 3.501-1.133 5.268-1.576 2.777-.69 5.746-.894 8.585-1.181s5.309-.232 8.052-.218c1.938.006 3.883-.178 5.814-.348 2.327-.212 2.846-.137 3.685 2.17 2.962 8.175 5.985 16.261 9.329 24.287.321.771 1.576.484 1.296-.355zm-.779-27.856c2.955 9.206 6.388 18.186 9.8 27.235.177.471.559.682 1.057.6 9.336-1.501 19.886 2.041 28.668-2.838 1.092-.608 1.427-1.263 1.365-2.484-.116-2.382-1.549-5.18-2.197-7.5-1.645-5.896-3.412-11.737-5.152-17.606-.225-.764-.942-1.338-1.754-1.338-4.954.007-9.909.314-14.856.615-2.634.163-5.261.341-7.889.525-2.627.184-5.439 1.351-7.909.86-2.852-.567-2.313 3.937 0 3.098 2.47-.894 5.323-.13 7.909-.252 2.587-.123 5.262-.219 7.889-.328 4.954-.205 9.922-.362 14.856-.887l-1.754-1.338c1.945 4.716 3.167 9.656 4.593 14.542a267 267 0 0 0 2.19 7.207c.198.621.41 1.242.621 1.856.362.648.335.791-.068.43-.341.416-2.859 1.003-3.378 1.18-3.562 1.229-7.356 1.44-11.109 1.495-4.272.061-8.271.471-12.495 1.078l1.057.6c-3.255-9.116-6.455-18.193-10.161-27.132-.32-.771-1.569-.491-1.296.355zm-28.142 78.095c-3.303-9.186-6.96-18.18-10.659-27.222-.198-.477-.573-.716-1.099-.621-6.121 1.092-11.799 1.611-17.981.846-5.821-.716-12.024-.32-17.347 2.484-1.174.621-1.658 1.413-1.426 2.791.518 3.078 2.197 6.333 3.009 9.39 1.802 6.763 3.46 13.437 5.883 20.015.245.669.887 1.358 1.678 1.283 6.169-.614 12.229-1.788 18.296-3.016 3.234-.655 6.455-1.344 9.69-1.999 3.023-.615 6.128-2.177 9.247-1.959 2.443.171 1.726-4.053-.43-3.159-2.785 1.16-5.89.825-8.824 1.358-3.228.586-6.456 1.187-9.683 1.781-6.258 1.16-12.509 2.381-18.76 3.569l1.972.798c-2.559-5.418-3.705-11.519-5.275-17.278-.818-2.996-1.671-5.985-2.743-8.906l-.402-1.071q-1.045-1.258-.103-1.031c.362-.614 3.699-1.31 4.436-1.562 5.07-1.747 9.956-.772 15.197-.847 4.681-.068 9.424-1.01 14.03-1.76l-1.098-.621c3.589 9.158 7.179 18.268 11.157 27.262.307.689 1.488.198 1.228-.519zm36.865-12.843c-.799-3.378-2.034-6.49-3.337-9.697s-2.123-6.537-3.201-9.833c-.184-.567-.73-1.079-1.371-1.045-5.037.28-10.025 1.058-15.048 1.399-2.579.178-5.09.335-7.663.696-2.095.294-5.118 1.44-7.193 1.27-2.347-.198-1.842 3.965.43 3.159 1.918-.682 4.989-.314 7.029-.532 2.662-.287 5.227-.751 7.861-1.187 4.955-.826 9.998-1.215 14.966-2.014l-1.604-.655c1.549 3.488 3.221 6.818 4.449 10.448.997 2.941 2.054 5.746 3.453 8.517.355.696 1.399.204 1.229-.519z" fill="#000"/><path d="M199.229 452.935c1.385 4.682 3.303 9.035 5.125 13.566s2.927 9.07 4.586 13.539c.314.84 1.03 1.27 1.924 1.092 7.363-1.467 14.699-1.31 22.055-2.477 1.55-.246 3.058-.512 4.614-.682.846-.096 1.972-.123 2.688-.649 1.774-1.296-.027-2.101.26-3.528.743-3.691-5.125-1.337-2.689.71l.307.846 1.917-1.092c-3.964-.723-9.076.492-13.047 1.324-2.668.56-5.262.41-7.943.751-3.037.382-6.006 1.133-8.995 1.774l1.925 1.092c-1.931-4.647-4.368-9.083-6.155-13.785-1.679-4.415-3.242-8.775-5.351-13.006-.341-.683-1.439-.205-1.228.518zm40.658-3.76c2.948 8.816 8.653 16.193 12.038 24.805.177.457.566.71 1.064.607 3.098-.668 6.203-1.16 9.383-.969 2.443.151 4.859.785 7.323.615 1.617-.11 3.173-.601 4.701-1.12 1.645-.559 4.163-1.119 5.521-2.176 1.119-.867 1.126-1.618.826-2.983-.56-2.545-1.536-5.063-2.198-7.595-1.467-5.575-3.118-11.048-4.742-16.569-.205-.696-.915-1.323-1.679-1.276-4.907.287-9.724 1.017-14.576 1.781-2.648.417-5.289.874-7.93 1.317-1.324.219-2.73.342-4.026.69-1.556.416-2.846 1.207-4.565.955-2.935-.423-2.314 4.115.382 2.941 2.32-1.01 5.65-.471 8.168-.826 2.648-.368 5.302-.737 7.95-1.119a745 745 0 0 0 15.061-2.313l-2.143-1.215c1.686 4.095 2.682 8.469 3.869 12.727 1.12 4.026 2.873 8.196 3.549 12.304l.403-1.529c-1.208 1.092-3.992 1.768-5.494 2.321-2.122.784-4.108 1.01-6.367.921-4.824-.178-9.158.518-13.873 1.447l1.065.607c-3.256-8.742-8.797-16.337-12.482-24.86-.3-.696-1.467-.198-1.228.518z" fill="#000"/><path d="m407.726 549.481 67.858 94.186-7.438 28.232-116.91 36.638-67.163-95.148 8.148-25.679 14.638-4.743z" fill="#99E686"/><path d="M379.944 555.712s-28.688-45.462-45.441-52.805-36.011-2.689-44.596 5.848c-8.591 8.544-12.467 22.97-7.179 35.881s23.161 39.116 23.161 39.116 20.896-6.135 20.315-6.995-22.601-29.685-23.59-36.945c-.983-7.261 2.361-17.429 9.355-19.367 6.995-1.938 16.494.225 25.482 10.4 8.98 10.181 22.847 33.042 22.847 33.042l19.646-8.182z" fill="#99E686"/><path d="M287.567 587.103c1.754 4.626 5.78 8.789 8.612 12.836a699 699 0 0 1 8.319 12.153c4.858 7.261 9.615 14.59 14.453 21.865 11.621 17.483 23.816 34.571 36.625 51.201 1.651 2.143 4.702-.15 2.961-2.286-13.382-16.446-25.651-33.588-37.382-51.242-4.845-7.295-9.704-14.576-14.692-21.776-2.818-4.06-5.678-8.1-8.585-12.099s-5.418-8.639-9.185-11.512c-.519-.396-1.358.266-1.126.866z" fill="#000"/><path d="M358.128 682.919c1.706-.375 3.35-.6 5.07-.825 3.105-.41 6.265-1.822 9.247-2.757 8.953-2.812 17.817-5.924 26.716-8.906 19.653-6.592 39.402-12.972 58.912-19.974 5.535-1.986 11.048-4.094 16.624-5.957 2.136-.717 1.221-4.115-.935-3.392-13.682 4.566-27.488 8.728-41.163 13.321-19.626 6.592-39.286 13.129-58.844 19.933-3.637 1.262-7.568 2.347-11.048 3.999-1.809.86-3.467 1.972-5.316 2.811-1.031.471-.273 1.979.737 1.754zm-76.593-68.213c1.747 4.606 5.78 8.749 8.639 12.754 2.859 4.006 5.616 7.916 8.394 11.902 4.899 7.035 9.751 14.098 14.678 21.113 11.936 16.979 24.301 33.65 36.966 50.082 1.652 2.143 4.702-.15 2.962-2.286-13.218-16.234-25.693-32.967-37.724-50.095-4.94-7.036-9.888-14.058-14.917-21.032a1115 1115 0 0 0-8.66-11.861c-2.914-3.937-5.445-8.571-9.212-11.437-.519-.395-1.358.266-1.126.867z" fill="#000"/><path d="M352.096 710.523c1.706-.375 3.35-.601 5.07-.826 3.105-.409 6.264-1.822 9.246-2.757 8.954-2.811 17.818-5.923 26.717-8.905 19.653-6.592 39.402-12.973 58.912-19.974 5.534-1.986 11.048-4.095 16.624-5.958 2.135-.716 1.221-4.115-.935-3.391-13.683 4.565-27.488 8.728-41.163 13.32-19.626 6.592-39.286 13.13-58.844 19.933-3.638 1.263-7.568 2.348-11.048 3.999-1.809.86-3.467 1.973-5.316 2.812-1.031.471-.273 1.979.737 1.754zm122.873-67.927c-1.733-4.572-5.705-8.68-8.516-12.679a723 723 0 0 1-8.046-11.696c-4.586-6.811-9.076-13.689-13.641-20.507-11.246-16.794-23.093-33.172-35.417-49.188-1.645-2.142-4.702.157-2.962 2.286 12.884 15.812 24.799 32.23 36.141 49.175 4.579 6.844 9.171 13.682 13.887 20.438a705 705 0 0 0 8.318 11.662c2.812 3.856 5.371 8.537 9.11 11.376.526.396 1.358-.266 1.126-.867" fill="#000"/><path d="M407.465 548.553c-1.706.375-3.35.601-5.07.826-3.105.409-6.264 1.822-9.247 2.757-8.953 2.811-17.817 5.923-26.716 8.905-19.653 6.592-39.402 12.973-58.912 19.974-5.534 1.986-11.048 4.095-16.624 5.958-2.136.716-1.221 4.115.935 3.391 13.683-4.565 27.488-8.728 41.163-13.32 19.626-6.593 39.286-13.13 58.844-19.934 3.637-1.262 7.568-2.347 11.048-3.998 1.809-.86 3.467-1.973 5.316-2.812 1.031-.471.273-1.979-.737-1.754zm68.371 94.234-.478.048c-1.071.109-1.774.634-2.149 1.637-2.969 7.896-5.214 16.46-6.77 24.765-.382 2.04 2.668 2.934 3.146.867 1.959-8.496 4.634-16.426 7.923-24.451.307-.751-.096-1.61-.573-2.17-.28-.321-.601-.751-1.099-.703zm-117.51 38.188c-2.716 3.767-3.303 8.182-4.252 12.693s-2.102 9.369-2.784 14.078c-.334 2.299 2.859 3.337 3.576.989 1.385-4.552 2.04-9.369 2.921-14.044.88-4.674 2.252-8.796 1.849-13.361-.062-.717-.894-.935-1.31-.355" fill="#000"/><path d="M289.273 589.177c-2.716 3.767-3.303 8.182-4.251 12.693s-2.102 9.369-2.785 14.078c-.334 2.299 2.86 3.337 3.576.989 1.385-4.551 2.041-9.369 2.921-14.044.88-4.674 2.252-8.796 1.849-13.361-.061-.717-.894-.935-1.31-.355m19.25-4.927c-3.616-6.653-8.932-12.46-13.088-18.793s-7.896-12.413-10.305-19.326c-2.088-5.978-4.142-13.17-3.719-19.551s4.183-12.447 8.947-16.815c5.002-4.592 11.259-8.209 17.961-9.526 7.295-1.426 15.211.15 22.185 2.423 12.426 4.046 21.455 12.842 28.408 23.631s12.748 23.1 21.824 32.851c1.528 1.645 3.692-.723 2.395-2.395-8.189-10.577-13.607-22.908-21.059-33.956s-17.852-19.818-31.166-23.844c-6.919-2.095-14.665-3.439-21.871-2.293-7.206 1.147-13.163 4.484-18.527 8.851-4.845 3.951-9.035 9.001-11.089 14.972-2.266 6.586-.942 13.519.607 20.124 1.883 8.005 5.125 15.491 9.888 22.199 5.323 7.5 10.359 16.33 17.21 22.54.751.676 1.904-.17 1.406-1.085z" fill="#000"/><path d="M325.774 578.327c-3.746-10.653-11.451-19.674-16.459-29.747-2.573-5.179-4.736-10.775-4.245-16.644.539-6.428 4.599-10.707 11-11.423 11.376-1.269 19.019 8.885 25.495 16.644a254 254 0 0 1 11.069 14.235 227 227 0 0 1 4.9 7.07c1.59 2.388 2.832 4.92 4.851 6.831 1.004.948 2.853.02 2.409-1.399-1.494-4.729-5.541-9.274-8.427-13.26-2.887-3.985-6.06-8.134-9.308-12.017-5.937-7.09-12.468-15.975-21.312-19.551-6.626-2.682-15.497-1.992-20.322 3.808-5.589 6.715-3.903 18.063-.846 25.495 2.265 5.486 5.527 10.331 8.905 15.177 3.569 5.118 7.343 10.741 11.922 14.999.15.143.45 0 .375-.218zm63.383 10.754a362.6 362.6 0 0 0-16.856 53.358c-.498 2.136 2.791 3.05 3.289.908a361 361 0 0 1 16.856-53.358c.819-2.034-2.477-2.921-3.289-.908" fill="#000"/><path d="M359.493 608.332a286 286 0 0 1 47.372 19.551c1.945 1.017 3.672-1.931 1.72-2.948a291.3 291.3 0 0 0-48.185-19.892c-2.101-.655-3.002 2.641-.907 3.289" fill="#000"/><path d="M371.571 597.741a456 456 0 0 0 17.586 39.416c.989 1.958 3.937.232 2.948-1.72a444 444 0 0 1-17.245-38.604c-.791-2.02-4.087-1.139-3.289.908" fill="#000"/><path d="M366.958 620.656a102.6 102.6 0 0 0 33.534-14.617c1.815-1.215.109-4.17-1.72-2.948a99.9 99.9 0 0 1-32.715 14.269c-2.136.505-1.228 3.794.908 3.289zm102.969-17.571c1.317 13.205 12.952 22.253 19.653 32.831 1.535 2.422 3.228 4.988 4.49 7.547 1.938 3.951.062 8.489-1.754 12.202-4.654 9.533-9.376 18.936-13.504 28.715-.649 1.543 1.426 2.901 2.32 1.358 5.316-9.219 10.789-18.67 14.808-28.545.853-2.109 1.686-4.34 1.911-6.619.157-1.597-.164-3.153-.157-4.763.02-3.105.245-6.115-1.072-9.022-5.834-12.884-19.858-20.042-23.932-34.073-.423-1.46-2.927-1.262-2.763.376z" fill="#000"/></g><defs><clipPath id="a"><path fill="#fff" d="M0 0h529.003v790.72H0z"/></clipPath></defs></svg>