<svg width="263" height="391" viewBox="0 0 263 391" fill="none" xmlns="http://www.w3.org/2000/svg">
    <path d="M254.903 309.375L256.541 335.722C256.541 335.722 254.399 344.211 245.613 350.331L217.942 369.083C217.942 369.083 207.719 372.467 202.579 373.696C197.438 374.926 181.584 373.918 181.584 373.918C181.584 373.918 175.522 372.33 168.291 365.573C161.059 358.816 130.641 325.398 130.641 325.398L98.0675 285.721C98.0675 285.721 82.009 266.358 73.336 241.075C64.6621 215.779 30.6049 120.581 30.6049 120.581L11.6862 67.4861C11.6862 67.4861 6.10452 53.8696 6.48349 50.2512C6.86247 46.6328 9.28422 44.7447 9.28422 44.7447L35.3123 20.1843C35.3123 20.1843 57.6927 16.7763 70.154 16.0642C82.6145 15.3398 148.093 11.7651 148.093 11.7651C148.093 11.7651 166.889 8.90554 176.258 22.4441C176.258 22.4441 182.047 30.8914 190.961 58.6135C199.874 86.3356 237.031 183.123 237.031 183.123C237.031 183.123 246.138 200.545 248.185 232.394L254.905 309.412L254.903 309.375Z" fill="#99E686"/>
    <path d="M208.463 371.49C208.463 371.49 201.838 372.962 186.347 351.406C170.857 329.85 134.456 289.038 134.456 289.038L116.048 261.507C116.048 261.507 105.723 243.628 99.666 224.452L33.4967 44.2569C33.4967 44.2569 30.6571 36.5779 33.1336 28.2907C35.6101 20.0035 39.679 21.4324 39.679 21.4324L36.3304 16.8842C36.3304 16.8842 31.7 16.9657 28.8124 20.5069C25.9248 24.0481 13.3853 36.8747 13.3853 36.8747L4.47524 45.5431L4.55828 53.9291C4.55828 53.9291 8.44852 71.1849 14.2953 82.9131C20.1421 94.6413 54.6194 195.316 54.6317 195.316C54.6441 195.315 72.5362 248.053 72.5362 248.053C72.5362 248.053 79.2538 265.527 86.4771 274.516C93.7003 283.505 133.389 333.206 133.389 333.206C133.389 333.206 159.568 364.846 168.494 369.786C168.494 369.786 175.538 377.906 182.087 377.778C188.635 377.637 197.789 378.138 197.789 378.138L209.067 376.149L208.673 372.072" fill="#99E686"/>
    <path d="M209.66 370.423L207.551 370.594L209.079 376.137C209.079 376.137 220.699 372.714 222.998 370.052C225.297 367.391 236.853 359.994 236.853 359.994L249.739 351.88C249.739 351.88 258.435 345.506 257.526 335.821C256.604 326.124 253.41 277.875 253.41 277.875C253.41 277.875 248.108 221.95 248.108 221.938C248.107 221.926 246.469 203.437 236.253 178.251C226.036 153.065 206.117 97.2699 206.117 97.2699L181.375 30.0658C181.375 30.0658 176.342 10.2173 160.544 8.93365C160.544 8.93365 119.578 10.2796 119.294 10.2976C119.01 10.3155 56.8844 13.9885 56.8844 13.9885L34.8034 17.4272L39.6909 21.4196C39.6909 21.4196 79.777 16.7331 87.0778 16.1483C94.3909 15.5629 148.658 14.0467 148.658 14.0467L159.867 14.1078C159.867 14.1078 166.254 13.9774 172.487 21.6034C178.719 29.2294 190.383 66.5573 190.383 66.5573L201.129 97.3864L219.21 146.828L236.156 193.416C236.156 193.416 239.53 204.061 240.896 209.998C242.263 215.936 247.263 256.473 247.263 256.473L252.572 310.154L253.643 332.422C253.643 332.422 252.49 341.654 248.127 347.544C243.764 353.434 226.45 362.695 226.45 362.695L209.658 370.386L209.66 370.423Z" fill="#99E686"/>
    <path d="M43.3271 15.4013C29.7563 13.6549 23.0049 22.9432 25.2327 35.8542C26.1495 41.1508 28.0685 46.2231 29.8741 51.2653C34.5999 64.4773 39.3866 77.673 44.1486 90.8702C57.7096 128.401 72.2928 165.631 84.7352 203.505C88.5564 215.15 93.4168 226.37 97.5874 237.857C98.2622 239.711 101.174 238.722 100.499 236.856C79.1563 178.15 57.9309 119.339 36.7179 60.526C35.0198 55.8117 33.3209 51.085 31.6343 46.3575C30.5677 43.4005 29.3915 40.4752 28.5686 37.4533C27.1673 32.336 26.184 25.5933 29.7392 21.0432C33.2944 16.4931 38.6367 17.0855 43.3418 15.4376C43.3665 15.436 43.3757 15.3859 43.3379 15.3759L43.3271 15.4013Z" fill="#1D1D1B"/>
    <path d="M98.5739 237.386C98.2229 242.627 101.975 248.265 104.296 252.828C107.68 259.519 111.509 265.983 115.587 272.27C124.624 286.238 136.188 298.399 146.161 311.689C156.513 325.475 168.106 338.502 179.225 351.669C184.369 357.765 189.572 363.808 194.868 369.758C198.297 373.607 202.536 378.123 208.133 376.469C208.997 376.216 208.965 374.731 208.017 374.629C199.083 373.693 193.725 364.599 188.282 358.287C183.146 352.327 178.094 346.312 173.076 340.258C163.002 328.127 153.017 316.028 142.625 304.165C133.168 293.371 125.056 281.885 117.292 269.832C113.597 264.103 110.126 258.212 107.017 252.149C104.599 247.418 103.07 240.871 99.3669 236.989C99.0487 236.662 98.6246 237.011 98.5978 237.372L98.5739 237.386Z" fill="#1D1D1B"/>
    <path d="M255.661 329.839C256.36 336.005 256.358 342.847 252.074 347.84C248.103 352.478 241.687 355.288 236.624 358.545C227.609 364.357 215.443 375.053 204.087 373.65C202.988 373.508 202.081 374.656 202.739 375.656C205.797 380.309 212.307 377.804 216.425 375.883C223.926 372.385 230.896 366.963 237.648 362.198C243.428 358.128 251.23 353.508 255.358 347.632C258.975 342.484 259.276 335.672 258.599 329.654C258.381 327.771 255.43 327.945 255.648 329.84L255.661 329.839Z" fill="#1D1D1B"/>
    <path d="M240.611 190.358C243.56 197.212 244.051 205.387 245.032 212.675C247.59 231.8 249.37 250.973 250.856 270.203C252.446 290.876 252.959 312.162 256.431 332.605C256.665 333.966 258.53 333.861 258.566 332.47C259.124 313.422 256.848 293.846 255.118 274.879C253.984 262.42 252.777 249.965 251.311 237.539C249.845 225.113 248.376 212.439 244.437 200.504C243.305 197.092 241.598 193.816 240.684 190.329C240.682 190.292 240.608 190.309 240.623 190.345L240.611 190.358Z" fill="#1D1D1B"/>
    <path d="M170.074 13.4136C177.375 19.9062 180.315 31.3468 183.623 40.3597C188.336 53.1635 193.011 65.9696 197.699 78.7749C209.01 109.717 220.332 140.646 231.837 171.526C234.688 179.18 237.988 187.09 241.053 194.408C241.535 195.567 243.404 194.941 242.921 193.769C240.281 187.478 238.631 180.58 236.255 174.16C230.961 159.807 225.74 145.424 220.374 131.1C209.13 101.021 197.91 70.9281 186.618 40.8648C183.117 31.5419 179.817 17.5582 170.673 12.5081C170.121 12.2083 169.601 12.9972 170.061 13.4144L170.074 13.4136Z" fill="#1D1D1B"/>
    <path d="M247.63 215.547C246.649 210.019 247.105 204.685 245.234 199.387C243.483 194.428 241.641 188.806 238.773 184.401C238.375 183.794 237.54 184.305 237.691 184.94C238.828 189.789 241.035 194.322 242.187 199.22C243.545 205.022 246.416 209.674 247.568 215.551C247.57 215.588 247.632 215.584 247.63 215.547Z" fill="#1D1D1B"/>
    <path d="M168.265 12.0646C167.962 11.7862 167.66 11.5078 167.381 11.2156C167.036 10.8654 166.562 11.5895 167.018 11.759C167.399 11.8961 167.782 12.0703 168.164 12.2321C168.266 12.2752 168.369 12.1448 168.277 12.0638L168.265 12.0646Z" fill="#1D1D1B"/>
    <path d="M171.736 14.0404C168.838 6.41469 155.776 7.23903 149.049 7.09344C135.967 6.80356 122.735 7.87415 109.67 8.43846C83.8726 9.55837 58.0365 11.0402 32.5152 15.1546C29.669 15.6193 29.9302 20.1517 32.8004 19.6731C55.2832 15.9239 78.0427 14.2025 100.786 13.0026C112.076 12.4016 123.376 11.9364 134.674 11.4464C140.298 11.203 145.937 10.8099 151.566 10.8389C157.53 10.8715 165.895 10.8394 171.035 14.5185C171.359 14.7459 171.901 14.4886 171.737 14.0528L171.736 14.0404Z" fill="#1D1D1B"/>
    <path d="M53.7394 24.6474C48.7777 24.3904 43.2885 24.6129 40.2634 29.1172C37.2383 33.6214 37.4034 39.9695 38.2853 44.9089C39.1672 49.8483 40.9037 54.1884 42.5276 58.7091C46.9056 70.9266 51.3205 83.1418 55.7347 95.3447C68.3921 130.342 81.6212 165.166 93.6592 200.363C97.307 211.028 101.547 221.457 105.4 232.035C105.805 233.149 107.553 232.556 107.147 231.429C87.3492 176.976 67.635 122.469 47.9693 67.9467C46.3902 63.5471 44.7996 59.1606 43.2328 54.7603C42.2689 52.0571 41.231 49.3586 40.4862 46.592C39.2828 42.0571 38.7736 37.1314 40.2346 32.5895C42.3364 26.024 48.1059 26.1185 53.7664 24.6829C53.7911 24.6814 53.7764 24.6451 53.7641 24.6459L53.7394 24.6474Z" fill="#1D1D1B"/>
    <path d="M107.181 235.121C107.714 240.218 110.627 245.141 112.919 249.645C116.216 256.117 119.933 262.377 123.899 268.461C132.244 281.283 142.585 292.74 151.972 304.79C161.872 317.502 172.332 329.844 182.68 342.193C187.276 347.666 191.897 353.126 196.646 358.453C199.487 361.645 203.307 366.003 208.059 365.096C208.781 364.951 208.734 363.999 207.987 363.947C200.298 363.491 194.551 353.739 190.082 348.518C185.612 343.297 180.946 337.704 176.437 332.237C167.403 321.28 158.642 310.108 149.279 299.42C139.915 288.732 132.159 278.177 124.676 266.639C121.272 261.401 118.069 256.025 115.178 250.481C112.569 245.465 110.825 239.638 107.691 234.952C107.541 234.726 107.152 234.85 107.181 235.121Z" fill="#1D1D1B"/>
    <path d="M249.54 322.009C250.177 327.001 250.594 332.429 248.539 337.169C245.822 343.426 240.046 346.369 234.529 349.679C230.003 352.407 225.439 355.1 220.885 357.779C215.818 360.764 210.177 365.061 204.035 363.181C203.415 362.984 202.777 363.88 203.231 364.384C206.251 367.862 211.071 366.058 214.743 364.339C221.714 361.086 228.309 356.195 234.779 352.068C240.2 348.615 245.832 344.95 249.103 339.241C252.118 333.981 252.048 327.763 251.306 321.898C251.16 320.767 249.394 320.878 249.54 322.009Z" fill="#1D1D1B"/>
    <path d="M233.16 189.737C235.74 196.255 236.691 203.471 237.757 210.344C240.476 227.885 242.236 245.56 243.859 263.232C245.621 282.506 246.654 302.012 249.425 321.172C249.538 321.983 250.725 321.933 250.709 321.091C250.161 291.788 246.438 262.065 242.768 232.983C241.336 221.683 239.906 210.209 236.552 199.29C235.554 196.056 234.169 192.958 233.196 189.722C233.195 189.698 233.158 189.712 233.159 189.725L233.16 189.737Z" fill="#1D1D1B"/>
    <path d="M169.637 27.1253C176.315 33.5581 179.115 44.3383 182.225 52.9671C186.536 64.9038 190.822 76.8544 195.108 88.7926C205.455 117.614 215.79 146.449 226.257 175.226C228.912 182.52 231.649 189.759 234.581 196.936C234.873 197.637 235.989 197.256 235.697 196.556C233.292 190.647 231.603 184.321 229.427 178.31C224.516 164.726 219.655 151.126 214.719 137.543C204.509 109.506 194.336 81.4665 184.09 53.4443C180.869 44.6367 177.894 32.2686 170.077 26.6266C169.739 26.3753 169.333 26.8223 169.637 27.1253Z" fill="#1D1D1B"/>
    <path d="M160.915 19.321C152.873 16.42 142.76 18.0003 134.374 18.2816C124.516 18.6063 114.673 18.9673 104.823 19.4277C84.6542 20.366 64.4648 21.7641 44.511 24.9322C42.8051 25.201 42.9642 27.9178 44.6816 27.6359C63.8692 24.5037 83.2839 23.0058 102.68 22.0047C112.551 21.4933 122.418 21.1061 132.285 20.7313C141.633 20.3768 151.558 20.9155 160.809 19.8111C161.043 19.7839 161.169 19.4166 160.915 19.321Z" fill="#1D1D1B"/>
    <path d="M37.8822 15.9432C27.6563 12.7958 23.7976 28.2476 26.1877 35.2856C26.3547 35.7709 27.0251 35.5922 27.0325 35.1208C27.1554 30.3906 27.6829 25.982 30.6458 22.0642C32.6597 19.4086 35.9125 18.9059 38.0793 16.5133C38.2644 16.3033 38.1346 16.014 37.8946 15.9424L37.8822 15.9432Z" fill="#1D1D1B"/>
    <path d="M35.5716 16.4492L34.9122 15.8215C34.4366 15.3557 33.7259 15.289 33.1049 15.4645C27.1289 17.2051 24.3412 22.5248 19.9824 26.5183C13.9247 32.0692 8.04842 37.745 2.88785 44.1565C1.18694 46.2717 4.35153 49.0839 6.06401 46.9555C11.4528 40.2322 17.6578 34.4613 23.8912 28.5523C26.6512 25.9363 28.653 22.5006 31.827 20.3543C33.6341 19.1371 35.1125 18.9942 35.6937 16.8133C35.7222 16.6751 35.6766 16.5417 35.5716 16.4492Z" fill="#1D1D1B"/>
    <path d="M6.04386 43.2874C3.1414 42.6649 2.35893 48.924 2.32844 50.7975C2.22 57.7206 5.24162 63.9627 7.64675 70.2562C8.56644 72.6523 9.3658 75.1055 10.213 77.531C14.7666 90.5679 19.3934 103.588 23.9833 116.61C36.2432 151.397 48.4792 186.197 60.7638 220.982C63.9174 229.905 67.6647 239.2 71.1699 247.606C71.6962 248.874 73.7352 248.188 73.1958 246.908C70.6982 240.918 69.1031 232.925 66.7958 226.414C61.4717 211.381 56.1838 196.333 50.8844 181.298C39.6185 149.3 28.3773 117.299 17.0504 85.3172C15.452 80.8072 13.8296 76.3112 12.171 71.8298C11.8278 70.9095 11.4962 69.976 11.1415 69.0688C10.0379 66.3125 8.72995 63.6558 7.75907 60.8415C7.37953 59.7376 4.17472 44.1118 5.95948 44.1108C6.43017 44.1058 6.45983 43.3975 6.02073 43.3136L6.04386 43.2874Z" fill="#1D1D1B"/>
    <path d="M77.7984 259.941C80.3582 273.005 91.2278 285.371 99.07 295.721C108.047 307.561 117.714 318.739 127.539 329.869C129.088 331.63 132.203 328.942 130.652 327.144C121.125 316.032 111.466 304.978 102.447 293.45C98.0652 287.852 93.8594 282.093 89.8565 276.211C86.0984 270.672 82.8345 264.519 77.9905 259.843C77.9241 259.772 77.7791 259.831 77.7984 259.941Z" fill="#1D1D1B"/>
    <path d="M210.749 375.907C202.357 376.3 193.959 376.582 185.529 376.557C183.359 376.545 181.492 376.811 179.493 376.157C176.026 375.037 172.938 372.257 170.227 369.962C164.283 364.933 158.856 359.276 153.574 353.549C148.997 348.582 144.547 343.484 140.181 338.318C135.372 332.622 130.99 326.243 125.492 321.211C124.268 320.086 122.574 321.717 123.378 323.067C127.484 329.997 133.543 336.047 138.845 342.096C143.119 346.97 147.464 351.79 151.961 356.476C157.68 362.437 163.57 368.374 170.112 373.439C172.718 375.456 175.67 377.848 178.86 378.899C181.075 379.627 183.384 379.481 185.719 379.557C194.315 379.857 202.775 379.782 211.035 377.302C211.826 377.066 211.563 375.856 210.748 375.895L210.749 375.907Z" fill="#1D1D1B"/>
    <path d="M199.914 377.632C200.069 376.172 200.015 374.725 199.75 373.279C199.67 372.59 198.791 372.41 198.445 373.014C194.81 379.453 196.374 372.612 196.783 369.463C196.942 368.25 195.475 367.798 194.831 368.78C193.077 371.432 191.323 374.083 189.569 376.735L191.483 377.408C191.885 373.565 192.287 369.709 192.676 365.867C192.785 364.844 191.275 364.096 190.813 365.216C189.021 369.618 187.459 373.534 183.942 376.929L185.593 377.754C186.367 372.14 186.71 366.777 188.663 361.386C189.147 360.029 187.47 359.18 186.678 360.383C183.341 365.44 180.105 370.54 176.923 375.699L178.472 376.481C181.372 369.593 182.963 362.601 184.235 355.257C184.525 353.566 182.27 352.791 181.422 354.282C178.087 360.157 175.166 366.315 170.874 371.569L172.414 372.6C175.531 364.83 177.62 356.889 178.533 348.564C178.659 347.429 177.164 346.321 176.318 347.452C171.829 353.499 168.008 359.938 164.526 366.615L166.021 367.14C167.27 362.773 168.773 358.501 170.022 354.134C171.271 349.766 170.861 345.243 172.11 340.864C172.557 339.311 169.944 338.36 169.398 339.919C168.21 343.291 167.419 346.675 165.607 349.777C163.538 353.328 161.089 356.743 158.631 360.021L160.288 361.144C161.953 357.283 163.62 353.249 164.336 349.076C165.252 343.751 163.561 338.181 165.441 333.005C166.137 331.077 163.595 329.676 162.535 331.54C158.475 338.7 155.47 346.661 152.052 354.165L154.092 354.879C155.286 347.478 157.061 340.45 157.529 332.934C157.689 330.371 153.523 330.547 153.479 333.19C153.372 340.323 152.936 347.354 151.957 354.431C151.794 355.582 153.49 356.342 153.997 355.145C157.313 347.387 161.599 340.473 165.428 332.993L162.386 331.933C161.106 336.005 161.749 339.51 161.953 343.723C162.242 349.679 160.754 354.768 158.483 360.229C158.075 361.221 159.422 362.339 160.14 361.351C164.683 355.165 168.777 348.151 171.983 341.219L169.271 340.274C168.163 343.728 167.841 347.268 167.573 350.88C167.137 356.733 166.469 361.076 164.526 366.615C164.189 367.566 165.408 368.233 165.947 367.331C169.714 361.045 173.923 355.065 178.234 349.141L176.02 348.029C175.195 356.175 173.51 364.04 170.737 371.751C170.41 372.652 171.567 373.707 172.277 372.782C176.546 367.17 181.016 361.992 184.109 355.612L181.296 354.637C180.494 361.963 180.192 368.96 176.923 375.699C176.506 376.543 177.768 377.492 178.348 376.662C181.858 371.607 185.307 366.543 188.663 361.386L186.678 360.383C184.698 365.937 183.849 371.717 183.7 377.614C183.679 378.656 185.058 378.705 185.508 377.983C187.926 374.075 190.816 370.372 192.579 366.096L190.716 365.446C190.302 369.289 189.875 373.134 189.461 376.977C189.337 378.163 190.729 378.608 191.375 377.65C193.142 375.01 194.908 372.357 196.675 369.717L194.703 369.309C194.695 372.123 194.774 374.944 194.84 377.766C194.849 378.1 195.263 378.185 195.474 377.986C196.924 376.618 198.292 375.317 199.571 373.774L198.381 373.179C198.375 374.655 198.105 376.085 197.56 377.458C197.1 379.011 199.844 379.47 199.914 377.632Z" fill="#1D1D1B"/>
    <path d="M145.519 98.8509C166.23 101.993 183.064 121.457 189.008 140.628C194.953 159.799 188.54 181.324 168.516 187.695C129.72 200.059 87.6144 141.325 115.017 109.477C122.789 100.447 135.158 99.4552 146.304 101.082C157.851 102.77 167.121 108.048 175.283 116.197C176.102 117.013 177.255 115.837 176.739 114.927C166.982 97.9921 135.551 91.9317 119.485 102.105C101.346 113.6 101.025 139.748 109.431 157.264C118.62 176.379 140.318 194.184 162.676 191.397C183.262 188.822 195.65 169.274 193.283 149.443C190.598 126.931 170.806 97.3169 145.562 98.1541C145.179 98.1783 145.118 98.7771 145.518 98.8386L145.519 98.8509Z" fill="black"/>
    <path d="M150.213 165.535L130.289 151.498L135.386 144.272L146.879 152.384L160.125 127.961L166.626 132.967L150.213 165.535Z" fill="black"/>
    <path d="M150.232 165.658C143.424 161.489 136.199 156.987 129.651 152.405C129.145 152.053 129.028 151.366 129.38 150.861C131.062 148.449 132.782 146.048 134.594 143.727C134.888 143.287 135.501 143.174 135.93 143.494C139.667 146.344 143.312 149.3 147.106 152.06L146.532 152.195C148.805 148.16 150.912 144.036 152.93 139.868L155.982 133.627L159.123 127.429C159.398 126.879 160.066 126.663 160.604 126.939C160.681 126.972 160.746 127.017 160.798 127.063L167.391 131.952C167.885 132.318 168.025 132.966 167.773 133.49C162.56 144.367 156.267 155.225 150.231 165.646L150.232 165.658ZM150.179 165.413C155.027 154.436 159.904 142.935 165.485 132.395L165.846 133.983L159.424 128.86L161.112 128.506C156.687 136.358 151.357 144.603 147.225 152.573C147.114 152.778 146.845 152.845 146.651 152.721C142.778 150.065 138.757 147.629 134.815 145.064L136.151 144.831C134.573 147.323 132.891 149.734 131.183 152.135L130.912 150.591C136.517 154.563 144.673 161.038 150.167 165.414L150.179 165.413Z" fill="black"/>
</svg>
