<svg width="288" height="420" viewBox="0 0 288 420" fill="none" xmlns="http://www.w3.org/2000/svg">
    <g clip-path="url(#clip0_4158_25331)">
        <path d="M15.7538 372.26L49.4236 394.851L56.0833 397.044C56.0833 397.044 83.1448 412.796 93.1693 403.598C103.194 394.4 126.685 364.997 126.685 364.997C126.685 364.997 170.363 310.396 171.495 308.602C172.634 306.809 185.923 288.362 197.635 249.194L261.854 78.8552L270.869 54.3974C270.869 54.3974 279.016 42.8014 269.302 35.2529C259.581 27.7108 235.709 18.6264 235.709 18.6264C235.709 18.6264 214.656 13.1362 179.909 12.4452C145.161 11.7542 135.771 9.64861 125.573 10.0817C115.375 10.5147 99.65 10.6079 89.504 44.7225L45.2739 163.383C45.2739 163.383 24.8743 216.18 21.9659 234.375C19.6164 249.033 10.5662 309.806 6.98241 336.116C6.12099 342.459 5.19639 354.666 5.19639 354.666C5.19639 354.666 7.23376 364.659 15.7538 372.26Z" fill="#9BE887"/>
        <path d="M66.6282 109.003C74.2017 90.5879 80.4089 71.6109 87.2877 52.9278C92.7446 38.097 97.779 17.438 115.398 12.9808C125.491 10.4256 136.849 11.6595 147.145 11.9967C158.076 12.3523 168.985 13.0213 179.887 13.8788C190.852 14.7409 201.797 15.7767 212.746 16.7567C217.894 17.2158 223.114 17.4493 228.227 18.193C233.34 18.9367 238.405 21.3013 239.006 27.1704C239.68 33.689 236.158 40.1189 233.838 46.1182C231.655 51.7634 229.492 57.4172 227.329 63.0779C220.16 81.8098 213.174 100.611 206.114 119.379C191.716 157.651 177.421 195.951 162.799 234.136C157.369 248.311 152.747 262.726 145.199 275.991C137.225 290.001 126.59 302.69 116.949 315.549C103.432 333.574 89.6238 351.36 76.0269 369.322C72.231 374.332 68.4153 379.326 64.6726 384.374C61.5829 388.532 58.5559 393.367 52.6222 392.836C47.6486 392.39 42.8453 387.684 38.8855 384.952C33.9589 381.555 29.0254 378.156 24.0989 374.759C19.8721 371.846 14.3562 369.329 11.0719 365.302C8.05128 361.595 7.41623 356.571 7.21394 351.949C7.11272 349.687 3.66741 349.31 3.60627 351.686C3.50166 355.907 3.71337 360.208 5.29325 364.181C7.06896 368.637 10.5658 371.574 14.3266 374.347C23.8952 381.395 33.7613 388.206 43.6819 394.747C51.685 400.028 60.3083 398.815 66.1838 391.115C67.6004 389.258 68.8794 387.271 70.2499 385.376C81.811 369.407 93.1858 353.307 104.893 337.454C116.599 321.601 128.449 305.71 140.16 289.795C147.496 279.827 153.204 268.655 157.773 257.176C159.727 252.271 161.222 247.226 163.121 242.303C168.48 228.431 173.722 214.523 179 200.617C187.499 178.236 196.163 155.916 204.724 133.561C212.722 112.677 220.721 91.786 228.74 70.9105C232.828 60.2579 237.25 49.6366 241.004 38.8617C243.361 32.0808 244.647 23.1775 238.251 18.1253C234.888 15.4647 230.476 14.814 226.329 14.4488C220.548 13.9365 214.75 13.563 208.964 13.1203C186.217 11.3715 163.414 9.82162 140.599 9.49615C131.051 9.36048 120.159 8.36364 111.137 12.1731C104.874 14.8114 100.217 19.8212 96.908 25.6435C92.4253 33.5437 89.539 42.3094 86.4201 50.8061C83.0466 60.0124 79.768 69.2606 76.4486 78.4919C72.8385 88.5421 69.0846 98.5469 65.6247 108.65C65.4024 109.299 66.3656 109.628 66.6212 109.003L66.6282 109.003Z" fill="black" stroke="black" stroke-width="0.25"/>
        <path d="M62.4347 121.3C61.0286 124.166 59.2223 126.758 57.8275 129.66C56.4327 132.562 55.1292 135.366 53.8205 138.239C51.1054 144.175 48.5802 150.194 46.0824 156.223C41.2725 167.845 36.9299 179.683 32.6575 191.52C27.7627 205.075 22.7405 218.649 20.2891 232.88C15.8688 258.562 12.4935 284.509 8.83374 310.323C7.95462 316.525 7.1302 322.746 6.31325 328.96C6.04359 331.026 5.68188 333.108 5.55797 335.192C5.47597 336.509 5.79334 337.919 5.65018 339.211C5.51311 340.419 7.40052 340.557 7.53759 339.348C7.73515 337.598 8.88032 333.894 9.22019 331.44C9.93554 326.332 10.6713 321.232 11.4145 316.126C13.4049 302.457 15.3267 288.769 17.3241 275.101C19.1567 262.54 21.3121 250.066 23.3655 237.55C23.9829 233.786 24.5734 230.006 25.35 226.268C27.077 217.943 30.3963 209.769 33.2965 201.775C38.1178 188.459 42.8222 175.113 47.8962 161.886C50.4716 155.177 53.0271 148.453 55.5141 141.71C56.6754 138.552 57.8441 135.389 59.0054 132.232C60.3241 128.645 61.1728 124.877 62.4954 121.333C62.5049 121.298 62.4571 121.281 62.4407 121.315L62.4347 121.3Z" fill="black" stroke="black" stroke-width="0.25"/>
        <path d="M263.197 30.159C267.641 32.8774 272.412 35.9137 273.091 41.5785C273.613 45.9505 271.867 50.3113 270.261 54.2832C269.937 55.0788 269.606 55.8669 269.29 56.656C267.627 60.8269 266.073 65.0476 264.472 69.2439C258.304 85.3812 252.074 101.5 245.981 117.664C231.322 156.547 215.961 195.161 201.335 234.053C198.808 240.773 196.164 247.463 193.78 254.235C193.056 256.289 192.41 258.63 192.084 260.503C191.988 261.05 191.879 261.588 191.797 262.135C191.757 262.391 191.768 262.637 191.742 262.887C191.563 264.295 192.033 261.774 191.739 262.551C191.244 263.859 193.285 264.582 193.786 263.281C194.054 262.579 192.845 264.48 193.358 263.684C193.492 263.477 193.785 263.302 193.942 263.061C194.218 262.633 194.475 262.19 194.745 261.755C195.587 260.374 196.545 258.672 197.229 256.965C199.478 251.373 201.557 245.706 203.684 240.064C210.562 221.878 217.261 203.644 223.886 185.362C237.724 147.183 252.204 109.232 266.369 71.1746C268.146 66.3889 269.999 61.6228 271.694 56.8102C272.543 54.3865 273.427 51.9514 274.036 49.4542C275.044 45.3337 275.459 40.7849 273.224 36.9741C270.988 33.1634 266.98 31.562 263.236 30.0989C263.209 30.0899 263.185 30.1301 263.212 30.1461L263.197 30.159Z" fill="black" stroke="black" stroke-width="0.25"/>
        <path d="M190.72 269.618C189.241 271.085 188.51 272.565 187.908 274.58C187.056 277.424 186.07 280.012 184.842 282.731C182.423 288.071 179.788 293.383 176.4 298.177C173.488 302.299 170.793 306.611 167.802 310.671C165.082 314.366 161.933 317.798 159.028 321.346C152.58 329.215 146.238 337.169 139.83 345.069C131.076 355.858 122.177 366.517 113.318 377.207C109.718 381.551 106.19 385.95 102.729 390.41C101.57 391.901 100.451 393.423 99.2782 394.906C98.8381 395.469 97.9298 396.404 96.7597 397.376C93.9274 399.732 90.5785 401.491 86.9366 402.177C81.4912 403.209 76.2438 401.139 71.0521 399.745C65.8605 398.352 60.9282 397.53 55.8797 395.902C53.6906 395.196 50.6793 394.34 48.8752 393.732C47.071 393.125 46.0839 395.909 47.8886 396.51C49.8091 397.154 51.6946 397.894 53.6386 398.504C55.5825 399.115 57.3962 399.688 59.2795 400.267C61.9092 401.074 64.2313 402.357 66.7902 403.272C75.1896 406.285 84.1787 408.796 92.7855 405.313C101.392 401.831 106.588 393.653 112.139 386.566C120.987 375.259 129.64 363.84 138.648 352.643C144.699 345.116 150.798 337.621 156.804 330.055C160.203 325.78 163.609 321.505 167.055 317.268C170.862 312.589 174.021 307.575 177.308 302.528C180.627 297.435 183.313 291.896 185.545 286.248C186.686 283.369 187.503 280.327 188.738 277.497C189.974 274.668 191.133 272.694 190.823 269.639C190.82 269.597 190.758 269.579 190.735 269.605L190.72 269.618Z" fill="black"/>
        <path d="M43.0512 170.244C47.513 172.333 52.1736 173.905 56.8246 175.512C66.8298 178.971 76.9049 182.24 86.9636 185.543C109.597 192.983 132.198 200.574 154.94 207.665C160.705 209.464 166.534 211.325 172.433 212.623C172.95 212.737 173.238 211.953 172.714 211.838C168.015 210.802 163.364 208.524 158.805 206.994C148.764 203.644 138.679 200.409 128.611 197.141C105.952 189.776 83.3684 182.13 60.6459 174.957C54.8489 173.127 49.0207 171.533 43.1936 169.827C42.9196 169.744 42.7867 170.127 43.0443 170.243L43.0512 170.244Z" fill="black" stroke="black" stroke-width="0.25"/>
        <path d="M173.091 213.006C178.542 215.168 184.001 217.316 189.538 219.246C195.076 221.176 200.554 223.452 206.187 224.926C207.184 225.188 207.682 223.824 206.724 223.418C201.361 221.109 195.577 219.679 190.05 217.799C184.523 215.919 179 213.878 173.515 211.805C172.745 211.511 172.329 212.706 173.084 213.006L173.091 213.006Z" fill="black" stroke="black" stroke-width="0.25"/>
        <path d="M62.916 198.374C72.8477 203.516 84.0772 206.701 94.5775 210.477C105.637 214.461 116.637 218.582 127.688 222.58C131.693 224.027 137.372 225.841 139.081 230.244C140.963 235.072 136.339 243.081 131.341 244.229C128.592 244.862 125.605 243.384 123.037 242.49C120.798 241.71 118.559 240.917 116.321 240.117C104.304 235.817 92.2773 231.566 80.2789 227.212C73.5603 224.769 66.8842 222.224 60.1827 219.74C55.1653 217.876 50.1755 215.538 45.0133 214.125C44.2653 213.917 43.5782 214.987 44.3512 215.428C48.6199 217.861 53.4875 219.378 58.0472 221.181C64.6078 223.773 71.2054 226.242 77.8169 228.713C90.9649 233.627 104.084 238.644 117.371 243.197C121.995 244.78 128.143 248.05 132.989 246.205C139.075 243.883 144.003 234.384 140.602 228.401C137.201 222.419 129.345 221.181 123.479 219.144C117.183 216.955 110.879 214.781 104.609 212.517C96.6275 209.632 88.6819 206.637 80.6748 203.813C74.893 201.775 68.9948 199.412 62.969 198.224C62.8929 198.211 62.8489 198.334 62.916 198.374Z" fill="black" stroke="black" stroke-width="0.25"/>
        <path d="M50.1821 216.021C47.89 214.328 44.9917 213.745 42.8123 211.85C39.579 209.045 38.4544 204.013 40.1799 200.127C41.7787 196.539 45.0525 193.697 49.0935 194.643C52.1985 195.366 55.2673 197.067 58.4823 197.05C58.8744 197.05 59.1 196.548 58.7466 196.306C56.4786 194.761 53.4523 194.302 50.842 193.517C49.0402 192.973 47.3252 192.294 45.4428 192.857C42.3503 193.787 39.6984 196.934 38.4819 199.793C35.2604 207.393 41.3722 217.199 49.9428 216.711C50.3015 216.688 50.5076 216.262 50.1816 216.028L50.1821 216.021Z" fill="black" stroke="black" stroke-width="0.25"/>
        <path d="M89.0166 207.418C86.6107 209.399 85.9389 213.621 84.8074 216.465C83.2799 220.324 81.7286 224.125 80.858 228.192C80.817 228.371 81.0699 228.551 81.1752 228.355C83.0937 224.896 84.4537 221.221 85.9526 217.564C87.1793 214.565 89.8434 210.867 89.6038 207.622C89.5824 207.34 89.2029 207.263 89.0166 207.418Z" fill="black" stroke="black" stroke-width="0.25"/>
        <path d="M127.681 221.418C129.991 223.931 134.978 224.862 138.022 226.134C139.931 226.931 141.973 227.738 143.639 228.994C147.701 232.056 147.422 236.838 145.191 240.94C143.663 243.748 141.238 246.666 137.895 247.095C135.923 247.35 133.698 246.754 131.808 246.161C129.263 245.352 126.093 243.399 123.4 243.56C122.851 243.597 122.625 244.399 122.983 244.762C124.105 245.894 125.961 246.267 127.41 246.856C129.171 247.572 130.962 248.361 132.813 248.811C135.998 249.582 138.889 250.073 141.85 248.356C144.599 246.764 146.498 244.039 147.757 241.183C150.383 235.213 148.986 229.699 143.013 226.722C140.149 225.295 137.13 224.06 134.147 222.911C132.329 222.211 129.751 220.973 127.733 221.281C127.67 221.291 127.65 221.373 127.688 221.418L127.681 221.418Z" fill="black" stroke="black" stroke-width="0.25"/>
        <path d="M227.826 81.92C227.122 77.8358 226.552 73.4602 227.425 69.3579L226.468 69.4142C232.717 81.2892 242.876 91.4678 252.613 100.537C253.59 101.449 255.45 100.52 254.709 99.1498C250.447 91.2494 247.524 82.8445 244.92 74.2808C243.818 70.6717 242.695 67.061 241.348 63.5321C239.766 59.4048 236.169 54.3746 236.574 49.8741L234.559 50.5394C238.729 55.0933 243.721 58.1598 248.284 62.2311C252.846 66.3025 257.429 69.9062 261.411 74.4464C262.497 75.6878 264.4 74.3562 263.765 72.8886C256.629 56.3838 248.295 40.1768 244.101 22.5912L241.872 23.6821C246.092 29.7659 250.223 35.9064 254.554 41.9143C258.884 47.9222 262.795 54.2986 267.574 59.9191C268.696 61.2332 270.501 59.8104 269.957 58.3424C266.465 48.9998 265.282 38.9153 261.67 29.5849L259.772 30.8399C264.61 36.1217 268.422 42.5119 272.02 48.6765C272.623 49.7147 274.114 49.4313 274.278 48.2389C274.612 45.8757 273.325 42.9742 272.573 40.8049C271.74 38.3987 270.804 35.8729 269.362 33.7514C268.521 32.5138 266.771 34.0456 267.606 35.2688C268.801 37.0223 269.375 39.4306 270.086 41.4009C270.796 43.3711 272.147 45.9691 271.903 48.0658L274.162 47.6283C270.318 41.3828 266.339 34.8754 261.505 29.3419C260.594 28.3023 259.182 29.4246 259.607 30.5969C263.003 40.0095 263.857 50.203 267.372 59.6103L269.756 58.0336C260.114 46.7025 252.294 34.2019 243.822 22.0038C243.081 20.9345 241.302 21.9041 241.593 23.0946C245.823 40.7599 253.466 57.7917 261.223 74.1456L263.577 72.5878C259.672 68.4313 255.278 64.6383 250.477 61.5368C245.14 58.0951 240.563 53.7566 236.307 49.0354C235.632 48.2931 234.384 48.7062 234.291 49.7007C233.916 53.6853 236.106 56.9746 237.664 60.4839C239.715 65.1004 241.369 69.8771 242.952 74.6695C245.821 83.3366 248.148 92.1531 252.443 100.266L254.54 98.8784C249.621 94.2279 244.942 89.3499 240.459 84.2831C235.976 79.2163 231.947 73.7835 227.336 68.8473C227.024 68.5165 226.472 68.6933 226.425 69.152C225.94 73.6817 225.871 77.7096 227.645 81.9909C227.686 82.0989 227.845 82.0335 227.832 81.9275L227.826 81.92Z" fill="black" stroke="black" stroke-width="0.25"/>
        <path d="M233.479 18.0859C234.742 19.3962 236.089 20.4186 237.708 21.2578C239.328 22.0969 240.439 19.8114 238.811 19.0906C237.184 18.3699 235.466 17.9226 233.637 17.7543C233.469 17.7421 233.356 17.9579 233.473 18.0784L233.479 18.0859Z" fill="black"/>
        <path d="M234.898 18.4131C237.324 20.9495 241.464 21.9863 244.656 23.3323C247.299 24.449 249.966 25.5046 252.567 26.7164C258.802 29.6354 264.906 33.2169 270.811 36.735C271.925 37.3973 273.05 35.7989 271.962 35.0615C266.149 31.151 260.586 27.0698 254.267 23.9486C251.617 22.6423 248.909 21.4647 246.141 20.4438C242.793 19.2125 238.816 17.2003 235.209 17.5045C234.793 17.5373 234.624 18.1341 234.898 18.4131Z" fill="black"/>
        <path d="M285.274 52.7091C285.316 52.7121 285.321 52.6429 285.279 52.6398C285.238 52.6368 285.233 52.7061 285.274 52.7091Z" fill="black"/>
        <path d="M119.722 18.1056C119.764 18.1086 119.769 18.0394 119.727 18.0363C119.686 18.0333 119.681 18.1026 119.722 18.1056Z" fill="black"/>
    </g>
    <defs>
        <clipPath id="clip0_4158_25331">
            <rect width="259.24" height="402.044" fill="white" transform="translate(29.2236) rotate(4.1683)"/>
        </clipPath>
    </defs>
</svg>
