<svg width="176" height="226" viewBox="0 0 176 226" fill="none" xmlns="http://www.w3.org/2000/svg">
<g clip-path="url(#clip0_30788_54611)">
<path d="M79.6945 84.4004L89.718 84.7746C89.718 84.7746 100.987 86.6646 106.943 92.2395C112.901 97.8164 120.889 107.612 124.565 121.456C128.241 135.297 127.879 152.737 123.41 166.276C123.41 166.276 120.517 178.16 113.499 185.791C106.48 193.422 101.444 197.15 92.4637 199.169L85.409 200.007L82.3903 200.537L77.4749 200.643L83.4195 198.8L79.6945 84.4004Z" fill="#77CD77"/>
<path d="M81.2895 86.1382C81.2895 86.1382 106.518 89.2564 114.222 129.67C121.926 170.081 97.3546 190.665 97.3546 190.665C97.3546 190.665 80.6625 208.168 57.4597 195.207C34.2588 182.245 34.2802 148.749 34.1853 143.317C34.0913 137.883 35.4743 107.571 54.5439 92.623C54.5439 92.623 64.1246 82.1366 81.2914 86.1371L81.2895 86.1382Z" fill="#9BE887"/>
<path d="M81.2895 86.1382C81.2895 86.1382 106.518 89.2564 114.222 129.67C121.926 170.081 97.3546 190.665 97.3546 190.665C97.3546 190.665 80.6625 208.168 57.4597 195.207C34.2588 182.245 34.2802 148.749 34.1853 143.317C34.0913 137.883 35.4743 107.571 54.5439 92.623C54.5439 92.623 64.1246 82.1366 81.2914 86.1371L81.2895 86.1382Z" fill="#9BE887"/>
<path d="M89.1066 134.736C88.3 132.477 88.1663 131.146 86.4361 129.361C84.7059 127.575 82.668 125.911 82.668 125.911L84.5604 116.833C84.5604 116.833 85.2242 115.785 84.899 115.534C84.5739 115.282 82.7748 114.623 82.7748 114.623L80.9799 114.069L80.2926 116.402L79.3118 120.14L78.653 123.114L77.306 122.913L75.6563 122.085L76.8642 116.303L77.7964 112.351L74.0147 110.453L71.5914 119.985L64.2909 116.763L63.4718 119.691L62.8404 123.305C62.8404 123.305 64.6595 123.482 65.3119 124.038C65.9644 124.594 66.9151 125.617 66.9677 126.843C67.0215 128.07 66.7735 129.634 66.7005 129.797C66.6688 129.866 66.5368 130.225 66.3944 130.61L66.299 130.565L66.1108 131.383C66.0405 131.572 65.9944 131.701 65.9944 131.701L66.0342 131.717L62.9843 144.943L61.6402 149.404C61.6402 149.404 61.0998 151.462 61.0679 151.678C61.038 151.894 60.3933 153.393 60.3933 153.393L59.2724 153.868L56.6895 152.377L55.115 156.039L54.8348 157.765L61.4813 162.248L60.578 165.982L59.6669 169.503L59.7076 170.463L62.5547 172.621L64.6546 164.708L67.3968 166.231L66.4048 170.612L65.5976 174.718L67.6995 176.004L68.7368 176.327L70.5092 169.982L71.1211 168.684L71.1352 168.935C71.1352 168.935 75.5239 171.231 77.6319 170.859C79.74 170.488 81.2906 169.929 82.7795 167.93C84.2666 165.931 86.0078 163.385 86.5418 160.257C87.0757 157.129 86.3685 154.383 85.6345 152.867C84.9473 151.451 83.6027 149.928 83.1995 149.572C83.9093 149.173 85.3617 148.324 86.1191 147.656C87.1423 146.75 88.3104 145.516 88.8529 143.51C89.3954 141.504 89.9107 136.987 89.1041 134.728L89.1066 134.736ZM73.8549 129.607C73.8549 129.607 75.5913 129.735 77.629 131.346C79.5025 132.828 80.81 135.145 81.0073 135.509C81.2154 136.319 81.5009 137.587 81.4262 138.219C81.3099 139.187 80.61 142.108 79.8072 142.685C79.0063 143.26 77.5597 143.491 77.5597 143.491L77.6424 143.59C77.2911 143.667 76.7385 143.711 76.1428 143.454C75.141 143.022 72.6583 142.02 72.6583 142.02L70.6911 140.985L70.9802 139.591L72.4902 133.526L72.3917 133.48L73.8561 129.609L73.8549 129.607ZM78.1007 159.722C76.8327 161.335 74.8985 162.127 74.1863 162.056C73.6868 162.005 72.1789 161.529 71.3267 161.25C70.7183 160.98 68.9103 160.123 68.9103 160.123C68.9103 160.123 67.2129 159.084 67.0505 158.985C67.007 158.959 66.8872 158.822 66.7346 158.638L66.8361 158.569C66.8361 158.569 66.694 156.17 67.0547 155.402C67.4153 154.634 68.169 152.941 68.2679 151.599C68.3668 150.258 69.0982 148.028 69.0982 148.028L69.5111 146.67L69.5602 146.425C70.1296 146.659 70.8396 146.946 70.9777 146.971C71.2155 147.014 72.6408 148.12 72.8829 148.268C73.1251 148.416 74.6278 149.519 74.6278 149.519C74.6278 149.519 75.6131 150.486 75.7701 150.477C75.9271 150.469 77.4981 152.21 77.676 152.683C77.8539 153.156 78.6375 154.882 78.6375 154.882C78.6375 154.882 79.3656 158.108 78.0976 159.721L78.1007 159.722ZM82.4199 149.455C82.4198 149.437 82.4102 149.393 82.3978 149.336L82.5601 149.533C82.4774 149.55 82.4192 149.542 82.4199 149.455Z" fill="black"/>
<path d="M59.7052 170.071C59.1927 170.135 59.1935 171.062 59.6659 171.275C59.9322 171.393 60.228 171.438 60.4994 171.526C60.7485 171.605 61.0499 171.812 61.2669 171.573C61.3493 171.485 61.364 171.363 61.317 171.229C61.2029 170.889 60.9066 170.869 60.6738 170.778C60.5267 170.719 60.3788 170.663 60.2326 170.601C60.1582 170.575 60.0855 170.542 60.0144 170.503C59.8709 170.389 59.853 170.473 59.962 170.76L59.7766 170.977L59.8209 170.952C60.1201 170.771 60.0873 170.025 59.7044 170.074L59.7052 170.071Z" fill="black"/>
<path d="M64.9063 165.038C64.9613 165.039 65.012 165.02 65.0576 164.984C65.105 164.959 65.1484 164.919 65.1829 164.863C65.2197 164.811 65.2459 164.749 65.2586 164.678C65.2815 164.611 65.29 164.536 65.2844 164.46L65.2644 164.31C65.2427 164.214 65.2059 164.133 65.1529 164.063L65.07 163.978C65.0063 163.93 64.938 163.905 64.8654 163.908C64.8105 163.906 64.7598 163.925 64.7141 163.962C64.6668 163.987 64.6234 164.027 64.5888 164.083C64.5521 164.135 64.5259 164.197 64.5132 164.268C64.4903 164.335 64.4818 164.41 64.4874 164.486L64.5074 164.636C64.5291 164.732 64.5659 164.813 64.6189 164.883L64.7018 164.968C64.7655 165.016 64.8338 165.041 64.9063 165.038Z" fill="black"/>
<path d="M66.8765 154.34C66.554 154.613 66.3421 155.118 66.1694 155.58C65.9968 156.042 65.7136 156.588 65.7602 157.149C65.8069 157.71 66.2057 158.027 66.56 157.751C66.9142 157.474 67.0407 156.857 67.2052 156.377C67.369 155.9 67.5357 155.356 67.501 154.811C67.4729 154.376 67.141 154.112 66.8735 154.339L66.8765 154.34Z" fill="black"/>
<path d="M65.5321 175.035C65.8959 175.665 66.4755 175.787 66.9898 176.051C67.473 176.296 68.0317 176.916 68.5226 176.591C68.6214 176.527 68.6393 176.344 68.6164 176.211C68.4936 175.478 67.7004 175.235 67.2619 174.987C66.7613 174.703 66.1691 174.287 65.6408 174.587C65.529 174.651 65.4334 174.868 65.5302 175.036L65.5321 175.035Z" fill="black"/>
<path d="M74.7783 170.803C76.0804 171.585 77.6308 171.556 78.9857 171.174C79.8033 170.944 81.0694 169.733 80.5463 168.36C80.4692 168.156 80.2548 168.105 80.1273 168.222C79.8571 168.47 79.7579 168.828 79.5472 169.153C79.1522 169.763 78.5149 170.026 77.9503 170.102C76.9882 170.234 75.9819 170.178 75.0507 169.744C74.6159 169.543 74.3502 170.547 74.7764 170.804L74.7783 170.803Z" fill="black"/>
<path d="M78.8326 158.606C79.0211 157.66 79.2748 156.756 79.2604 155.752C79.246 154.748 79.0583 153.698 78.7367 152.741C78.1839 151.09 77.261 149.781 76.131 148.91C75.3032 148.273 74.6359 150.076 75.4669 150.701C76.4201 151.417 77.1834 152.507 77.5891 153.935C77.7992 154.677 77.9034 155.467 78.0578 156.228C78.2231 157.039 78.4849 157.813 78.6764 158.611C78.7032 158.724 78.811 158.711 78.8326 158.606Z" fill="black"/>
<path d="M82.5909 148.035C82.3787 148.086 82.2255 148.275 82.0618 148.454C81.8195 148.719 81.5918 149.077 81.6406 149.557C81.6807 149.96 81.841 150.256 82.1214 150.376C82.4632 150.523 82.7618 150.266 82.9942 149.952C83.0551 149.871 83.1221 149.791 83.1796 149.704C83.2975 149.526 83.3516 149.33 83.4047 149.102C83.4729 148.811 83.365 148.441 83.2104 148.24C83.0285 148.001 82.8178 147.979 82.5898 148.033L82.5909 148.035Z" fill="black"/>
<path d="M74.8375 111.388C74.7572 110.897 74.6862 111.01 74.4495 110.587L74.1382 111.213C75.1805 111.755 76.2306 112.274 77.2659 112.847C77.7877 113.137 78.0595 112.068 77.5247 111.845C76.432 111.395 75.3517 110.885 74.2656 110.397C73.9542 110.259 73.8226 110.823 74.0033 111.109C74.2568 111.512 74.1666 111.587 74.4946 111.786C74.6993 111.909 74.8874 111.688 74.8383 111.385L74.8375 111.388Z" fill="black"/>
<path d="M64.346 116.653C64.2974 117.405 64.873 117.81 65.2865 118.121C65.6758 118.413 66.3265 118.872 66.7232 118.456C66.846 118.326 66.8675 118.136 66.7998 117.939C66.6167 117.413 66.0523 117.245 65.7035 116.997C65.3546 116.749 64.9474 116.159 64.5414 116.355C64.4533 116.398 64.3544 116.512 64.346 116.653Z" fill="black"/>
<path d="M64.2418 116.366C63.8413 117.301 63.6222 118.483 63.3765 119.521C63.0983 120.699 62.8469 121.892 62.6066 123.086C62.5607 123.318 62.7089 123.495 62.8544 123.511C64.1443 123.658 65.878 123.893 66.6633 125.63C67.2104 126.84 66.7361 128.172 66.4278 129.346C66.0747 130.688 65.7515 132.046 65.42 133.398C64.9237 135.426 64.5269 137.502 64.0098 139.516C63.4653 141.638 62.8716 143.737 62.3275 145.865C61.9026 147.523 61.4747 149.162 61.135 150.86C61.0813 151.128 61.3715 151.279 61.4587 151.038C62.7741 147.377 63.3938 143.236 64.3368 139.365C65.2055 135.803 66.13 132.256 67.0272 128.703C67.4386 127.071 67.2842 125.744 66.4097 124.462C65.4848 123.105 64.0741 122.971 62.8315 122.831L63.0774 123.256C63.3086 122.126 63.5512 121.003 63.8062 119.887C64.0566 118.795 64.4179 117.672 64.5522 116.539C64.5822 116.275 64.341 116.142 64.2429 116.368L64.2418 116.366Z" fill="black"/>
<path d="M56.8215 152.325C57.2368 152.981 57.8115 153.371 58.3614 153.763C58.7197 154.018 59.0533 154.245 59.4599 154.192C60.3147 154.084 60.9384 153.149 61.0685 151.995C61.0749 151.935 61.0175 151.876 60.986 151.932C60.3952 153 59.7219 153.907 58.6672 153.327C58.0311 152.977 57.5182 152.405 56.8289 152.297C56.8178 152.296 56.8118 152.312 56.8185 152.324L56.8215 152.325Z" fill="black"/>
<path d="M58.471 153.275C57.8429 152.677 56.9427 151.332 56.4344 152.596C55.8006 154.177 54.9935 155.96 54.6992 157.751C54.689 157.813 54.7115 157.905 54.7569 157.931C55.8963 158.56 56.9272 159.442 58.0244 160.198C59.1215 160.954 60.2071 161.717 61.2636 162.577C61.5833 162.836 61.8483 162.121 61.5254 161.873C60.583 161.154 59.6397 160.437 58.6769 159.775C57.6902 159.099 56.6834 158.686 55.6716 158.122C55.0435 157.773 55.0105 157.671 55.2835 156.823C55.5119 156.11 55.758 155.411 56.0072 154.712C56.2007 154.167 56.3999 153.466 56.7065 153.027C57.0976 152.468 57.1883 152.749 57.6174 152.972C57.8921 153.114 58.173 153.226 58.4518 153.353C58.4866 153.369 58.4984 153.3 58.471 153.275Z" fill="black"/>
<path d="M61.2232 162.13C60.6349 163.158 60.4544 164.834 60.1727 166.086C59.8217 167.645 59.5182 169.232 59.1705 170.797C59.1408 170.932 59.2052 171.142 59.3012 171.197C60.3914 171.821 61.4506 172.591 62.5568 173.15C62.7028 173.225 62.8478 173.049 62.8837 172.866C63.188 171.36 63.5466 169.895 63.96 168.444C64.267 167.365 64.8205 166.206 64.8746 165.032C64.8829 164.837 64.6983 164.784 64.6182 164.894C63.9602 165.775 63.6737 167.494 63.3541 168.68C62.9987 170 62.6663 171.338 62.346 172.678L62.741 172.432C61.6995 171.723 60.5944 171.216 59.5327 170.57L59.6634 170.97C60.0122 169.474 60.4012 167.999 60.7503 166.508C61.0499 165.238 61.6118 163.671 61.5613 162.315C61.5525 162.087 61.3286 161.944 61.2213 162.132L61.2232 162.13Z" fill="black"/>
<path d="M64.5602 165.161C65.505 165.538 66.3793 166.068 67.2324 166.763L67.1235 166.276C66.7086 167.635 66.4045 169.079 66.0702 170.485C65.7132 171.993 65.3377 173.527 65.1471 175.101C65.1315 175.238 65.1853 175.354 65.2796 175.397C66.3964 175.916 67.4949 176.497 68.5495 177.242C68.6921 177.342 68.8697 177.244 68.904 177.019C69.3494 174.142 70.0925 171.443 71.1896 168.961C71.3967 168.492 70.8306 168.045 70.6398 168.538C69.628 171.146 68.8607 173.924 68.4214 176.851L68.7161 176.596C67.6009 176.004 66.4907 175.412 65.3536 174.92L65.486 175.216C65.8218 173.836 66.0631 172.407 66.3773 171.016C66.7206 169.511 67.1735 168.088 67.5715 166.616C67.6163 166.448 67.6004 166.216 67.4626 166.129C66.544 165.557 65.5892 165.096 64.6202 164.749C64.4347 164.681 64.373 165.082 64.5558 165.153L64.5602 165.161Z" fill="black"/>
<path d="M69.3431 146.338C68.958 147.015 68.8491 147.956 68.6601 148.777C68.3961 149.926 68.1352 151.075 67.8742 152.225C67.6146 153.364 67.3517 154.497 67.0705 155.625C66.8788 156.401 66.4885 157.455 66.5066 158.287C66.5089 158.425 66.5859 158.545 66.6757 158.58L66.7216 158.597C66.8858 158.659 66.9929 158.4 66.9164 158.205L66.9069 158.18C66.8516 158.04 66.7194 158.046 66.6464 158.143L66.639 158.152C66.5762 158.234 66.594 158.381 66.6506 158.461L66.6573 158.473C66.6659 158.35 66.6725 158.228 66.6791 158.106L66.6621 158.121L66.9481 158.336C66.9229 157.998 67.163 157.364 67.236 157.037C67.355 156.496 67.4669 155.951 67.5806 155.405C67.7914 154.382 68.0248 153.371 68.2529 152.356C68.4811 151.341 68.7092 150.326 68.9374 149.31C69.1425 148.393 69.5023 147.379 69.4645 146.402C69.4617 146.321 69.3817 146.267 69.342 146.336L69.3431 146.338Z" fill="black"/>
<path d="M69.4739 146.489C71.3375 147.625 73.2286 148.92 74.9063 150.561C76.6474 152.263 78.4407 155.016 78.0024 158.226C77.5277 161.71 74.5145 162.001 72.4887 161.5C71.3685 161.225 70.2845 160.687 69.2376 160.053C68.6893 159.722 68.1512 159.36 67.6133 159.002C67.36 158.835 67.0539 158.75 66.9447 158.343C66.8969 158.163 66.9079 157.648 66.8836 157.459C66.8545 157.239 66.6431 157.305 66.6071 157.469C66.5104 157.885 66.4825 158.25 66.4508 158.685C66.4399 158.835 66.4718 159.001 66.5789 159.076C68.8614 160.679 71.2669 162.254 73.8343 162.393C75.9327 162.507 78.3176 161.832 78.757 158.491C79.1489 155.504 77.7848 152.56 76.1078 150.831C75.1238 149.816 74.0189 148.998 72.9445 148.205C71.8701 147.413 70.7175 146.681 69.4996 146.387C69.4571 146.375 69.4265 146.465 69.473 146.492L69.4739 146.489Z" fill="black"/>
<path d="M60.0677 153.58C60.5265 153.333 60.8154 152.699 61.0673 152.129C61.4728 151.212 61.8898 150.155 62.1422 149.128C62.191 148.928 61.9631 148.751 61.8758 148.925C61.1481 150.37 60.8776 152.224 60.0633 153.572C60.0594 153.574 60.0639 153.582 60.0677 153.58Z" fill="black"/>
<path d="M64.0628 167.669C64.2464 166.874 64.3172 165.729 64.658 165.047C64.7915 164.78 64.4765 164.563 64.4176 164.862C64.2651 165.625 63.9247 166.3 63.7479 167.057C63.5957 167.71 63.4087 168.413 63.3924 169.106C63.3895 169.257 63.5342 169.276 63.5807 169.169C64.1442 167.912 64.1742 166.287 64.6774 165.005L64.4176 164.862C64.3774 165.371 64.1855 165.861 64.0936 166.356C64.013 166.791 63.9737 167.199 63.9539 167.649C63.9497 167.744 64.0463 167.742 64.0636 167.665L64.0628 167.669Z" fill="black"/>
<path d="M61.508 162.116C61.2987 162.781 61.1874 163.501 61.0193 164.188C60.8296 164.963 60.5369 165.684 60.3748 166.471C60.3532 166.576 60.4627 166.623 60.4985 166.539C60.796 165.848 60.9538 165.022 61.1668 164.27C61.3567 163.598 61.5795 162.925 61.6801 162.209C61.6996 162.07 61.5515 161.978 61.508 162.116Z" fill="black"/>
<path d="M82.7301 149.782C84.6553 151.527 85.7928 153.834 86.0873 157.062C86.2288 158.606 86.1008 160.159 85.7424 161.612C85.5426 162.418 85.243 163.141 84.9828 163.905C84.6922 164.758 84.3054 165.29 83.8328 165.953C82.1599 168.292 80.4784 170.755 77.9589 170.966C76.7328 171.067 75.511 170.776 74.3308 170.263C73.1464 169.747 72.0657 168.917 70.9039 168.329C70.5739 168.162 70.3849 168.916 70.6977 169.129C71.9706 169.989 73.4141 170.62 74.7804 171.077C76.1467 171.534 77.4017 171.665 78.737 171.406C79.9214 171.174 80.9274 170.563 81.8445 169.499C82.7943 168.399 83.8038 167.197 84.5137 165.77C84.8811 165.032 85.3471 164.393 85.6705 163.618C86.0025 162.823 86.2459 161.945 86.4125 161.051C86.6993 159.519 86.7283 157.909 86.5025 156.34C86.1143 153.643 84.6641 150.594 82.7833 149.571C82.6926 149.521 82.6564 149.716 82.7282 149.783L82.7301 149.782Z" fill="black"/>
<path d="M70.8367 140.781C71.3525 138.911 71.78 136.982 72.2761 135.101C72.7772 133.201 73.3965 131.395 73.9288 129.519L73.6896 129.67C75.536 130.22 77.2973 131.428 78.8088 133.057C79.5465 133.854 80.3693 134.807 80.7235 136.056C81.109 137.413 80.8053 138.996 80.4033 140.253C80.0559 141.342 79.5286 142.355 78.7228 142.815C77.8014 143.342 76.5954 143.18 75.6231 142.96C74.6509 142.74 73.6942 142.414 72.8042 141.803C72.0929 141.314 71.4427 140.763 70.6391 140.728L70.9189 141.204C71.362 137.958 72.0931 134.66 73.0621 131.671C73.1329 131.455 72.9038 131.277 72.8269 131.49C72.2865 132.966 71.7684 134.382 71.3796 135.96C70.9705 137.614 70.6543 139.304 70.3915 141.02C70.3523 141.281 70.4978 141.48 70.6712 141.495C71.8182 141.604 72.9504 142.728 74.0318 143.288C75.1132 143.848 76.2208 144.097 77.3417 144.121C79.3051 144.161 80.5774 142.538 81.1956 140.001C81.4908 138.79 81.7082 137.396 81.3879 136.13C81.0676 134.864 80.2996 133.845 79.5357 133.043C77.7926 131.208 75.8337 129.997 73.7828 129.079C73.6926 129.039 73.5825 129.115 73.5436 129.23C72.8944 131.087 72.4036 133.106 71.9036 135.057C71.4351 136.883 70.9742 138.804 70.7 140.713C70.6837 140.823 70.808 140.9 70.8381 140.788L70.8367 140.781Z" fill="black"/>
<path d="M68.5284 149.863C68.6745 149.324 68.8372 148.796 68.9832 148.257C68.9773 147.659 69.1674 147.339 69.5514 147.292C69.7543 147.052 69.9579 147.039 70.1562 147.254C70.3193 147.314 70.4866 147.443 70.6427 147.535C71.4927 148.028 72.3519 148.524 73.1718 149.112C73.9758 149.685 74.7592 150.33 75.4936 151.072C76.1823 151.766 76.7714 152.844 77.5061 153.391C77.6146 153.472 77.7752 153.323 77.7194 153.142C77.3376 151.929 76.2837 151.03 75.5234 150.305C74.5083 149.339 73.4138 148.561 72.3137 147.822C71.759 147.448 71.1966 147.098 70.632 146.761C70.3044 146.567 69.8671 146.175 69.521 146.238C69.1749 146.302 69.1858 146.583 69.0968 146.976C68.8796 147.926 68.7118 148.899 68.5109 149.855C68.5096 149.866 68.5221 149.874 68.5253 149.862L68.5284 149.863Z" fill="black"/>
<path d="M64.3752 116.739C66.7569 117.82 69.1042 119.09 71.4612 120.275C71.5517 120.32 71.6371 120.233 71.6842 120.136C72.3347 118.767 72.6317 116.99 72.9991 115.437C73.3948 113.76 73.8327 112.103 74.2409 110.434C74.3105 110.15 73.965 109.956 73.8831 110.237C73.1904 112.663 72.7086 115.232 72.0544 117.685C71.907 118.235 71.7455 118.783 71.5554 119.304C71.5211 119.395 71.4898 119.555 71.4349 119.62C71.2904 119.788 71.4715 119.666 71.3103 119.671C71.2576 119.673 70.9033 119.385 70.8118 119.337L70.0759 118.953C68.2357 117.991 66.3731 117.088 64.5529 116.046C64.1957 115.841 64.0032 116.571 64.3733 116.74L64.3752 116.739Z" fill="black"/>
<path d="M74.0792 110.393C75.3616 111.096 76.6518 111.746 77.9532 112.384L77.858 111.962C77.5216 112.451 77.4531 113.187 77.308 113.825C77.1028 114.725 76.8987 115.626 76.6844 116.522C76.242 118.386 75.7985 120.247 75.356 122.11C75.3252 122.243 75.4075 122.386 75.4932 122.419C76.4805 122.807 77.4667 123.193 78.4541 123.581C78.5246 123.61 78.5842 123.54 78.6047 123.451C79.1839 120.944 79.8403 118.477 80.5175 116.023C80.6182 115.66 80.7457 114.71 80.9543 114.467C81.2338 114.141 81.8482 114.559 82.1804 114.681C83.1099 115.018 84.0303 115.388 84.9454 115.803L84.8148 115.403C84.0257 117.204 83.7627 119.066 83.3757 121.106C83.15 122.294 82.8786 123.452 82.5564 124.594C82.4183 125.084 82.1152 125.747 82.3069 126.266C82.3379 126.351 82.415 126.373 82.4737 126.355C82.5861 126.318 82.6077 126.262 82.6434 126.11C82.6619 126.035 82.6245 125.944 82.5785 125.909L82.5408 125.879C82.4154 125.782 82.3038 126.016 82.4038 126.154C82.5496 126.357 83.1577 124.265 83.2005 124.099C83.4357 123.167 83.6288 122.216 83.7992 121.252C84.1131 119.473 84.2204 117.11 85.1372 115.725C85.2433 115.566 85.1694 115.332 85.035 115.268C83.6888 114.632 82.3319 114.098 80.9459 113.696C80.8719 113.674 80.7696 113.715 80.7384 113.826C80.1516 115.924 79.6057 118.039 79.0994 120.183C78.9502 120.819 78.7025 122.97 78.2212 123.107C77.9037 123.198 77.2174 122.659 76.8988 122.517C76.4582 122.319 76.0188 122.123 75.5763 121.926L75.7135 122.235C76.0994 120.577 76.4853 118.918 76.8723 117.262C77.0657 116.431 77.2613 115.604 77.4618 114.777C77.6513 113.997 77.7728 112.966 78.1315 112.315C78.2169 112.16 78.1707 111.956 78.0363 111.892C76.7356 111.282 75.4387 110.687 74.125 110.143C74.0075 110.095 73.9771 110.336 74.0864 110.396L74.0792 110.393Z" fill="black"/>
<path d="M82.3945 125.512C82.3399 125.698 82.3092 125.818 82.2648 126.008C82.2442 126.097 82.2879 126.226 82.349 126.265C83.2638 126.839 84.0742 127.668 84.8685 128.528C85.5818 129.3 86.3298 130.052 86.9678 130.948C88.4425 133.012 88.8755 136.088 88.9341 138.89C88.9875 141.589 88.4636 144.237 87.1461 146.204C86.5103 147.154 85.7411 147.957 84.8917 148.489C84.1269 148.966 83.2583 149.095 82.5266 149.643C82.457 149.696 82.4826 149.856 82.5577 149.879C84.2214 150.424 86.3154 148.325 87.3607 146.722C88.6669 144.718 89.4997 142.067 89.5414 139.292C89.5837 136.46 89.1149 133.086 87.7345 130.883C86.3805 128.721 84.3733 126.79 82.46 125.839L82.5835 126.12C82.6246 125.973 82.6554 125.821 82.6759 125.666C82.716 125.437 82.4617 125.286 82.3945 125.512Z" fill="black"/>
<path d="M82.5262 149.809C83.4234 150.357 84.4169 151.197 84.7641 152.563L85.0187 152.336C84.3419 151.276 83.5384 150.032 82.5389 149.64C82.3266 149.557 82.2107 150.002 82.4079 150.147C83.4504 150.907 84.5648 151.635 85.1655 153.138C85.4317 153.804 85.6542 154.487 85.8272 155.209C85.9742 155.815 86.0522 156.417 86.3193 156.946C86.3861 157.08 86.5064 157.008 86.5157 156.864C86.5879 155.543 85.9706 153.713 85.3898 152.69C84.6581 151.396 83.5985 150.452 82.5865 149.669L82.4555 150.176C83.4477 150.48 84.0694 151.77 84.809 152.663C84.9552 152.841 85.1225 152.605 85.0465 152.385C84.5235 150.847 83.5735 150.417 82.5308 149.804C82.5267 149.801 82.5231 149.809 82.5284 149.813L82.5262 149.809Z" fill="black"/>
<path d="M86.1272 157.222C86.2223 155.385 85.485 153.766 84.7416 152.31C84.0954 151.044 83.2753 149.856 82.1737 149.523L82.1392 150.126C83.371 150.07 84.8168 149.677 85.7837 148.562C85.8965 148.433 85.825 148.104 85.6589 148.195C84.4533 148.852 83.4486 149.47 82.1155 149.516C81.8787 149.524 81.8322 150.062 82.0809 150.119C83.2672 150.384 84.0425 151.442 84.7143 152.801C85.386 154.16 86.0235 155.561 86.1214 157.226C86.1229 157.232 86.1278 157.232 86.1295 157.226L86.1272 157.222Z" fill="black"/>
<path d="M44.0658 182.183C44.0658 182.183 44.0672 182.169 44.06 182.173C44.0529 182.177 44.0587 182.187 44.0658 182.183Z" fill="black"/>
<path d="M37.0557 165.734C39.134 173.847 42.4149 182.233 48.0926 188.531C52.6138 193.547 58.413 197.436 64.9082 199.366C70.8492 201.133 77.3596 201.208 83.3476 199.591C89.7839 197.851 95.5063 194.382 100.126 189.591C105.537 183.98 109.331 176.866 111.98 169.587C114.792 161.857 116.178 153.675 116.365 145.461C116.716 130.077 113.329 113.655 103.779 101.257C98.976 95.0239 92.8832 89.6844 85.4819 86.808C78.7532 84.1932 71.2142 83.8723 64.3788 86.2864C62.7182 86.8724 61.1155 87.6073 59.5767 88.462C59.0404 88.7612 59.5166 89.5857 60.054 89.2883C66.369 85.7774 73.7175 84.7365 80.7601 86.3688C88.0938 88.0694 94.781 92.4186 99.6549 98.1123C104.425 103.684 107.799 110.589 110.213 117.474C112.748 124.695 114.124 132.31 114.433 139.95C115.053 155.187 111.376 171.634 102.397 184.164C94.9753 194.521 82.4885 201.204 69.6074 199.178C63.3223 198.19 57.452 195.327 52.6499 191.176C49.9759 188.864 47.8161 186.184 45.6413 183.419C43.106 180.195 41.1018 176.618 39.5376 172.834C38.5809 170.514 37.7732 168.137 37.0684 165.729C37.0658 165.72 37.0501 165.724 37.0527 165.733L37.0557 165.734Z" fill="black"/>
<path d="M113.803 99.8855C112.503 97.9854 111.313 96.1166 109.641 94.5208C108.1 93.0497 106.432 91.7268 104.747 90.4257C101.627 88.017 98.0187 86.0182 94.1899 84.9943C91.4239 84.2534 88.4023 83.7062 85.527 83.8528C83.2182 83.9704 80.9503 84.4035 78.6341 84.5126C76.5424 84.6102 74.4494 84.7009 72.3582 84.7905C71.9087 84.8085 71.9049 85.5092 72.3545 85.4912C73.9773 85.4228 75.5993 85.3573 77.2244 85.2927C78.56 85.2385 79.907 85.1417 81.2435 85.1512C82.3894 85.1602 83.5229 85.3254 84.668 85.3195C87.0578 85.3066 89.4169 85.3295 91.768 85.8681C95.7172 86.7711 99.2611 88.3961 102.772 90.3688C104.838 91.5294 106.647 92.9665 108.367 94.5933C109.249 95.4253 110.039 96.3844 110.968 97.1607C111.995 98.0189 112.911 98.8877 113.801 99.8947C113.804 99.9004 113.813 99.8929 113.81 99.8891L113.803 99.8855Z" fill="black"/>
<path d="M60.3844 197.035C66.4407 199.91 73.161 201.753 79.9073 201.325C82.2838 201.173 84.6427 200.711 87.0021 200.392C90.5433 199.912 94.0498 199.404 97.4707 198.316C107.432 195.148 114.933 187.449 119.736 178.354C121.911 174.235 123.666 169.855 125.013 165.397C126.366 160.92 127.437 156.226 127.712 151.547C128.328 141.144 127.576 130.505 124.727 120.461C124.56 119.869 123.635 120.11 123.802 120.702C126.249 129.319 127.546 138.785 126.465 147.723C125.378 156.71 123.625 165.784 119.717 174.009C115.426 183.035 109.285 191.315 100.051 195.671C96.4208 197.383 92.7141 198.444 88.7389 198.95C86.1529 199.282 83.5686 199.692 80.976 199.963C78.8678 200.183 76.7328 200.09 74.6261 199.904C72.5514 199.719 70.4612 199.526 68.3947 199.262C65.6541 198.912 62.9444 198.047 60.3884 197.02C60.3813 197.016 60.373 197.029 60.3813 197.034L60.3844 197.035Z" fill="black"/>
<path d="M61.7494 95.2901C61.7494 95.2901 61.7508 95.276 61.7436 95.2801C61.7365 95.2842 61.7423 95.2942 61.7494 95.2901Z" fill="black"/>
<path d="M108.225 158.826C111.544 144.834 110.674 129.79 104.922 116.535C100.272 105.819 91.955 95.9436 80.1407 93.1895C75.2532 92.0497 70.0865 92.3039 65.3722 94.0487C60.3126 95.9208 56.0223 99.4139 52.5618 103.494C44.5861 112.903 40.7355 124.946 39.8101 137.095C38.895 149.083 40.538 160.972 45.5371 171.972C46.3077 173.666 47.1492 175.328 48.0419 176.962C48.1404 177.142 48.416 176.983 48.3175 176.803C42.4165 166.008 39.4107 153.886 39.9534 141.574C40.469 129.872 43.2828 118.026 49.8254 108.179C55.727 99.2941 64.9632 92.3841 76.0763 93.1902C87.6309 94.0266 97.0454 102.47 102.401 112.26C105.773 118.422 107.877 125.255 108.951 132.181C110.025 139.107 110.192 146.657 109.157 153.77C108.911 155.466 108.594 157.152 108.222 158.825C108.221 158.828 108.225 158.831 108.228 158.827L108.225 158.826Z" fill="black"/>
<path d="M54.7726 101.622C46.6119 109.424 42.341 120.514 40.4544 131.448C38.4823 142.882 39.1623 154.839 42.7463 165.898C45.5426 174.529 50.5913 182.67 58.2482 187.777C64.5581 191.984 72.0655 193.523 79.522 192.171C88.3283 190.571 95.7164 184.892 100.571 177.519C100.684 177.348 100.407 177.19 100.296 177.362C95.9387 183.978 89.5327 189.244 81.7982 191.312C74.6759 193.216 66.9467 192.019 60.5463 188.428C52.846 184.109 47.5658 176.68 44.4016 168.577C40.3609 158.231 39.1093 146.651 40.2614 135.638C40.9399 129.156 42.6256 122.679 45.1684 116.681C47.5078 111.162 50.4951 105.876 54.779 101.629C54.781 101.628 54.7757 101.623 54.7768 101.625L54.7726 101.622Z" fill="black"/>
<path d="M44.3757 104.605C43.6656 105.164 43.1415 106.116 42.665 106.879C42.1884 107.642 41.7432 108.513 41.3133 109.339C40.4376 111.026 39.6422 112.754 38.9255 114.516C37.5547 117.885 36.474 121.37 35.664 124.915C34.8767 128.356 34.2447 131.826 33.9705 135.346C33.6771 139.109 33.9041 142.807 34.1279 146.567C34.1327 146.646 34.2544 146.648 34.2535 146.566C34.1926 142.947 34.5353 139.323 34.8634 135.722C35.1916 132.122 35.6139 128.596 36.3943 125.107C37.159 121.689 38.1774 118.327 39.4681 115.068C40.1944 113.234 41.0155 111.434 41.919 109.68C42.3475 108.847 42.8225 108.042 43.2623 107.215C43.7022 106.388 44.2858 105.548 44.4941 104.668C44.5106 104.594 44.4307 104.558 44.3754 104.6L44.3757 104.605Z" fill="black"/>
<path d="M54.96 92.2665C56.0201 92.0066 57.0121 91.095 57.9997 90.6073C59.2051 90.0118 60.3144 89.2277 61.4955 88.5769C63.884 87.2626 66.4123 86.6844 68.9442 85.7831C69.0575 85.7434 69.0878 85.5513 68.9447 85.526C66.3574 85.0723 63.7474 86.2165 61.459 87.3703C60.2291 87.9901 58.9002 88.6698 57.8335 89.55C57.2227 90.054 56.6984 90.6186 56.0666 91.1039C55.6254 91.4433 55.193 91.7134 54.8973 92.1846C54.8718 92.225 54.9137 92.2753 54.9589 92.2646L54.96 92.2665Z" fill="black"/>
<path d="M122.765 116.019C122.899 117.34 123.163 118.5 123.569 119.773C123.899 120.81 124.138 122.19 124.844 123.031C124.906 123.103 125.034 123.06 125.053 122.974C125.312 121.911 124.834 120.553 124.536 119.521C124.143 118.16 123.663 117.132 122.836 115.999C122.815 115.973 122.758 115.975 122.762 116.019L122.765 116.019Z" fill="black"/>
<path d="M124.267 164.301C120.944 162.33 117.716 160.014 115.01 157.243L114.916 157.595C118.433 156.999 121.947 158.497 125.499 158.281C125.713 158.268 125.819 157.975 125.611 157.864C123.252 156.583 120.834 155.502 118.304 154.605L118.243 155.064C120.455 155.015 122.609 154.717 124.767 154.232C125.008 154.178 125.066 153.807 124.837 153.695C123.301 152.936 121.578 153.16 120.004 152.578C117.944 151.818 117.474 149.426 115.934 148.126C115.715 147.942 115.386 148.116 115.447 148.407C115.803 150.092 117.422 151.747 118.951 152.459C120.744 153.294 122.826 153.243 124.547 154.202L124.617 153.666C122.519 154.127 120.384 154.419 118.243 154.596C117.981 154.619 117.921 154.969 118.182 155.055C120.676 155.881 123.102 156.955 125.388 158.252L125.5 157.836C121.88 157.837 118.44 156.134 114.809 157.192C114.662 157.236 114.593 157.432 114.714 157.545C117.629 160.229 120.627 162.665 124.06 164.667C124.292 164.803 124.498 164.443 124.266 164.304L124.267 164.301Z" fill="black"/>
<path d="M115.017 148.336C115.82 148.676 116.751 148.473 117.609 148.471C118.749 148.47 119.888 148.507 121.026 148.556C123.165 148.647 125.305 148.714 127.408 148.248C127.836 148.152 127.97 147.459 127.538 147.268C126.019 146.594 124.6 145.779 123.027 145.213C122.881 145.161 122.792 145.39 122.924 145.462C124.28 146.2 125.79 147.026 126.898 148.113L127.139 147.217C124.933 147.624 122.718 147.539 120.492 147.457C119.475 147.419 118.451 147.371 117.434 147.434C116.604 147.484 115.631 147.468 114.974 148.024C114.883 148.102 114.905 148.287 115.017 148.336Z" fill="black"/>
<path d="M119.403 143.264C118.322 142.501 117.238 141.77 116.064 141.161L115.952 142.004C116.879 141.803 117.822 141.652 118.758 141.497C119.216 141.423 119.111 140.689 118.658 140.697C117.645 140.714 116.702 140.865 115.721 141.115C115.356 141.208 115.238 141.782 115.609 141.958C116.8 142.521 117.986 143.088 119.114 143.773C119.44 143.969 119.704 143.478 119.404 143.266L119.403 143.264Z" fill="black"/>
<path d="M113.78 185.857C109.853 184.52 105.917 186.149 101.938 186.24C101.268 186.254 101.145 187.193 101.782 187.39C102.934 187.747 104.102 188.091 105.213 188.561C106.325 189.032 107.381 189.645 108.48 190.159L108.836 189.291C107.344 188.976 105.81 188.759 104.286 188.673C103.396 188.622 101.556 188.266 100.901 189.116C100.322 189.866 100.874 190.586 101.597 190.9C103.111 191.555 104.664 191.881 105.849 193.123L105.844 192.322C105.1 193.201 103.448 193.037 102.396 193.118C101.498 193.187 100.6 193.253 99.7068 193.365C97.8931 193.593 96.1762 193.921 94.5742 194.835C94.1473 195.079 94.1847 195.669 94.5766 195.92C95.2193 196.33 95.313 196.746 95.6663 197.349C95.975 197.874 96.4618 198.179 97.0003 198.431L97.4866 197.248C96.1564 197.027 94.7416 196.958 93.3866 196.823C91.9193 196.676 90.4921 196.616 89.0178 196.701C88.7863 196.714 88.6994 197.093 88.961 197.132C90.2364 197.321 91.5086 197.473 92.7875 197.636C93.5389 197.731 94.2893 197.843 95.0356 197.969C95.7819 198.096 96.4341 198.349 97.1518 198.497C97.8251 198.635 98.3442 197.634 97.6381 197.315C96.9321 196.996 96.7988 196.685 96.4573 196.063C96.1585 195.518 95.7134 195.161 95.1955 194.839L95.1979 195.924C97.1375 194.789 99.2398 194.421 101.448 194.24C103.03 194.111 105.465 194.37 106.649 193.124C106.873 192.889 106.845 192.561 106.644 192.323C106.115 191.701 105.542 191.297 104.783 191.006C104.354 190.842 103.92 190.69 103.488 190.538C103.269 190.462 102.271 190.278 102.17 190.084C101.623 189.067 103.4 189.323 103.696 189.337C104.217 189.363 104.737 189.404 105.255 189.465C106.393 189.599 107.495 189.874 108.59 190.208C109.108 190.367 109.411 189.606 108.947 189.34C106.809 188.116 104.388 187.155 102.083 186.264L101.927 187.414C105.808 187.412 109.73 185.611 113.592 186.546C114.04 186.655 114.206 186.007 113.775 185.862L113.78 185.857Z" fill="black"/>
<path d="M104.078 90.4895C102.306 90.3128 100.388 90.6002 98.6115 90.7317C96.7933 90.8667 94.9865 91.0927 93.1632 91.0945L93.5281 91.9755C94.4186 90.9325 95.0922 89.7989 95.6472 88.5488C95.7428 88.3318 95.6256 88.1067 95.3824 88.0904C93.2256 87.9328 91.2125 87.6948 89.1825 86.8938L89.1787 87.777C90.5229 87.3017 91.3819 86.6313 92.3952 85.6587C92.5422 85.5173 92.4801 85.2141 92.2636 85.1773C90.9419 84.9487 89.6968 85.1818 88.4087 85.4963C86.9842 85.8458 84.9227 86.6452 83.5784 85.7412L83.6854 86.5091C84.1041 86.0954 84.5199 85.6808 84.9387 85.267C85.3094 84.899 84.7609 84.3987 84.3729 84.71C83.9117 85.0815 83.4494 85.451 82.9882 85.8225C82.6515 86.0938 82.9428 86.6603 83.3333 86.6558C84.732 86.6397 85.9729 86.635 87.3475 86.3014C88.9168 85.9222 90.4862 85.4274 92.1126 85.7344L91.981 85.253C91.1472 85.9269 89.9392 86.4956 88.9482 86.8929C88.5267 87.0617 88.491 87.6139 88.9444 87.7761C90.9552 88.4905 93.239 88.9703 95.3774 88.7045L95.1126 88.2461C94.3687 89.2713 93.5704 90.2559 92.7888 91.2515C92.4869 91.6363 92.7546 92.2421 93.2873 92.1145C95.1684 91.6658 97.1009 91.5239 99.026 91.3427C100.7 91.1854 102.478 91.2202 104.124 90.8813C104.359 90.8333 104.286 90.5109 104.076 90.4906L104.078 90.4895Z" fill="black"/>
</g>
<g clip-path="url(#clip1_30788_54611)">
<path d="M76.1957 58.3145L68.6522 30.1726C68.6522 30.1726 65.2207 20.7734 77.6583 17.4421L129.681 3.50797C129.681 3.50797 138.946 -0.13519 142.991 14.9546C147.035 30.0444 160.956 82.3388 160.956 82.3388C160.956 82.3388 162.134 89.0275 160.457 100.426C158.779 111.825 155.16 135.336 155.16 135.336C155.16 135.336 155.177 140.169 148.046 142.064C140.915 143.959 126.298 147.711 126.298 147.711C126.298 147.711 121.121 148.564 116.294 141.065L92.3568 110.601C92.3568 110.601 88.7646 104.595 84.569 89.0882C80.3733 73.5815 76.1957 58.3145 76.1957 58.3145Z" fill="#9BE887"/>
<path d="M123.798 45.4911C126.08 52.54 117.471 61.6282 117.103 62.0079C117.006 62.1089 116.885 62.1844 116.752 62.2275C116.619 62.2706 116.477 62.28 116.339 62.2549C115.817 62.1633 103.514 59.8402 101.232 52.7912C100.698 51.1353 100.843 49.3353 101.635 47.7861C102.427 46.2368 103.801 45.0648 105.457 44.5273C107.537 43.8543 109.648 44.1593 111.272 45.3035C111.918 43.4247 113.45 41.9413 115.531 41.2683C117.187 40.7344 118.988 40.8792 120.538 41.6709C122.087 42.4625 123.26 43.8364 123.798 45.4911Z" fill="black"/>
<path d="M110.363 20.1279L115.136 18.8495L115.474 20.1091L113.824 24.3321L116.42 23.6368L116.817 25.12L112.044 26.3984L111.706 25.1388L113.357 20.9158L110.761 21.6111L110.363 20.1279Z" fill="black"/>
<path d="M127.523 19.7626C128.05 19.3818 128.505 18.6291 128.227 17.5932C127.889 16.3336 126.807 15.7528 125.524 16.0965L122.594 16.8813L124.267 23.1245L125.885 22.6912L125.322 20.5919L125.936 20.4274L127.643 22.2202L129.513 21.7193L127.523 19.7626ZM126.049 18.8369L124.932 19.1361L124.594 17.8765L125.711 17.5773C126.13 17.4652 126.477 17.6413 126.575 18.0064C126.68 18.3988 126.467 18.7248 126.049 18.8369Z" fill="black"/>
<path d="M118.628 17.8238C116.731 18.332 115.758 20.0623 116.254 21.9106C116.749 23.7589 118.484 24.764 120.354 24.2631C122.224 23.7623 123.251 22.0173 122.756 20.1691C122.26 18.3208 120.528 17.315 118.628 17.8238ZM119.964 22.8073C119.015 23.0614 118.176 22.506 117.899 21.47C117.621 20.4341 118.067 19.5343 119.018 19.2796C119.969 19.0249 120.831 19.5743 121.109 20.6102C121.386 21.6462 120.913 22.5532 119.964 22.8073Z" fill="black"/>
<path d="M105.062 21.5479L109.583 20.3371L109.973 21.7929L107.07 22.5704L107.318 23.4946L110.137 22.7396L110.519 24.1657L107.7 24.9207L107.971 25.9293L110.874 25.1517L111.264 26.6075L106.743 27.8183L105.062 21.5479Z" fill="black"/>
<path d="M104.872 23.8495C104.534 22.5899 103.452 22.0092 102.169 22.3528L99.2383 23.1377L100.912 29.3808L102.529 28.9475L101.967 26.8483L102.581 26.6837L104.288 28.4765L106.158 27.9756L104.168 26.0189C104.695 25.6381 105.149 24.8855 104.872 23.8495ZM102.691 25.0939L101.576 25.3924L101.239 24.1329L102.353 23.8343C102.772 23.7222 103.119 23.8982 103.217 24.2633C103.322 24.6558 103.112 24.9811 102.691 25.0939Z" fill="black"/>
<path d="M93.4531 24.6572L98.5037 23.3045L98.9012 24.7877L97.17 25.2514L98.4532 30.0387L96.8357 30.4719L95.5524 25.6846L93.8507 26.1404L93.4531 24.6572Z" fill="black"/>
<path d="M88.4614 25.0328C88.0528 23.5085 86.3938 22.5955 84.7877 23.0257C83.1815 23.4559 82.2015 25.0758 82.6101 26.6001L82.8492 27.4923L81.6435 27.8152L83.3634 34.2317L88.0117 35.0533L91.6263 32.0186L89.9137 25.6294L88.7079 25.9524L88.4608 25.0305L88.4614 25.0328ZM84.1002 26.2009C83.9075 25.4821 84.3836 24.7383 85.1889 24.5226C85.9943 24.3069 86.7786 24.7131 86.9713 25.4319L87.2104 26.3241L84.3416 27.0925L84.1025 26.2003L84.1002 26.2009ZM89.6833 31.4286L87.5232 33.2398L84.7465 32.7509L83.7128 28.8946L88.6473 27.573L89.681 31.4293L89.6833 31.4286Z" fill="black"/>
<path d="M128.036 3.86327C128.076 3.85241 128.059 3.78909 128.019 3.79996C127.978 3.81082 127.995 3.87414 128.036 3.86327Z" fill="black"/>
<path d="M70.3565 35.9626C69.9035 34.054 69.4566 32.1414 69.0519 30.2223C68.6472 28.3032 68.3525 26.2667 68.9946 24.3778C70.238 20.7113 74.3427 18.8317 77.7805 17.8938C79.7824 17.3479 81.8268 16.9152 83.8376 16.3937C90.7411 14.6034 97.6476 12.8244 104.56 11.0585C110.865 9.44792 117.146 7.73628 123.434 6.05948C126.984 5.11345 130.604 3.65469 134.33 4.36385C135.974 4.67667 137.58 5.39859 138.705 6.67478C140.018 8.16449 140.609 10.1241 141.169 11.992C141.699 13.7624 142.187 15.5466 142.672 17.3292C144.125 22.6947 145.562 28.0645 147.006 33.4324C149.243 41.7599 151.48 50.0874 153.717 58.4126C155.373 64.5746 157.025 70.7378 158.689 76.898C159.047 78.2329 159.489 79.555 159.814 80.8961C161.124 86.2851 160.906 91.8292 160.127 97.274C158.852 106.17 157.596 115.067 156.301 123.961C155.858 126.995 155.457 130.035 155.016 133.068C154.748 134.913 154.333 136.841 153.296 138.413C152.189 140.094 150.396 140.892 148.524 141.432C146.652 141.973 144.754 142.442 142.88 142.981C139.513 143.949 136.142 144.888 132.786 145.887C132.475 145.981 132.6 146.456 132.918 146.378C136.538 145.494 140.141 144.57 143.735 143.586C146.989 142.692 151.22 142.422 153.608 139.74C155.801 137.277 156.125 133.74 156.636 130.604C158.112 121.52 159.414 112.406 160.803 103.307C161.546 98.4372 162.51 93.5274 162.402 88.5843C162.325 85.0685 161.765 81.6721 160.761 78.3143C159.273 73.3469 158.054 68.2808 156.705 63.274C154.402 54.7195 152.101 46.1645 149.798 37.61C148.062 31.1588 146.33 24.7064 144.587 18.257C143.603 14.6147 142.912 10.6739 141.107 7.35184C139.541 4.4723 136.689 2.94935 133.497 2.64013C130.328 2.33454 127.301 3.33866 124.303 4.18819C119.247 5.62296 114.148 6.92037 109.074 8.28668C101.41 10.3493 93.7819 12.5392 86.1334 14.6611C84.3496 15.1561 82.5718 15.6738 80.7847 16.1476C75.6333 17.5152 69.1375 19.2892 68.3409 25.5777C67.9035 29.0307 69.3707 32.7122 70.3025 35.9795C70.3117 36.0137 70.364 35.9997 70.3571 35.9648L70.3565 35.9626Z" fill="black"/>
<path d="M129.776 146.887C127.949 147.332 125.986 147.848 124.103 147.465C122.473 147.134 121.026 145.819 119.902 144.655C119.217 143.946 118.615 143.192 118.016 142.414C116.005 139.805 114.035 137.17 112.019 134.568C106.798 127.834 101.512 121.152 96.2242 114.469C92.9279 110.304 90.0628 105.837 88.4387 100.743C87.9494 99.2082 87.6282 97.619 87.2156 96.0615C85.226 88.5751 83.2493 81.0828 81.1937 73.614C78.6265 64.2916 76.0144 54.9835 73.3159 45.6987C73.0622 44.825 72.7698 43.9618 72.4934 43.0942C72.393 42.7836 71.9351 42.9038 72.0042 43.2252C74.0099 52.5269 76.543 61.7314 78.8976 70.9519C80.9876 79.1402 83.2057 87.2967 85.3851 95.4635C85.7728 96.9371 86.1116 98.4287 86.5061 99.9005C87.9354 105.223 90.7613 110.126 94.1536 114.422C99.3835 121.043 104.557 127.725 109.937 134.223C112.236 136.999 114.52 139.787 116.824 142.559C119.001 145.178 121.361 147.845 125.039 147.938C126.687 147.981 128.25 147.464 129.79 146.94C129.823 146.928 129.811 146.875 129.775 146.885L129.776 146.887Z" fill="black"/>
<path d="M129.574 146.865C128.677 146.357 127.108 147.007 126.126 147.072C124.556 147.172 123 147.019 121.594 146.258C118.79 144.74 117.7 141.718 115.589 139.527C115.413 139.347 115.142 139.579 115.252 139.789C116.662 142.478 118.76 145.663 121.541 147.08C122.837 147.74 124.298 147.968 125.739 147.895C126.788 147.841 128.912 147.852 129.591 146.98C129.62 146.943 129.62 146.89 129.574 146.863L129.574 146.865Z" fill="black"/>
<path d="M71.6307 20.1699C69.5207 21.8405 68.3639 23.9015 68.1004 26.6207C67.9418 28.2578 68.427 30.0134 68.7699 31.6017C69.1127 33.1901 69.4314 35.2887 70.4121 36.6548C70.5521 36.8497 70.9504 36.8164 70.9217 36.5183C70.7892 35.1598 70.2459 33.8061 69.9679 32.4597C69.6486 30.9139 69.3272 29.3419 69.0826 27.7834C68.838 26.225 68.8522 24.9593 69.4227 23.5396C69.9197 22.3011 70.6287 21.0619 71.6458 20.1806C71.6537 20.1736 71.6409 20.1623 71.633 20.1693L71.6307 20.1699Z" fill="black"/>
<path d="M84.3356 86.0256C86.9727 85.5026 89.5807 84.6892 92.179 84.003C97.7788 82.5251 103.375 81.0261 108.969 79.5254C121.478 76.17 133.985 72.8078 146.46 69.3246C149.603 68.4487 152.969 67.6179 155.959 66.4379C156.233 66.3304 156.117 65.8797 155.839 65.9884C155.069 66.2923 154.211 66.4487 153.413 66.6552C151.614 67.12 149.819 67.6082 148.022 68.0844C142.424 69.5691 136.844 71.12 131.255 72.6367C118.756 76.0286 106.25 79.3977 93.7277 82.7126C90.5448 83.5554 87.3493 84.5605 84.1148 85.2018C83.5778 85.309 83.8009 86.1321 84.3356 86.0256Z" fill="black"/>
<path d="M100.923 88.3425C107.597 86.4252 114.327 84.6691 121.024 82.8265C125.432 81.614 129.858 80.4798 134.298 79.3883C136.451 78.8606 138.608 78.3465 140.764 77.8376C142.926 77.3269 145.24 76.6166 147.474 76.5636C148.756 76.5334 150.237 76.9216 150.953 78.0897C151.621 79.1801 151.253 80.5576 150.605 81.5602C149.153 83.8029 146.422 84.5296 144.028 85.3591C143.879 85.4114 143.941 85.6516 144.092 85.5987C146.198 84.8683 148.417 84.5503 150.328 83.3097C151.68 82.4316 152.501 80.3628 152.217 78.8028C151.346 74.0272 145.061 76.2878 142.176 76.9848C132.623 79.2891 123.131 81.7655 113.684 84.4623C109.412 85.6822 105.09 86.7226 100.817 87.938C100.561 88.0114 100.669 88.413 100.924 88.3396L100.923 88.3425Z" fill="black"/>
<path d="M142.329 86.0052C138.32 86.7586 134.298 87.408 130.336 88.3933C126.5 89.3473 122.664 90.2991 118.861 91.3838C116.924 91.9368 115.015 92.5483 113.068 93.0699C111.432 93.508 109.769 93.8434 108.141 94.3089C105.149 95.1641 102.132 96.1554 99.0261 96.4836C97.1336 96.6824 95.3941 96.6151 94.6456 94.5143C93.8274 92.2168 95.0074 90.0421 97.2413 89.2065C97.4275 89.1371 97.3554 88.8409 97.1593 88.9007C94.1858 89.8243 92.2874 92.8665 94.0951 95.7989C95.6616 98.3411 99.6838 97.3909 102.04 96.8284C103.834 96.3992 105.604 95.8002 107.383 95.3019C109.258 94.7752 111.157 94.3546 113.034 93.8347C117.613 92.5691 122.226 91.4313 126.814 90.1805C129.302 89.5018 131.841 88.9759 134.309 88.234C136.965 87.4346 139.64 86.6888 142.333 86.0189C142.344 86.0158 142.338 86.0005 142.329 86.0029L142.329 86.0052Z" fill="black"/>
<path d="M142.292 85.7338C140.333 85.9135 138.402 86.5409 136.508 87.0433C134.614 87.5457 132.587 87.9076 130.864 88.8753C130.758 88.9355 130.796 89.1405 130.93 89.1218C132.816 88.8882 134.595 88.1132 136.417 87.5884C138.372 87.0283 140.416 86.6885 142.325 85.9939C142.454 85.9471 142.451 85.718 142.292 85.7338Z" fill="black"/>
<path d="M121.531 82.6811C121.689 85.3094 122.742 88.1112 123.893 90.4566C124.007 90.6926 124.393 90.5283 124.316 90.2797C123.929 88.9992 123.541 87.753 123.213 86.4543C122.884 85.1556 122.626 83.8478 122.214 82.5934C122.097 82.2384 121.505 82.2673 121.531 82.6811Z" fill="black"/>
</g>
<defs>
<clipPath id="clip0_30788_54611">
<rect width="102.655" height="114.92" fill="white" transform="matrix(0.866067 -0.499832 0.500169 0.865984 6.875 118.784)"/>
</clipPath>
<clipPath id="clip1_30788_54611">
<rect width="77.3264" height="139.877" fill="white" transform="matrix(0.965951 -0.258726 0.258912 0.965901 65.0898 20.0063)"/>
</clipPath>
</defs>
</svg>
